%TF.GenerationSoftware,KiCad,Pcbnew,7.0.7*%
%TF.CreationDate,2023-08-19T03:36:19-07:00*%
%TF.ProjectId,genesis_m2_svideo_simple_standard,67656e65-7369-4735-9f6d-325f73766964,rev?*%
%TF.SameCoordinates,Original*%
%TF.FileFunction,Copper,L1,Top*%
%TF.FilePolarity,Positive*%
%FSLAX46Y46*%
G04 Gerber Fmt 4.6, Leading zero omitted, Abs format (unit mm)*
G04 Created by KiCad (PCBNEW 7.0.7) date 2023-08-19 03:36:19*
%MOMM*%
%LPD*%
G01*
G04 APERTURE LIST*
%TA.AperFunction,ComponentPad*%
%ADD10R,1.600000X1.600000*%
%TD*%
%TA.AperFunction,ComponentPad*%
%ADD11C,1.600000*%
%TD*%
%TA.AperFunction,SMDPad,CuDef*%
%ADD12R,4.006000X2.000000*%
%TD*%
%TA.AperFunction,ComponentPad*%
%ADD13O,1.600000X1.600000*%
%TD*%
%TA.AperFunction,ViaPad*%
%ADD14C,0.800000*%
%TD*%
%TA.AperFunction,Conductor*%
%ADD15C,0.650000*%
%TD*%
G04 APERTURE END LIST*
D10*
%TO.P,C2,1*%
%TO.N,Net-(C2-Pad1)*%
X94869000Y-78867000D03*
D11*
%TO.P,C2,2*%
%TO.N,Net-(J4-Pin_1)*%
X97369000Y-78867000D03*
%TD*%
D12*
%TO.P,J5,1,Pin_1*%
%TO.N,GND*%
X74676000Y-75057000D03*
%TD*%
%TO.P,J4,1,Pin_1*%
%TO.N,Net-(J4-Pin_1)*%
X103883000Y-81407000D03*
%TD*%
%TO.P,J3,1,Pin_1*%
%TO.N,Net-(J3-Pin_1)*%
X103883000Y-68580000D03*
%TD*%
%TO.P,J7,1,Pin_1*%
%TO.N,GND*%
X103883000Y-77216000D03*
%TD*%
D11*
%TO.P,R2,1*%
%TO.N,Net-(J2-Pin_1)*%
X80010000Y-78867000D03*
D13*
%TO.P,R2,2*%
%TO.N,Net-(C2-Pad1)*%
X90170000Y-78867000D03*
%TD*%
D12*
%TO.P,J1,1,Pin_1*%
%TO.N,Net-(J1-Pin_1)*%
X74676000Y-68580000D03*
%TD*%
D11*
%TO.P,R1,1*%
%TO.N,Net-(J1-Pin_1)*%
X80010000Y-68580000D03*
D13*
%TO.P,R1,2*%
%TO.N,Net-(C1-Pad1)*%
X90170000Y-68580000D03*
%TD*%
D10*
%TO.P,C1,1*%
%TO.N,Net-(C1-Pad1)*%
X94909000Y-68580000D03*
D11*
%TO.P,C1,2*%
%TO.N,Net-(J3-Pin_1)*%
X97409000Y-68580000D03*
%TD*%
D12*
%TO.P,J6,1,Pin_1*%
%TO.N,GND*%
X103883000Y-72898000D03*
%TD*%
%TO.P,J2,1,Pin_1*%
%TO.N,Net-(J2-Pin_1)*%
X74676000Y-81407000D03*
%TD*%
D14*
%TO.N,GND*%
X83312000Y-68580000D03*
X86868000Y-68580000D03*
X86868000Y-78867000D03*
X83312000Y-78867000D03*
%TD*%
D15*
%TO.N,Net-(C1-Pad1)*%
X90170000Y-68580000D02*
X94909000Y-68580000D01*
%TO.N,Net-(J3-Pin_1)*%
X97409000Y-68580000D02*
X103883000Y-68580000D01*
%TO.N,Net-(C2-Pad1)*%
X90170000Y-78867000D02*
X94869000Y-78867000D01*
%TO.N,Net-(J4-Pin_1)*%
X98679000Y-78867000D02*
X101219000Y-81407000D01*
X101219000Y-81407000D02*
X103883000Y-81407000D01*
X97369000Y-78867000D02*
X98679000Y-78867000D01*
%TO.N,Net-(J1-Pin_1)*%
X74676000Y-68580000D02*
X80010000Y-68580000D01*
%TO.N,Net-(J2-Pin_1)*%
X77470000Y-81407000D02*
X80010000Y-78867000D01*
X74676000Y-81407000D02*
X77470000Y-81407000D01*
%TD*%
%TA.AperFunction,Conductor*%
%TO.N,GND*%
G36*
X105607039Y-65805685D02*
G01*
X105652794Y-65858489D01*
X105664000Y-65910000D01*
X105664000Y-67055500D01*
X105644315Y-67122539D01*
X105591511Y-67168294D01*
X105540000Y-67179500D01*
X101848482Y-67179500D01*
X101767519Y-67192323D01*
X101754696Y-67194354D01*
X101641658Y-67251950D01*
X101641657Y-67251950D01*
X101641657Y-67251951D01*
X101641652Y-67251954D01*
X101551954Y-67341652D01*
X101551951Y-67341657D01*
X101494352Y-67454698D01*
X101479499Y-67548475D01*
X101479500Y-67730500D01*
X101459815Y-67797539D01*
X101407011Y-67843294D01*
X101355500Y-67854500D01*
X98427226Y-67854500D01*
X98360187Y-67834815D01*
X98328272Y-67805227D01*
X98299979Y-67767762D01*
X98135562Y-67617876D01*
X98135560Y-67617874D01*
X97946404Y-67500754D01*
X97946398Y-67500752D01*
X97738940Y-67420382D01*
X97520243Y-67379500D01*
X97297757Y-67379500D01*
X97079060Y-67420382D01*
X96947864Y-67471207D01*
X96871601Y-67500752D01*
X96871595Y-67500754D01*
X96682439Y-67617874D01*
X96682437Y-67617876D01*
X96518020Y-67767761D01*
X96383943Y-67945308D01*
X96383938Y-67945316D01*
X96344499Y-68024521D01*
X96296996Y-68075758D01*
X96229333Y-68093179D01*
X96162992Y-68071253D01*
X96119038Y-68016941D01*
X96109499Y-67969249D01*
X96109499Y-67945308D01*
X96109499Y-67748482D01*
X96094646Y-67654696D01*
X96037050Y-67541658D01*
X96037046Y-67541654D01*
X96037045Y-67541652D01*
X95947347Y-67451954D01*
X95947344Y-67451952D01*
X95947342Y-67451950D01*
X95870517Y-67412805D01*
X95834301Y-67394352D01*
X95740524Y-67379500D01*
X94077482Y-67379500D01*
X93996519Y-67392323D01*
X93983696Y-67394354D01*
X93870658Y-67451950D01*
X93870657Y-67451951D01*
X93870652Y-67451954D01*
X93780954Y-67541652D01*
X93780951Y-67541657D01*
X93780950Y-67541658D01*
X93777473Y-67548482D01*
X93723352Y-67654698D01*
X93708275Y-67749898D01*
X93678346Y-67813032D01*
X93619035Y-67849964D01*
X93585802Y-67854500D01*
X91188226Y-67854500D01*
X91121187Y-67834815D01*
X91089272Y-67805227D01*
X91060979Y-67767762D01*
X90896562Y-67617876D01*
X90896560Y-67617874D01*
X90707404Y-67500754D01*
X90707398Y-67500752D01*
X90499940Y-67420382D01*
X90281243Y-67379500D01*
X90058757Y-67379500D01*
X89840060Y-67420382D01*
X89708864Y-67471207D01*
X89632601Y-67500752D01*
X89632595Y-67500754D01*
X89443439Y-67617874D01*
X89443437Y-67617876D01*
X89279020Y-67767761D01*
X89144943Y-67945308D01*
X89144938Y-67945316D01*
X89045775Y-68144461D01*
X89045769Y-68144476D01*
X88984885Y-68358462D01*
X88984884Y-68358464D01*
X88964357Y-68579999D01*
X88964357Y-68580000D01*
X88984884Y-68801535D01*
X88984885Y-68801537D01*
X89045769Y-69015523D01*
X89045775Y-69015538D01*
X89144938Y-69214683D01*
X89144943Y-69214691D01*
X89279020Y-69392238D01*
X89443437Y-69542123D01*
X89443439Y-69542125D01*
X89632595Y-69659245D01*
X89632596Y-69659245D01*
X89632599Y-69659247D01*
X89840060Y-69739618D01*
X90058757Y-69780500D01*
X90058759Y-69780500D01*
X90281241Y-69780500D01*
X90281243Y-69780500D01*
X90499940Y-69739618D01*
X90707401Y-69659247D01*
X90896562Y-69542124D01*
X91060981Y-69392236D01*
X91089271Y-69354773D01*
X91145381Y-69313137D01*
X91188226Y-69305500D01*
X93585803Y-69305500D01*
X93652842Y-69325185D01*
X93698597Y-69377989D01*
X93708277Y-69410103D01*
X93708501Y-69411517D01*
X93708501Y-69411518D01*
X93723354Y-69505304D01*
X93780950Y-69618342D01*
X93780952Y-69618344D01*
X93780954Y-69618347D01*
X93870652Y-69708045D01*
X93870654Y-69708046D01*
X93870658Y-69708050D01*
X93983694Y-69765645D01*
X93983698Y-69765647D01*
X94077475Y-69780499D01*
X94077481Y-69780500D01*
X95740518Y-69780499D01*
X95834304Y-69765646D01*
X95947342Y-69708050D01*
X96037050Y-69618342D01*
X96094646Y-69505304D01*
X96094646Y-69505302D01*
X96094647Y-69505301D01*
X96109499Y-69411524D01*
X96109500Y-69411519D01*
X96109499Y-69190749D01*
X96129183Y-69123712D01*
X96181987Y-69077957D01*
X96251145Y-69068013D01*
X96314701Y-69097038D01*
X96344499Y-69135479D01*
X96383938Y-69214683D01*
X96383943Y-69214691D01*
X96518020Y-69392238D01*
X96682437Y-69542123D01*
X96682439Y-69542125D01*
X96871595Y-69659245D01*
X96871596Y-69659245D01*
X96871599Y-69659247D01*
X97079060Y-69739618D01*
X97297757Y-69780500D01*
X97297759Y-69780500D01*
X97520241Y-69780500D01*
X97520243Y-69780500D01*
X97738940Y-69739618D01*
X97946401Y-69659247D01*
X98135562Y-69542124D01*
X98299981Y-69392236D01*
X98328271Y-69354773D01*
X98384381Y-69313137D01*
X98427226Y-69305500D01*
X101355501Y-69305500D01*
X101422540Y-69325185D01*
X101468295Y-69377989D01*
X101479500Y-69429500D01*
X101479501Y-69611518D01*
X101494354Y-69705304D01*
X101551950Y-69818342D01*
X101551952Y-69818344D01*
X101551954Y-69818347D01*
X101641652Y-69908045D01*
X101641654Y-69908046D01*
X101641658Y-69908050D01*
X101754694Y-69965645D01*
X101754698Y-69965647D01*
X101848475Y-69980499D01*
X101848481Y-69980500D01*
X105540000Y-69980499D01*
X105607039Y-70000184D01*
X105652794Y-70052988D01*
X105664000Y-70104499D01*
X105664000Y-71274000D01*
X105644315Y-71341039D01*
X105591511Y-71386794D01*
X105540000Y-71398000D01*
X104133000Y-71398000D01*
X104133000Y-74398000D01*
X105540000Y-74398000D01*
X105607039Y-74417685D01*
X105652794Y-74470489D01*
X105664000Y-74522000D01*
X105664000Y-75592000D01*
X105644315Y-75659039D01*
X105591511Y-75704794D01*
X105540000Y-75716000D01*
X104133000Y-75716000D01*
X104133000Y-78716000D01*
X105540000Y-78716000D01*
X105607039Y-78735685D01*
X105652794Y-78788489D01*
X105664000Y-78840000D01*
X105664000Y-79882500D01*
X105644315Y-79949539D01*
X105591511Y-79995294D01*
X105540000Y-80006500D01*
X101848482Y-80006500D01*
X101767519Y-80019323D01*
X101754696Y-80021354D01*
X101641658Y-80078950D01*
X101641657Y-80078951D01*
X101641652Y-80078954D01*
X101551954Y-80168652D01*
X101551951Y-80168657D01*
X101494352Y-80281698D01*
X101481198Y-80364750D01*
X101451268Y-80427885D01*
X101391956Y-80464815D01*
X101322094Y-80463817D01*
X101271044Y-80433032D01*
X99235769Y-78397758D01*
X99223988Y-78384125D01*
X99217986Y-78376063D01*
X99210305Y-78365745D01*
X99210302Y-78365743D01*
X99210302Y-78365742D01*
X99171665Y-78333321D01*
X99167679Y-78329668D01*
X99162128Y-78324116D01*
X99162123Y-78324112D01*
X99137277Y-78304467D01*
X99136650Y-78303941D01*
X99080383Y-78256727D01*
X99080380Y-78256725D01*
X99074348Y-78252758D01*
X99074401Y-78252676D01*
X99068656Y-78249017D01*
X99068605Y-78249100D01*
X99062458Y-78245308D01*
X98995183Y-78213938D01*
X98928821Y-78180610D01*
X98922035Y-78178140D01*
X98922067Y-78178050D01*
X98915641Y-78175816D01*
X98915611Y-78175908D01*
X98908755Y-78173636D01*
X98836050Y-78158623D01*
X98763792Y-78141498D01*
X98756624Y-78140661D01*
X98756635Y-78140564D01*
X98749867Y-78139872D01*
X98749859Y-78139969D01*
X98742668Y-78139339D01*
X98668432Y-78141500D01*
X98387226Y-78141500D01*
X98320187Y-78121815D01*
X98288272Y-78092227D01*
X98259979Y-78054762D01*
X98095562Y-77904876D01*
X98095560Y-77904874D01*
X97906404Y-77787754D01*
X97906398Y-77787752D01*
X97698940Y-77707382D01*
X97480243Y-77666500D01*
X97257757Y-77666500D01*
X97039060Y-77707382D01*
X96907864Y-77758207D01*
X96831601Y-77787752D01*
X96831595Y-77787754D01*
X96642439Y-77904874D01*
X96642437Y-77904876D01*
X96478020Y-78054761D01*
X96343943Y-78232308D01*
X96343938Y-78232316D01*
X96304499Y-78311521D01*
X96256996Y-78362758D01*
X96189333Y-78380179D01*
X96122992Y-78358253D01*
X96079038Y-78303941D01*
X96069499Y-78256249D01*
X96069499Y-78158623D01*
X96069499Y-78035482D01*
X96054646Y-77941696D01*
X95997050Y-77828658D01*
X95997046Y-77828654D01*
X95997045Y-77828652D01*
X95907347Y-77738954D01*
X95907344Y-77738952D01*
X95907342Y-77738950D01*
X95830517Y-77699805D01*
X95794301Y-77681352D01*
X95700524Y-77666500D01*
X94037482Y-77666500D01*
X93956519Y-77679323D01*
X93943696Y-77681354D01*
X93830658Y-77738950D01*
X93830657Y-77738951D01*
X93830652Y-77738954D01*
X93740954Y-77828652D01*
X93740951Y-77828657D01*
X93683352Y-77941698D01*
X93668275Y-78036898D01*
X93638346Y-78100032D01*
X93579035Y-78136964D01*
X93545802Y-78141500D01*
X91188226Y-78141500D01*
X91121187Y-78121815D01*
X91089272Y-78092227D01*
X91060979Y-78054762D01*
X90896562Y-77904876D01*
X90896560Y-77904874D01*
X90707404Y-77787754D01*
X90707398Y-77787752D01*
X90499940Y-77707382D01*
X90281243Y-77666500D01*
X90058757Y-77666500D01*
X89840060Y-77707382D01*
X89708864Y-77758207D01*
X89632601Y-77787752D01*
X89632595Y-77787754D01*
X89443439Y-77904874D01*
X89443437Y-77904876D01*
X89279020Y-78054761D01*
X89144943Y-78232308D01*
X89144938Y-78232316D01*
X89045775Y-78431461D01*
X89045769Y-78431476D01*
X88984885Y-78645462D01*
X88984884Y-78645464D01*
X88964357Y-78866999D01*
X88964357Y-78867000D01*
X88984884Y-79088535D01*
X88984885Y-79088537D01*
X89045769Y-79302523D01*
X89045775Y-79302538D01*
X89144938Y-79501683D01*
X89144943Y-79501691D01*
X89279020Y-79679238D01*
X89443437Y-79829123D01*
X89443439Y-79829125D01*
X89632595Y-79946245D01*
X89632596Y-79946245D01*
X89632599Y-79946247D01*
X89840060Y-80026618D01*
X90058757Y-80067500D01*
X90058759Y-80067500D01*
X90281241Y-80067500D01*
X90281243Y-80067500D01*
X90499940Y-80026618D01*
X90707401Y-79946247D01*
X90896562Y-79829124D01*
X91060981Y-79679236D01*
X91089271Y-79641773D01*
X91145381Y-79600137D01*
X91188226Y-79592500D01*
X93545803Y-79592500D01*
X93612842Y-79612185D01*
X93658597Y-79664989D01*
X93668277Y-79697103D01*
X93668501Y-79698517D01*
X93668501Y-79698518D01*
X93683354Y-79792304D01*
X93740950Y-79905342D01*
X93740952Y-79905344D01*
X93740954Y-79905347D01*
X93830652Y-79995045D01*
X93830654Y-79995046D01*
X93830658Y-79995050D01*
X93943694Y-80052645D01*
X93943698Y-80052647D01*
X94037475Y-80067499D01*
X94037481Y-80067500D01*
X95700518Y-80067499D01*
X95794304Y-80052646D01*
X95907342Y-79995050D01*
X95997050Y-79905342D01*
X96054646Y-79792304D01*
X96054646Y-79792302D01*
X96054647Y-79792301D01*
X96069499Y-79698524D01*
X96069500Y-79698519D01*
X96069499Y-79477749D01*
X96089183Y-79410712D01*
X96141987Y-79364957D01*
X96211145Y-79355013D01*
X96274701Y-79384038D01*
X96304499Y-79422479D01*
X96343938Y-79501683D01*
X96343943Y-79501691D01*
X96478020Y-79679238D01*
X96642437Y-79829123D01*
X96642439Y-79829125D01*
X96831595Y-79946245D01*
X96831596Y-79946245D01*
X96831599Y-79946247D01*
X97039060Y-80026618D01*
X97257757Y-80067500D01*
X97257759Y-80067500D01*
X97480241Y-80067500D01*
X97480243Y-80067500D01*
X97698940Y-80026618D01*
X97906401Y-79946247D01*
X98095562Y-79829124D01*
X98259981Y-79679236D01*
X98262407Y-79676022D01*
X98318512Y-79634382D01*
X98388224Y-79629684D01*
X98449048Y-79663060D01*
X100662231Y-81876243D01*
X100674007Y-81889868D01*
X100687698Y-81908258D01*
X100687699Y-81908259D01*
X100687700Y-81908260D01*
X100726327Y-81940673D01*
X100730316Y-81944328D01*
X100735871Y-81949883D01*
X100738571Y-81952286D01*
X100737328Y-81953682D01*
X100773487Y-82004630D01*
X100776700Y-82074426D01*
X100741669Y-82134879D01*
X100679515Y-82166796D01*
X100656242Y-82169000D01*
X78035979Y-82169000D01*
X77968940Y-82149315D01*
X77923185Y-82096511D01*
X77913241Y-82027353D01*
X77942266Y-81963797D01*
X77945783Y-81959908D01*
X77963929Y-81940673D01*
X77990468Y-81912543D01*
X79799715Y-80103295D01*
X79861036Y-80069812D01*
X79893024Y-80067862D01*
X79893024Y-80067500D01*
X80121241Y-80067500D01*
X80121243Y-80067500D01*
X80339940Y-80026618D01*
X80547401Y-79946247D01*
X80736562Y-79829124D01*
X80900981Y-79679236D01*
X81035058Y-79501689D01*
X81134229Y-79302528D01*
X81195115Y-79088536D01*
X81215643Y-78867000D01*
X81195115Y-78645464D01*
X81134229Y-78431472D01*
X81134224Y-78431461D01*
X81035061Y-78232316D01*
X81035056Y-78232308D01*
X80900979Y-78054761D01*
X80736562Y-77904876D01*
X80736560Y-77904874D01*
X80547404Y-77787754D01*
X80547398Y-77787752D01*
X80339940Y-77707382D01*
X80121243Y-77666500D01*
X79898757Y-77666500D01*
X79680060Y-77707382D01*
X79548864Y-77758207D01*
X79472601Y-77787752D01*
X79472595Y-77787754D01*
X79283439Y-77904874D01*
X79283437Y-77904876D01*
X79119020Y-78054761D01*
X78984943Y-78232308D01*
X78984938Y-78232316D01*
X78885775Y-78431461D01*
X78885769Y-78431476D01*
X78824885Y-78645462D01*
X78824884Y-78645464D01*
X78804357Y-78866999D01*
X78804357Y-78867001D01*
X78814219Y-78973435D01*
X78800804Y-79042005D01*
X78778429Y-79072557D01*
X77291180Y-80559808D01*
X77229857Y-80593293D01*
X77160166Y-80588309D01*
X77104232Y-80546437D01*
X77079815Y-80480973D01*
X77079499Y-80472127D01*
X77079499Y-80375482D01*
X77077799Y-80364750D01*
X77064646Y-80281696D01*
X77007050Y-80168658D01*
X77007046Y-80168654D01*
X77007045Y-80168652D01*
X76917347Y-80078954D01*
X76917344Y-80078952D01*
X76917342Y-80078950D01*
X76840517Y-80039805D01*
X76804301Y-80021352D01*
X76710524Y-80006500D01*
X76710519Y-80006500D01*
X73022000Y-80006500D01*
X72954961Y-79986815D01*
X72909206Y-79934011D01*
X72898000Y-79882500D01*
X72898000Y-77466000D01*
X101380000Y-77466000D01*
X101380000Y-78263844D01*
X101386401Y-78323372D01*
X101386403Y-78323379D01*
X101436645Y-78458086D01*
X101436649Y-78458093D01*
X101522809Y-78573187D01*
X101522812Y-78573190D01*
X101637906Y-78659350D01*
X101637913Y-78659354D01*
X101772620Y-78709596D01*
X101772627Y-78709598D01*
X101832155Y-78715999D01*
X101832172Y-78716000D01*
X103633000Y-78716000D01*
X103633000Y-77466000D01*
X101380000Y-77466000D01*
X72898000Y-77466000D01*
X72898000Y-76966000D01*
X101380000Y-76966000D01*
X103633000Y-76966000D01*
X103633000Y-75716000D01*
X101832155Y-75716000D01*
X101772627Y-75722401D01*
X101772620Y-75722403D01*
X101637913Y-75772645D01*
X101637906Y-75772649D01*
X101522812Y-75858809D01*
X101522809Y-75858812D01*
X101436649Y-75973906D01*
X101436645Y-75973913D01*
X101386403Y-76108620D01*
X101386401Y-76108627D01*
X101380000Y-76168155D01*
X101380000Y-76966000D01*
X72898000Y-76966000D01*
X72898000Y-76681000D01*
X72917685Y-76613961D01*
X72970489Y-76568206D01*
X73022000Y-76557000D01*
X74426000Y-76557000D01*
X74426000Y-75307000D01*
X74926000Y-75307000D01*
X74926000Y-76557000D01*
X76726828Y-76557000D01*
X76726844Y-76556999D01*
X76786372Y-76550598D01*
X76786379Y-76550596D01*
X76921086Y-76500354D01*
X76921093Y-76500350D01*
X77036187Y-76414190D01*
X77036190Y-76414187D01*
X77122350Y-76299093D01*
X77122354Y-76299086D01*
X77172596Y-76164379D01*
X77172598Y-76164372D01*
X77178999Y-76104844D01*
X77179000Y-76104827D01*
X77179000Y-75307000D01*
X74926000Y-75307000D01*
X74426000Y-75307000D01*
X74426000Y-73557000D01*
X74926000Y-73557000D01*
X74926000Y-74807000D01*
X77179000Y-74807000D01*
X77179000Y-74009172D01*
X77178999Y-74009155D01*
X77172598Y-73949627D01*
X77172596Y-73949620D01*
X77122354Y-73814913D01*
X77122350Y-73814906D01*
X77036190Y-73699812D01*
X77036187Y-73699809D01*
X76921093Y-73613649D01*
X76921086Y-73613645D01*
X76786379Y-73563403D01*
X76786372Y-73563401D01*
X76726844Y-73557000D01*
X74926000Y-73557000D01*
X74426000Y-73557000D01*
X73022000Y-73557000D01*
X72954961Y-73537315D01*
X72909206Y-73484511D01*
X72898000Y-73433000D01*
X72898000Y-73148000D01*
X101380000Y-73148000D01*
X101380000Y-73945844D01*
X101386401Y-74005372D01*
X101386403Y-74005379D01*
X101436645Y-74140086D01*
X101436649Y-74140093D01*
X101522809Y-74255187D01*
X101522812Y-74255190D01*
X101637906Y-74341350D01*
X101637913Y-74341354D01*
X101772620Y-74391596D01*
X101772627Y-74391598D01*
X101832155Y-74397999D01*
X101832172Y-74398000D01*
X103633000Y-74398000D01*
X103633000Y-73148000D01*
X101380000Y-73148000D01*
X72898000Y-73148000D01*
X72898000Y-72648000D01*
X101380000Y-72648000D01*
X103633000Y-72648000D01*
X103633000Y-71398000D01*
X101832155Y-71398000D01*
X101772627Y-71404401D01*
X101772620Y-71404403D01*
X101637913Y-71454645D01*
X101637906Y-71454649D01*
X101522812Y-71540809D01*
X101522809Y-71540812D01*
X101436649Y-71655906D01*
X101436645Y-71655913D01*
X101386403Y-71790620D01*
X101386401Y-71790627D01*
X101380000Y-71850155D01*
X101380000Y-72648000D01*
X72898000Y-72648000D01*
X72898000Y-70104499D01*
X72917685Y-70037460D01*
X72970489Y-69991705D01*
X73022000Y-69980499D01*
X76710517Y-69980499D01*
X76710518Y-69980499D01*
X76804304Y-69965646D01*
X76917342Y-69908050D01*
X77007050Y-69818342D01*
X77064646Y-69705304D01*
X77064646Y-69705302D01*
X77064647Y-69705301D01*
X77079500Y-69611524D01*
X77079500Y-69429500D01*
X77099185Y-69362461D01*
X77151989Y-69316706D01*
X77203500Y-69305500D01*
X78991774Y-69305500D01*
X79058813Y-69325185D01*
X79090728Y-69354773D01*
X79119019Y-69392236D01*
X79243048Y-69505304D01*
X79283437Y-69542123D01*
X79283439Y-69542125D01*
X79472595Y-69659245D01*
X79472596Y-69659245D01*
X79472599Y-69659247D01*
X79680060Y-69739618D01*
X79898757Y-69780500D01*
X79898759Y-69780500D01*
X80121241Y-69780500D01*
X80121243Y-69780500D01*
X80339940Y-69739618D01*
X80547401Y-69659247D01*
X80736562Y-69542124D01*
X80900981Y-69392236D01*
X81035058Y-69214689D01*
X81134229Y-69015528D01*
X81195115Y-68801536D01*
X81215643Y-68580000D01*
X81195115Y-68358464D01*
X81134229Y-68144472D01*
X81108688Y-68093179D01*
X81035061Y-67945316D01*
X81035056Y-67945308D01*
X80900979Y-67767761D01*
X80736562Y-67617876D01*
X80736560Y-67617874D01*
X80547404Y-67500754D01*
X80547398Y-67500752D01*
X80339940Y-67420382D01*
X80121243Y-67379500D01*
X79898757Y-67379500D01*
X79680060Y-67420382D01*
X79548864Y-67471207D01*
X79472601Y-67500752D01*
X79472595Y-67500754D01*
X79283439Y-67617874D01*
X79283437Y-67617876D01*
X79119020Y-67767762D01*
X79090728Y-67805227D01*
X79034619Y-67846863D01*
X78991774Y-67854500D01*
X77203499Y-67854500D01*
X77136460Y-67834815D01*
X77090705Y-67782011D01*
X77079499Y-67730500D01*
X77079499Y-67548482D01*
X77071940Y-67500753D01*
X77064646Y-67454696D01*
X77007050Y-67341658D01*
X77007046Y-67341654D01*
X77007045Y-67341652D01*
X76917347Y-67251954D01*
X76917344Y-67251952D01*
X76917342Y-67251950D01*
X76840517Y-67212805D01*
X76804301Y-67194352D01*
X76710524Y-67179500D01*
X76710519Y-67179500D01*
X73022000Y-67179500D01*
X72954961Y-67159815D01*
X72909206Y-67107011D01*
X72898000Y-67055500D01*
X72898000Y-65910000D01*
X72917685Y-65842961D01*
X72970489Y-65797206D01*
X73022000Y-65786000D01*
X105540000Y-65786000D01*
X105607039Y-65805685D01*
G37*
%TD.AperFunction*%
%TD*%
M02*
