%TF.GenerationSoftware,KiCad,Pcbnew,7.0.7*%
%TF.CreationDate,2023-08-19T03:36:19-07:00*%
%TF.ProjectId,genesis_m2_svideo_simple_standard,67656e65-7369-4735-9f6d-325f73766964,rev?*%
%TF.SameCoordinates,Original*%
%TF.FileFunction,Legend,Bot*%
%TF.FilePolarity,Positive*%
%FSLAX46Y46*%
G04 Gerber Fmt 4.6, Leading zero omitted, Abs format (unit mm)*
G04 Created by KiCad (PCBNEW 7.0.7) date 2023-08-19 03:36:19*
%MOMM*%
%LPD*%
G01*
G04 APERTURE LIST*
%ADD10C,0.100000*%
%ADD11C,0.150000*%
G04 APERTURE END LIST*
D10*
X91839714Y-74681942D02*
X91839714Y-75062895D01*
X92106381Y-74262895D02*
X91839714Y-74681942D01*
X91839714Y-74681942D02*
X91573048Y-74262895D01*
X90696857Y-74643847D02*
X90087334Y-74643847D01*
X90087334Y-74872419D02*
X90696857Y-74872419D01*
X88715905Y-75062895D02*
X89096857Y-75062895D01*
X89096857Y-75062895D02*
X89096857Y-74262895D01*
X88106381Y-74529561D02*
X88106381Y-75062895D01*
X88449238Y-74529561D02*
X88449238Y-74948609D01*
X88449238Y-74948609D02*
X88411143Y-75024800D01*
X88411143Y-75024800D02*
X88334953Y-75062895D01*
X88334953Y-75062895D02*
X88220667Y-75062895D01*
X88220667Y-75062895D02*
X88144476Y-75024800D01*
X88144476Y-75024800D02*
X88106381Y-74986704D01*
X87725428Y-75062895D02*
X87725428Y-74529561D01*
X87725428Y-74605752D02*
X87687333Y-74567657D01*
X87687333Y-74567657D02*
X87611143Y-74529561D01*
X87611143Y-74529561D02*
X87496857Y-74529561D01*
X87496857Y-74529561D02*
X87420666Y-74567657D01*
X87420666Y-74567657D02*
X87382571Y-74643847D01*
X87382571Y-74643847D02*
X87382571Y-75062895D01*
X87382571Y-74643847D02*
X87344476Y-74567657D01*
X87344476Y-74567657D02*
X87268285Y-74529561D01*
X87268285Y-74529561D02*
X87154000Y-74529561D01*
X87154000Y-74529561D02*
X87077809Y-74567657D01*
X87077809Y-74567657D02*
X87039714Y-74643847D01*
X87039714Y-74643847D02*
X87039714Y-75062895D01*
X86315904Y-75062895D02*
X86315904Y-74643847D01*
X86315904Y-74643847D02*
X86353999Y-74567657D01*
X86353999Y-74567657D02*
X86430190Y-74529561D01*
X86430190Y-74529561D02*
X86582571Y-74529561D01*
X86582571Y-74529561D02*
X86658761Y-74567657D01*
X86315904Y-75024800D02*
X86392095Y-75062895D01*
X86392095Y-75062895D02*
X86582571Y-75062895D01*
X86582571Y-75062895D02*
X86658761Y-75024800D01*
X86658761Y-75024800D02*
X86696857Y-74948609D01*
X86696857Y-74948609D02*
X86696857Y-74872419D01*
X86696857Y-74872419D02*
X86658761Y-74796228D01*
X86658761Y-74796228D02*
X86582571Y-74758133D01*
X86582571Y-74758133D02*
X86392095Y-74758133D01*
X86392095Y-74758133D02*
X86315904Y-74720038D01*
X92277809Y-76274704D02*
X92315905Y-76312800D01*
X92315905Y-76312800D02*
X92430190Y-76350895D01*
X92430190Y-76350895D02*
X92506381Y-76350895D01*
X92506381Y-76350895D02*
X92620667Y-76312800D01*
X92620667Y-76312800D02*
X92696857Y-76236609D01*
X92696857Y-76236609D02*
X92734952Y-76160419D01*
X92734952Y-76160419D02*
X92773048Y-76008038D01*
X92773048Y-76008038D02*
X92773048Y-75893752D01*
X92773048Y-75893752D02*
X92734952Y-75741371D01*
X92734952Y-75741371D02*
X92696857Y-75665180D01*
X92696857Y-75665180D02*
X92620667Y-75588990D01*
X92620667Y-75588990D02*
X92506381Y-75550895D01*
X92506381Y-75550895D02*
X92430190Y-75550895D01*
X92430190Y-75550895D02*
X92315905Y-75588990D01*
X92315905Y-75588990D02*
X92277809Y-75627085D01*
X91325428Y-75931847D02*
X90715905Y-75931847D01*
X90715905Y-76160419D02*
X91325428Y-76160419D01*
X89268285Y-76274704D02*
X89306381Y-76312800D01*
X89306381Y-76312800D02*
X89420666Y-76350895D01*
X89420666Y-76350895D02*
X89496857Y-76350895D01*
X89496857Y-76350895D02*
X89611143Y-76312800D01*
X89611143Y-76312800D02*
X89687333Y-76236609D01*
X89687333Y-76236609D02*
X89725428Y-76160419D01*
X89725428Y-76160419D02*
X89763524Y-76008038D01*
X89763524Y-76008038D02*
X89763524Y-75893752D01*
X89763524Y-75893752D02*
X89725428Y-75741371D01*
X89725428Y-75741371D02*
X89687333Y-75665180D01*
X89687333Y-75665180D02*
X89611143Y-75588990D01*
X89611143Y-75588990D02*
X89496857Y-75550895D01*
X89496857Y-75550895D02*
X89420666Y-75550895D01*
X89420666Y-75550895D02*
X89306381Y-75588990D01*
X89306381Y-75588990D02*
X89268285Y-75627085D01*
X88925428Y-76350895D02*
X88925428Y-75550895D01*
X88582571Y-76350895D02*
X88582571Y-75931847D01*
X88582571Y-75931847D02*
X88620666Y-75855657D01*
X88620666Y-75855657D02*
X88696857Y-75817561D01*
X88696857Y-75817561D02*
X88811143Y-75817561D01*
X88811143Y-75817561D02*
X88887333Y-75855657D01*
X88887333Y-75855657D02*
X88925428Y-75893752D01*
X88201618Y-76350895D02*
X88201618Y-75817561D01*
X88201618Y-75969942D02*
X88163523Y-75893752D01*
X88163523Y-75893752D02*
X88125428Y-75855657D01*
X88125428Y-75855657D02*
X88049237Y-75817561D01*
X88049237Y-75817561D02*
X87973047Y-75817561D01*
X87592095Y-76350895D02*
X87668285Y-76312800D01*
X87668285Y-76312800D02*
X87706380Y-76274704D01*
X87706380Y-76274704D02*
X87744476Y-76198514D01*
X87744476Y-76198514D02*
X87744476Y-75969942D01*
X87744476Y-75969942D02*
X87706380Y-75893752D01*
X87706380Y-75893752D02*
X87668285Y-75855657D01*
X87668285Y-75855657D02*
X87592095Y-75817561D01*
X87592095Y-75817561D02*
X87477809Y-75817561D01*
X87477809Y-75817561D02*
X87401618Y-75855657D01*
X87401618Y-75855657D02*
X87363523Y-75893752D01*
X87363523Y-75893752D02*
X87325428Y-75969942D01*
X87325428Y-75969942D02*
X87325428Y-76198514D01*
X87325428Y-76198514D02*
X87363523Y-76274704D01*
X87363523Y-76274704D02*
X87401618Y-76312800D01*
X87401618Y-76312800D02*
X87477809Y-76350895D01*
X87477809Y-76350895D02*
X87592095Y-76350895D01*
X86982570Y-76350895D02*
X86982570Y-75817561D01*
X86982570Y-75893752D02*
X86944475Y-75855657D01*
X86944475Y-75855657D02*
X86868285Y-75817561D01*
X86868285Y-75817561D02*
X86753999Y-75817561D01*
X86753999Y-75817561D02*
X86677808Y-75855657D01*
X86677808Y-75855657D02*
X86639713Y-75931847D01*
X86639713Y-75931847D02*
X86639713Y-76350895D01*
X86639713Y-75931847D02*
X86601618Y-75855657D01*
X86601618Y-75855657D02*
X86525427Y-75817561D01*
X86525427Y-75817561D02*
X86411142Y-75817561D01*
X86411142Y-75817561D02*
X86334951Y-75855657D01*
X86334951Y-75855657D02*
X86296856Y-75931847D01*
X86296856Y-75931847D02*
X86296856Y-76350895D01*
X85573046Y-76350895D02*
X85573046Y-75931847D01*
X85573046Y-75931847D02*
X85611141Y-75855657D01*
X85611141Y-75855657D02*
X85687332Y-75817561D01*
X85687332Y-75817561D02*
X85839713Y-75817561D01*
X85839713Y-75817561D02*
X85915903Y-75855657D01*
X85573046Y-76312800D02*
X85649237Y-76350895D01*
X85649237Y-76350895D02*
X85839713Y-76350895D01*
X85839713Y-76350895D02*
X85915903Y-76312800D01*
X85915903Y-76312800D02*
X85953999Y-76236609D01*
X85953999Y-76236609D02*
X85953999Y-76160419D01*
X85953999Y-76160419D02*
X85915903Y-76084228D01*
X85915903Y-76084228D02*
X85839713Y-76046133D01*
X85839713Y-76046133D02*
X85649237Y-76046133D01*
X85649237Y-76046133D02*
X85573046Y-76008038D01*
X98011143Y-72268895D02*
X98011143Y-71468895D01*
X98011143Y-71468895D02*
X97744477Y-72040323D01*
X97744477Y-72040323D02*
X97477810Y-71468895D01*
X97477810Y-71468895D02*
X97477810Y-72268895D01*
X96982572Y-72268895D02*
X97058762Y-72230800D01*
X97058762Y-72230800D02*
X97096857Y-72192704D01*
X97096857Y-72192704D02*
X97134953Y-72116514D01*
X97134953Y-72116514D02*
X97134953Y-71887942D01*
X97134953Y-71887942D02*
X97096857Y-71811752D01*
X97096857Y-71811752D02*
X97058762Y-71773657D01*
X97058762Y-71773657D02*
X96982572Y-71735561D01*
X96982572Y-71735561D02*
X96868286Y-71735561D01*
X96868286Y-71735561D02*
X96792095Y-71773657D01*
X96792095Y-71773657D02*
X96754000Y-71811752D01*
X96754000Y-71811752D02*
X96715905Y-71887942D01*
X96715905Y-71887942D02*
X96715905Y-72116514D01*
X96715905Y-72116514D02*
X96754000Y-72192704D01*
X96754000Y-72192704D02*
X96792095Y-72230800D01*
X96792095Y-72230800D02*
X96868286Y-72268895D01*
X96868286Y-72268895D02*
X96982572Y-72268895D01*
X96030190Y-72268895D02*
X96030190Y-71468895D01*
X96030190Y-72230800D02*
X96106381Y-72268895D01*
X96106381Y-72268895D02*
X96258762Y-72268895D01*
X96258762Y-72268895D02*
X96334952Y-72230800D01*
X96334952Y-72230800D02*
X96373047Y-72192704D01*
X96373047Y-72192704D02*
X96411143Y-72116514D01*
X96411143Y-72116514D02*
X96411143Y-71887942D01*
X96411143Y-71887942D02*
X96373047Y-71811752D01*
X96373047Y-71811752D02*
X96334952Y-71773657D01*
X96334952Y-71773657D02*
X96258762Y-71735561D01*
X96258762Y-71735561D02*
X96106381Y-71735561D01*
X96106381Y-71735561D02*
X96030190Y-71773657D01*
X95344475Y-72230800D02*
X95420666Y-72268895D01*
X95420666Y-72268895D02*
X95573047Y-72268895D01*
X95573047Y-72268895D02*
X95649237Y-72230800D01*
X95649237Y-72230800D02*
X95687333Y-72154609D01*
X95687333Y-72154609D02*
X95687333Y-71849847D01*
X95687333Y-71849847D02*
X95649237Y-71773657D01*
X95649237Y-71773657D02*
X95573047Y-71735561D01*
X95573047Y-71735561D02*
X95420666Y-71735561D01*
X95420666Y-71735561D02*
X95344475Y-71773657D01*
X95344475Y-71773657D02*
X95306380Y-71849847D01*
X95306380Y-71849847D02*
X95306380Y-71926038D01*
X95306380Y-71926038D02*
X95687333Y-72002228D01*
X94849238Y-72268895D02*
X94925428Y-72230800D01*
X94925428Y-72230800D02*
X94963523Y-72154609D01*
X94963523Y-72154609D02*
X94963523Y-71468895D01*
X93973047Y-71545085D02*
X93934951Y-71506990D01*
X93934951Y-71506990D02*
X93858761Y-71468895D01*
X93858761Y-71468895D02*
X93668285Y-71468895D01*
X93668285Y-71468895D02*
X93592094Y-71506990D01*
X93592094Y-71506990D02*
X93553999Y-71545085D01*
X93553999Y-71545085D02*
X93515904Y-71621276D01*
X93515904Y-71621276D02*
X93515904Y-71697466D01*
X93515904Y-71697466D02*
X93553999Y-71811752D01*
X93553999Y-71811752D02*
X94011142Y-72268895D01*
X94011142Y-72268895D02*
X93515904Y-72268895D01*
X91915903Y-72268895D02*
X91953999Y-72268895D01*
X91953999Y-72268895D02*
X92030189Y-72230800D01*
X92030189Y-72230800D02*
X92144475Y-72116514D01*
X92144475Y-72116514D02*
X92334951Y-71887942D01*
X92334951Y-71887942D02*
X92411141Y-71773657D01*
X92411141Y-71773657D02*
X92449237Y-71659371D01*
X92449237Y-71659371D02*
X92449237Y-71583180D01*
X92449237Y-71583180D02*
X92411141Y-71506990D01*
X92411141Y-71506990D02*
X92334951Y-71468895D01*
X92334951Y-71468895D02*
X92296856Y-71468895D01*
X92296856Y-71468895D02*
X92220665Y-71506990D01*
X92220665Y-71506990D02*
X92182570Y-71583180D01*
X92182570Y-71583180D02*
X92182570Y-71621276D01*
X92182570Y-71621276D02*
X92220665Y-71697466D01*
X92220665Y-71697466D02*
X92258760Y-71735561D01*
X92258760Y-71735561D02*
X92487332Y-71887942D01*
X92487332Y-71887942D02*
X92525427Y-71926038D01*
X92525427Y-71926038D02*
X92563522Y-72002228D01*
X92563522Y-72002228D02*
X92563522Y-72116514D01*
X92563522Y-72116514D02*
X92525427Y-72192704D01*
X92525427Y-72192704D02*
X92487332Y-72230800D01*
X92487332Y-72230800D02*
X92411141Y-72268895D01*
X92411141Y-72268895D02*
X92296856Y-72268895D01*
X92296856Y-72268895D02*
X92220665Y-72230800D01*
X92220665Y-72230800D02*
X92182570Y-72192704D01*
X92182570Y-72192704D02*
X92068284Y-72040323D01*
X92068284Y-72040323D02*
X92030189Y-71926038D01*
X92030189Y-71926038D02*
X92030189Y-71849847D01*
X91039713Y-71468895D02*
X90544475Y-71468895D01*
X90544475Y-71468895D02*
X90811141Y-71773657D01*
X90811141Y-71773657D02*
X90696856Y-71773657D01*
X90696856Y-71773657D02*
X90620665Y-71811752D01*
X90620665Y-71811752D02*
X90582570Y-71849847D01*
X90582570Y-71849847D02*
X90544475Y-71926038D01*
X90544475Y-71926038D02*
X90544475Y-72116514D01*
X90544475Y-72116514D02*
X90582570Y-72192704D01*
X90582570Y-72192704D02*
X90620665Y-72230800D01*
X90620665Y-72230800D02*
X90696856Y-72268895D01*
X90696856Y-72268895D02*
X90925427Y-72268895D01*
X90925427Y-72268895D02*
X91001618Y-72230800D01*
X91001618Y-72230800D02*
X91039713Y-72192704D01*
X89592093Y-72268895D02*
X89592093Y-71468895D01*
X89592093Y-71468895D02*
X89325427Y-72040323D01*
X89325427Y-72040323D02*
X89058760Y-71468895D01*
X89058760Y-71468895D02*
X89058760Y-72268895D01*
X88677807Y-72268895D02*
X88677807Y-71468895D01*
X88677807Y-71468895D02*
X88487331Y-71468895D01*
X88487331Y-71468895D02*
X88373045Y-71506990D01*
X88373045Y-71506990D02*
X88296855Y-71583180D01*
X88296855Y-71583180D02*
X88258760Y-71659371D01*
X88258760Y-71659371D02*
X88220664Y-71811752D01*
X88220664Y-71811752D02*
X88220664Y-71926038D01*
X88220664Y-71926038D02*
X88258760Y-72078419D01*
X88258760Y-72078419D02*
X88296855Y-72154609D01*
X88296855Y-72154609D02*
X88373045Y-72230800D01*
X88373045Y-72230800D02*
X88487331Y-72268895D01*
X88487331Y-72268895D02*
X88677807Y-72268895D01*
X87306379Y-71430800D02*
X87992093Y-72459371D01*
X87077808Y-72230800D02*
X86963522Y-72268895D01*
X86963522Y-72268895D02*
X86773046Y-72268895D01*
X86773046Y-72268895D02*
X86696855Y-72230800D01*
X86696855Y-72230800D02*
X86658760Y-72192704D01*
X86658760Y-72192704D02*
X86620665Y-72116514D01*
X86620665Y-72116514D02*
X86620665Y-72040323D01*
X86620665Y-72040323D02*
X86658760Y-71964133D01*
X86658760Y-71964133D02*
X86696855Y-71926038D01*
X86696855Y-71926038D02*
X86773046Y-71887942D01*
X86773046Y-71887942D02*
X86925427Y-71849847D01*
X86925427Y-71849847D02*
X87001617Y-71811752D01*
X87001617Y-71811752D02*
X87039712Y-71773657D01*
X87039712Y-71773657D02*
X87077808Y-71697466D01*
X87077808Y-71697466D02*
X87077808Y-71621276D01*
X87077808Y-71621276D02*
X87039712Y-71545085D01*
X87039712Y-71545085D02*
X87001617Y-71506990D01*
X87001617Y-71506990D02*
X86925427Y-71468895D01*
X86925427Y-71468895D02*
X86734950Y-71468895D01*
X86734950Y-71468895D02*
X86620665Y-71506990D01*
X85858760Y-71506990D02*
X85934950Y-71468895D01*
X85934950Y-71468895D02*
X86049236Y-71468895D01*
X86049236Y-71468895D02*
X86163522Y-71506990D01*
X86163522Y-71506990D02*
X86239712Y-71583180D01*
X86239712Y-71583180D02*
X86277807Y-71659371D01*
X86277807Y-71659371D02*
X86315903Y-71811752D01*
X86315903Y-71811752D02*
X86315903Y-71926038D01*
X86315903Y-71926038D02*
X86277807Y-72078419D01*
X86277807Y-72078419D02*
X86239712Y-72154609D01*
X86239712Y-72154609D02*
X86163522Y-72230800D01*
X86163522Y-72230800D02*
X86049236Y-72268895D01*
X86049236Y-72268895D02*
X85973045Y-72268895D01*
X85973045Y-72268895D02*
X85858760Y-72230800D01*
X85858760Y-72230800D02*
X85820664Y-72192704D01*
X85820664Y-72192704D02*
X85820664Y-71926038D01*
X85820664Y-71926038D02*
X85973045Y-71926038D01*
X84906379Y-72230800D02*
X84792093Y-72268895D01*
X84792093Y-72268895D02*
X84601617Y-72268895D01*
X84601617Y-72268895D02*
X84525426Y-72230800D01*
X84525426Y-72230800D02*
X84487331Y-72192704D01*
X84487331Y-72192704D02*
X84449236Y-72116514D01*
X84449236Y-72116514D02*
X84449236Y-72040323D01*
X84449236Y-72040323D02*
X84487331Y-71964133D01*
X84487331Y-71964133D02*
X84525426Y-71926038D01*
X84525426Y-71926038D02*
X84601617Y-71887942D01*
X84601617Y-71887942D02*
X84753998Y-71849847D01*
X84753998Y-71849847D02*
X84830188Y-71811752D01*
X84830188Y-71811752D02*
X84868283Y-71773657D01*
X84868283Y-71773657D02*
X84906379Y-71697466D01*
X84906379Y-71697466D02*
X84906379Y-71621276D01*
X84906379Y-71621276D02*
X84868283Y-71545085D01*
X84868283Y-71545085D02*
X84830188Y-71506990D01*
X84830188Y-71506990D02*
X84753998Y-71468895D01*
X84753998Y-71468895D02*
X84563521Y-71468895D01*
X84563521Y-71468895D02*
X84449236Y-71506990D01*
X84106378Y-71964133D02*
X83496855Y-71964133D01*
X83230188Y-71468895D02*
X82963521Y-72268895D01*
X82963521Y-72268895D02*
X82696855Y-71468895D01*
X82430188Y-72268895D02*
X82430188Y-71735561D01*
X82430188Y-71468895D02*
X82468284Y-71506990D01*
X82468284Y-71506990D02*
X82430188Y-71545085D01*
X82430188Y-71545085D02*
X82392093Y-71506990D01*
X82392093Y-71506990D02*
X82430188Y-71468895D01*
X82430188Y-71468895D02*
X82430188Y-71545085D01*
X81706379Y-72268895D02*
X81706379Y-71468895D01*
X81706379Y-72230800D02*
X81782570Y-72268895D01*
X81782570Y-72268895D02*
X81934951Y-72268895D01*
X81934951Y-72268895D02*
X82011141Y-72230800D01*
X82011141Y-72230800D02*
X82049236Y-72192704D01*
X82049236Y-72192704D02*
X82087332Y-72116514D01*
X82087332Y-72116514D02*
X82087332Y-71887942D01*
X82087332Y-71887942D02*
X82049236Y-71811752D01*
X82049236Y-71811752D02*
X82011141Y-71773657D01*
X82011141Y-71773657D02*
X81934951Y-71735561D01*
X81934951Y-71735561D02*
X81782570Y-71735561D01*
X81782570Y-71735561D02*
X81706379Y-71773657D01*
X81020664Y-72230800D02*
X81096855Y-72268895D01*
X81096855Y-72268895D02*
X81249236Y-72268895D01*
X81249236Y-72268895D02*
X81325426Y-72230800D01*
X81325426Y-72230800D02*
X81363522Y-72154609D01*
X81363522Y-72154609D02*
X81363522Y-71849847D01*
X81363522Y-71849847D02*
X81325426Y-71773657D01*
X81325426Y-71773657D02*
X81249236Y-71735561D01*
X81249236Y-71735561D02*
X81096855Y-71735561D01*
X81096855Y-71735561D02*
X81020664Y-71773657D01*
X81020664Y-71773657D02*
X80982569Y-71849847D01*
X80982569Y-71849847D02*
X80982569Y-71926038D01*
X80982569Y-71926038D02*
X81363522Y-72002228D01*
X80525427Y-72268895D02*
X80601617Y-72230800D01*
X80601617Y-72230800D02*
X80639712Y-72192704D01*
X80639712Y-72192704D02*
X80677808Y-72116514D01*
X80677808Y-72116514D02*
X80677808Y-71887942D01*
X80677808Y-71887942D02*
X80639712Y-71811752D01*
X80639712Y-71811752D02*
X80601617Y-71773657D01*
X80601617Y-71773657D02*
X80525427Y-71735561D01*
X80525427Y-71735561D02*
X80411141Y-71735561D01*
X80411141Y-71735561D02*
X80334950Y-71773657D01*
X80334950Y-71773657D02*
X80296855Y-71811752D01*
X80296855Y-71811752D02*
X80258760Y-71887942D01*
X80258760Y-71887942D02*
X80258760Y-72116514D01*
X80258760Y-72116514D02*
X80296855Y-72192704D01*
X80296855Y-72192704D02*
X80334950Y-72230800D01*
X80334950Y-72230800D02*
X80411141Y-72268895D01*
X80411141Y-72268895D02*
X80525427Y-72268895D01*
X93344477Y-73137847D02*
X93230191Y-73175942D01*
X93230191Y-73175942D02*
X93192096Y-73214038D01*
X93192096Y-73214038D02*
X93154000Y-73290228D01*
X93154000Y-73290228D02*
X93154000Y-73404514D01*
X93154000Y-73404514D02*
X93192096Y-73480704D01*
X93192096Y-73480704D02*
X93230191Y-73518800D01*
X93230191Y-73518800D02*
X93306381Y-73556895D01*
X93306381Y-73556895D02*
X93611143Y-73556895D01*
X93611143Y-73556895D02*
X93611143Y-72756895D01*
X93611143Y-72756895D02*
X93344477Y-72756895D01*
X93344477Y-72756895D02*
X93268286Y-72794990D01*
X93268286Y-72794990D02*
X93230191Y-72833085D01*
X93230191Y-72833085D02*
X93192096Y-72909276D01*
X93192096Y-72909276D02*
X93192096Y-72985466D01*
X93192096Y-72985466D02*
X93230191Y-73061657D01*
X93230191Y-73061657D02*
X93268286Y-73099752D01*
X93268286Y-73099752D02*
X93344477Y-73137847D01*
X93344477Y-73137847D02*
X93611143Y-73137847D01*
X92887334Y-73023561D02*
X92696858Y-73556895D01*
X92506381Y-73023561D02*
X92696858Y-73556895D01*
X92696858Y-73556895D02*
X92773048Y-73747371D01*
X92773048Y-73747371D02*
X92811143Y-73785466D01*
X92811143Y-73785466D02*
X92887334Y-73823561D01*
X91592095Y-73023561D02*
X91592095Y-73709276D01*
X91592095Y-73709276D02*
X91630191Y-73785466D01*
X91630191Y-73785466D02*
X91706381Y-73823561D01*
X91706381Y-73823561D02*
X91744476Y-73823561D01*
X91592095Y-72756895D02*
X91630191Y-72794990D01*
X91630191Y-72794990D02*
X91592095Y-72833085D01*
X91592095Y-72833085D02*
X91554000Y-72794990D01*
X91554000Y-72794990D02*
X91592095Y-72756895D01*
X91592095Y-72756895D02*
X91592095Y-72833085D01*
X91096858Y-73556895D02*
X91173048Y-73518800D01*
X91173048Y-73518800D02*
X91211143Y-73480704D01*
X91211143Y-73480704D02*
X91249239Y-73404514D01*
X91249239Y-73404514D02*
X91249239Y-73175942D01*
X91249239Y-73175942D02*
X91211143Y-73099752D01*
X91211143Y-73099752D02*
X91173048Y-73061657D01*
X91173048Y-73061657D02*
X91096858Y-73023561D01*
X91096858Y-73023561D02*
X90982572Y-73023561D01*
X90982572Y-73023561D02*
X90906381Y-73061657D01*
X90906381Y-73061657D02*
X90868286Y-73099752D01*
X90868286Y-73099752D02*
X90830191Y-73175942D01*
X90830191Y-73175942D02*
X90830191Y-73404514D01*
X90830191Y-73404514D02*
X90868286Y-73480704D01*
X90868286Y-73480704D02*
X90906381Y-73518800D01*
X90906381Y-73518800D02*
X90982572Y-73556895D01*
X90982572Y-73556895D02*
X91096858Y-73556895D01*
X90525429Y-73518800D02*
X90449238Y-73556895D01*
X90449238Y-73556895D02*
X90296857Y-73556895D01*
X90296857Y-73556895D02*
X90220667Y-73518800D01*
X90220667Y-73518800D02*
X90182571Y-73442609D01*
X90182571Y-73442609D02*
X90182571Y-73404514D01*
X90182571Y-73404514D02*
X90220667Y-73328323D01*
X90220667Y-73328323D02*
X90296857Y-73290228D01*
X90296857Y-73290228D02*
X90411143Y-73290228D01*
X90411143Y-73290228D02*
X90487333Y-73252133D01*
X90487333Y-73252133D02*
X90525429Y-73175942D01*
X90525429Y-73175942D02*
X90525429Y-73137847D01*
X90525429Y-73137847D02*
X90487333Y-73061657D01*
X90487333Y-73061657D02*
X90411143Y-73023561D01*
X90411143Y-73023561D02*
X90296857Y-73023561D01*
X90296857Y-73023561D02*
X90220667Y-73061657D01*
X89839714Y-73556895D02*
X89839714Y-72756895D01*
X89496857Y-73556895D02*
X89496857Y-73137847D01*
X89496857Y-73137847D02*
X89534952Y-73061657D01*
X89534952Y-73061657D02*
X89611143Y-73023561D01*
X89611143Y-73023561D02*
X89725429Y-73023561D01*
X89725429Y-73023561D02*
X89801619Y-73061657D01*
X89801619Y-73061657D02*
X89839714Y-73099752D01*
X89115904Y-73556895D02*
X89115904Y-73023561D01*
X89115904Y-73099752D02*
X89077809Y-73061657D01*
X89077809Y-73061657D02*
X89001619Y-73023561D01*
X89001619Y-73023561D02*
X88887333Y-73023561D01*
X88887333Y-73023561D02*
X88811142Y-73061657D01*
X88811142Y-73061657D02*
X88773047Y-73137847D01*
X88773047Y-73137847D02*
X88773047Y-73556895D01*
X88773047Y-73137847D02*
X88734952Y-73061657D01*
X88734952Y-73061657D02*
X88658761Y-73023561D01*
X88658761Y-73023561D02*
X88544476Y-73023561D01*
X88544476Y-73023561D02*
X88468285Y-73061657D01*
X88468285Y-73061657D02*
X88430190Y-73137847D01*
X88430190Y-73137847D02*
X88430190Y-73556895D01*
X87706380Y-73556895D02*
X87706380Y-73137847D01*
X87706380Y-73137847D02*
X87744475Y-73061657D01*
X87744475Y-73061657D02*
X87820666Y-73023561D01*
X87820666Y-73023561D02*
X87973047Y-73023561D01*
X87973047Y-73023561D02*
X88049237Y-73061657D01*
X87706380Y-73518800D02*
X87782571Y-73556895D01*
X87782571Y-73556895D02*
X87973047Y-73556895D01*
X87973047Y-73556895D02*
X88049237Y-73518800D01*
X88049237Y-73518800D02*
X88087333Y-73442609D01*
X88087333Y-73442609D02*
X88087333Y-73366419D01*
X88087333Y-73366419D02*
X88049237Y-73290228D01*
X88049237Y-73290228D02*
X87973047Y-73252133D01*
X87973047Y-73252133D02*
X87782571Y-73252133D01*
X87782571Y-73252133D02*
X87706380Y-73214038D01*
X87325427Y-73023561D02*
X87325427Y-73556895D01*
X87325427Y-73099752D02*
X87287332Y-73061657D01*
X87287332Y-73061657D02*
X87211142Y-73023561D01*
X87211142Y-73023561D02*
X87096856Y-73023561D01*
X87096856Y-73023561D02*
X87020665Y-73061657D01*
X87020665Y-73061657D02*
X86982570Y-73137847D01*
X86982570Y-73137847D02*
X86982570Y-73556895D01*
X86182570Y-73556895D02*
X86639713Y-73556895D01*
X86411141Y-73556895D02*
X86411141Y-72756895D01*
X86411141Y-72756895D02*
X86487332Y-72871180D01*
X86487332Y-72871180D02*
X86563522Y-72947371D01*
X86563522Y-72947371D02*
X86639713Y-72985466D01*
X85801617Y-73556895D02*
X85649236Y-73556895D01*
X85649236Y-73556895D02*
X85573046Y-73518800D01*
X85573046Y-73518800D02*
X85534950Y-73480704D01*
X85534950Y-73480704D02*
X85458760Y-73366419D01*
X85458760Y-73366419D02*
X85420665Y-73214038D01*
X85420665Y-73214038D02*
X85420665Y-72909276D01*
X85420665Y-72909276D02*
X85458760Y-72833085D01*
X85458760Y-72833085D02*
X85496855Y-72794990D01*
X85496855Y-72794990D02*
X85573046Y-72756895D01*
X85573046Y-72756895D02*
X85725427Y-72756895D01*
X85725427Y-72756895D02*
X85801617Y-72794990D01*
X85801617Y-72794990D02*
X85839712Y-72833085D01*
X85839712Y-72833085D02*
X85877808Y-72909276D01*
X85877808Y-72909276D02*
X85877808Y-73099752D01*
X85877808Y-73099752D02*
X85839712Y-73175942D01*
X85839712Y-73175942D02*
X85801617Y-73214038D01*
X85801617Y-73214038D02*
X85725427Y-73252133D01*
X85725427Y-73252133D02*
X85573046Y-73252133D01*
X85573046Y-73252133D02*
X85496855Y-73214038D01*
X85496855Y-73214038D02*
X85458760Y-73175942D01*
X85458760Y-73175942D02*
X85420665Y-73099752D01*
X84734950Y-72756895D02*
X84887331Y-72756895D01*
X84887331Y-72756895D02*
X84963522Y-72794990D01*
X84963522Y-72794990D02*
X85001617Y-72833085D01*
X85001617Y-72833085D02*
X85077807Y-72947371D01*
X85077807Y-72947371D02*
X85115903Y-73099752D01*
X85115903Y-73099752D02*
X85115903Y-73404514D01*
X85115903Y-73404514D02*
X85077807Y-73480704D01*
X85077807Y-73480704D02*
X85039712Y-73518800D01*
X85039712Y-73518800D02*
X84963522Y-73556895D01*
X84963522Y-73556895D02*
X84811141Y-73556895D01*
X84811141Y-73556895D02*
X84734950Y-73518800D01*
X84734950Y-73518800D02*
X84696855Y-73480704D01*
X84696855Y-73480704D02*
X84658760Y-73404514D01*
X84658760Y-73404514D02*
X84658760Y-73214038D01*
X84658760Y-73214038D02*
X84696855Y-73137847D01*
X84696855Y-73137847D02*
X84734950Y-73099752D01*
X84734950Y-73099752D02*
X84811141Y-73061657D01*
X84811141Y-73061657D02*
X84963522Y-73061657D01*
X84963522Y-73061657D02*
X85039712Y-73099752D01*
X85039712Y-73099752D02*
X85077807Y-73137847D01*
X85077807Y-73137847D02*
X85115903Y-73214038D01*
D11*
X105146268Y-65896295D02*
X105146268Y-66467723D01*
X105146268Y-66467723D02*
X105184363Y-66582009D01*
X105184363Y-66582009D02*
X105260554Y-66658200D01*
X105260554Y-66658200D02*
X105374839Y-66696295D01*
X105374839Y-66696295D02*
X105451030Y-66696295D01*
X104384363Y-66696295D02*
X104765315Y-66696295D01*
X104765315Y-66696295D02*
X104765315Y-65896295D01*
X103660553Y-66620104D02*
X103698649Y-66658200D01*
X103698649Y-66658200D02*
X103812934Y-66696295D01*
X103812934Y-66696295D02*
X103889125Y-66696295D01*
X103889125Y-66696295D02*
X104003411Y-66658200D01*
X104003411Y-66658200D02*
X104079601Y-66582009D01*
X104079601Y-66582009D02*
X104117696Y-66505819D01*
X104117696Y-66505819D02*
X104155792Y-66353438D01*
X104155792Y-66353438D02*
X104155792Y-66239152D01*
X104155792Y-66239152D02*
X104117696Y-66086771D01*
X104117696Y-66086771D02*
X104079601Y-66010580D01*
X104079601Y-66010580D02*
X104003411Y-65934390D01*
X104003411Y-65934390D02*
X103889125Y-65896295D01*
X103889125Y-65896295D02*
X103812934Y-65896295D01*
X103812934Y-65896295D02*
X103698649Y-65934390D01*
X103698649Y-65934390D02*
X103660553Y-65972485D01*
X103089125Y-65896295D02*
X103089125Y-66467723D01*
X103089125Y-66467723D02*
X103127220Y-66582009D01*
X103127220Y-66582009D02*
X103203411Y-66658200D01*
X103203411Y-66658200D02*
X103317696Y-66696295D01*
X103317696Y-66696295D02*
X103393887Y-66696295D01*
X102327220Y-66696295D02*
X102708172Y-66696295D01*
X102708172Y-66696295D02*
X102708172Y-65896295D01*
X101603410Y-66620104D02*
X101641506Y-66658200D01*
X101641506Y-66658200D02*
X101755791Y-66696295D01*
X101755791Y-66696295D02*
X101831982Y-66696295D01*
X101831982Y-66696295D02*
X101946268Y-66658200D01*
X101946268Y-66658200D02*
X102022458Y-66582009D01*
X102022458Y-66582009D02*
X102060553Y-66505819D01*
X102060553Y-66505819D02*
X102098649Y-66353438D01*
X102098649Y-66353438D02*
X102098649Y-66239152D01*
X102098649Y-66239152D02*
X102060553Y-66086771D01*
X102060553Y-66086771D02*
X102022458Y-66010580D01*
X102022458Y-66010580D02*
X101946268Y-65934390D01*
X101946268Y-65934390D02*
X101831982Y-65896295D01*
X101831982Y-65896295D02*
X101755791Y-65896295D01*
X101755791Y-65896295D02*
X101641506Y-65934390D01*
X101641506Y-65934390D02*
X101603410Y-65972485D01*
X101031982Y-65896295D02*
X101031982Y-66467723D01*
X101031982Y-66467723D02*
X101070077Y-66582009D01*
X101070077Y-66582009D02*
X101146268Y-66658200D01*
X101146268Y-66658200D02*
X101260553Y-66696295D01*
X101260553Y-66696295D02*
X101336744Y-66696295D01*
X100270077Y-66696295D02*
X100651029Y-66696295D01*
X100651029Y-66696295D02*
X100651029Y-65896295D01*
X99546267Y-66620104D02*
X99584363Y-66658200D01*
X99584363Y-66658200D02*
X99698648Y-66696295D01*
X99698648Y-66696295D02*
X99774839Y-66696295D01*
X99774839Y-66696295D02*
X99889125Y-66658200D01*
X99889125Y-66658200D02*
X99965315Y-66582009D01*
X99965315Y-66582009D02*
X100003410Y-66505819D01*
X100003410Y-66505819D02*
X100041506Y-66353438D01*
X100041506Y-66353438D02*
X100041506Y-66239152D01*
X100041506Y-66239152D02*
X100003410Y-66086771D01*
X100003410Y-66086771D02*
X99965315Y-66010580D01*
X99965315Y-66010580D02*
X99889125Y-65934390D01*
X99889125Y-65934390D02*
X99774839Y-65896295D01*
X99774839Y-65896295D02*
X99698648Y-65896295D01*
X99698648Y-65896295D02*
X99584363Y-65934390D01*
X99584363Y-65934390D02*
X99546267Y-65972485D01*
X98974839Y-65896295D02*
X98974839Y-66467723D01*
X98974839Y-66467723D02*
X99012934Y-66582009D01*
X99012934Y-66582009D02*
X99089125Y-66658200D01*
X99089125Y-66658200D02*
X99203410Y-66696295D01*
X99203410Y-66696295D02*
X99279601Y-66696295D01*
X98212934Y-66696295D02*
X98593886Y-66696295D01*
X98593886Y-66696295D02*
X98593886Y-65896295D01*
X97489124Y-66620104D02*
X97527220Y-66658200D01*
X97527220Y-66658200D02*
X97641505Y-66696295D01*
X97641505Y-66696295D02*
X97717696Y-66696295D01*
X97717696Y-66696295D02*
X97831982Y-66658200D01*
X97831982Y-66658200D02*
X97908172Y-66582009D01*
X97908172Y-66582009D02*
X97946267Y-66505819D01*
X97946267Y-66505819D02*
X97984363Y-66353438D01*
X97984363Y-66353438D02*
X97984363Y-66239152D01*
X97984363Y-66239152D02*
X97946267Y-66086771D01*
X97946267Y-66086771D02*
X97908172Y-66010580D01*
X97908172Y-66010580D02*
X97831982Y-65934390D01*
X97831982Y-65934390D02*
X97717696Y-65896295D01*
X97717696Y-65896295D02*
X97641505Y-65896295D01*
X97641505Y-65896295D02*
X97527220Y-65934390D01*
X97527220Y-65934390D02*
X97489124Y-65972485D01*
M02*
