%TF.GenerationSoftware,KiCad,Pcbnew,7.0.7*%
%TF.CreationDate,2023-08-19T03:36:19-07:00*%
%TF.ProjectId,genesis_m2_svideo_simple_standard,67656e65-7369-4735-9f6d-325f73766964,rev?*%
%TF.SameCoordinates,Original*%
%TF.FileFunction,Copper,L2,Bot*%
%TF.FilePolarity,Positive*%
%FSLAX46Y46*%
G04 Gerber Fmt 4.6, Leading zero omitted, Abs format (unit mm)*
G04 Created by KiCad (PCBNEW 7.0.7) date 2023-08-19 03:36:19*
%MOMM*%
%LPD*%
G01*
G04 APERTURE LIST*
%TA.AperFunction,ComponentPad*%
%ADD10R,1.600000X1.600000*%
%TD*%
%TA.AperFunction,ComponentPad*%
%ADD11C,1.600000*%
%TD*%
%TA.AperFunction,ComponentPad*%
%ADD12O,1.600000X1.600000*%
%TD*%
%TA.AperFunction,ViaPad*%
%ADD13C,0.800000*%
%TD*%
G04 APERTURE END LIST*
D10*
%TO.P,C2,1*%
%TO.N,Net-(C2-Pad1)*%
X94869000Y-78867000D03*
D11*
%TO.P,C2,2*%
%TO.N,Net-(J4-Pin_1)*%
X97369000Y-78867000D03*
%TD*%
%TO.P,R2,1*%
%TO.N,Net-(J2-Pin_1)*%
X80010000Y-78867000D03*
D12*
%TO.P,R2,2*%
%TO.N,Net-(C2-Pad1)*%
X90170000Y-78867000D03*
%TD*%
D11*
%TO.P,R1,1*%
%TO.N,Net-(J1-Pin_1)*%
X80010000Y-68580000D03*
D12*
%TO.P,R1,2*%
%TO.N,Net-(C1-Pad1)*%
X90170000Y-68580000D03*
%TD*%
D10*
%TO.P,C1,1*%
%TO.N,Net-(C1-Pad1)*%
X94909000Y-68580000D03*
D11*
%TO.P,C1,2*%
%TO.N,Net-(J3-Pin_1)*%
X97409000Y-68580000D03*
%TD*%
D13*
%TO.N,GND*%
X83312000Y-68580000D03*
X86868000Y-68580000D03*
X86868000Y-78867000D03*
X83312000Y-78867000D03*
%TD*%
%TA.AperFunction,Conductor*%
%TO.N,GND*%
G36*
X105607039Y-65805685D02*
G01*
X105652794Y-65858489D01*
X105664000Y-65910000D01*
X105664000Y-82045000D01*
X105644315Y-82112039D01*
X105591511Y-82157794D01*
X105540000Y-82169000D01*
X73022000Y-82169000D01*
X72954961Y-82149315D01*
X72909206Y-82096511D01*
X72898000Y-82045000D01*
X72898000Y-78867000D01*
X78804357Y-78867000D01*
X78824884Y-79088535D01*
X78824885Y-79088537D01*
X78885769Y-79302523D01*
X78885775Y-79302538D01*
X78984938Y-79501683D01*
X78984943Y-79501691D01*
X79119020Y-79679238D01*
X79283437Y-79829123D01*
X79283439Y-79829125D01*
X79472595Y-79946245D01*
X79472596Y-79946245D01*
X79472599Y-79946247D01*
X79680060Y-80026618D01*
X79898757Y-80067500D01*
X79898759Y-80067500D01*
X80121241Y-80067500D01*
X80121243Y-80067500D01*
X80339940Y-80026618D01*
X80547401Y-79946247D01*
X80736562Y-79829124D01*
X80900981Y-79679236D01*
X81035058Y-79501689D01*
X81134229Y-79302528D01*
X81195115Y-79088536D01*
X81215643Y-78867000D01*
X88964357Y-78867000D01*
X88984884Y-79088535D01*
X88984885Y-79088537D01*
X89045769Y-79302523D01*
X89045775Y-79302538D01*
X89144938Y-79501683D01*
X89144943Y-79501691D01*
X89279020Y-79679238D01*
X89443437Y-79829123D01*
X89443439Y-79829125D01*
X89632595Y-79946245D01*
X89632596Y-79946245D01*
X89632599Y-79946247D01*
X89840060Y-80026618D01*
X90058757Y-80067500D01*
X90058759Y-80067500D01*
X90281241Y-80067500D01*
X90281243Y-80067500D01*
X90499940Y-80026618D01*
X90707401Y-79946247D01*
X90896562Y-79829124D01*
X91039831Y-79698517D01*
X93668500Y-79698517D01*
X93679292Y-79766657D01*
X93683354Y-79792304D01*
X93740950Y-79905342D01*
X93740952Y-79905344D01*
X93740954Y-79905347D01*
X93830652Y-79995045D01*
X93830654Y-79995046D01*
X93830658Y-79995050D01*
X93943694Y-80052645D01*
X93943698Y-80052647D01*
X94037475Y-80067499D01*
X94037481Y-80067500D01*
X95700518Y-80067499D01*
X95794304Y-80052646D01*
X95907342Y-79995050D01*
X95997050Y-79905342D01*
X96054646Y-79792304D01*
X96054646Y-79792302D01*
X96054647Y-79792301D01*
X96069499Y-79698524D01*
X96069500Y-79698519D01*
X96069499Y-79477749D01*
X96089183Y-79410712D01*
X96141987Y-79364957D01*
X96211145Y-79355013D01*
X96274701Y-79384038D01*
X96304499Y-79422479D01*
X96343938Y-79501683D01*
X96343943Y-79501691D01*
X96478020Y-79679238D01*
X96642437Y-79829123D01*
X96642439Y-79829125D01*
X96831595Y-79946245D01*
X96831596Y-79946245D01*
X96831599Y-79946247D01*
X97039060Y-80026618D01*
X97257757Y-80067500D01*
X97257759Y-80067500D01*
X97480241Y-80067500D01*
X97480243Y-80067500D01*
X97698940Y-80026618D01*
X97906401Y-79946247D01*
X98095562Y-79829124D01*
X98259981Y-79679236D01*
X98394058Y-79501689D01*
X98493229Y-79302528D01*
X98554115Y-79088536D01*
X98574643Y-78867000D01*
X98554115Y-78645464D01*
X98493229Y-78431472D01*
X98467688Y-78380179D01*
X98394061Y-78232316D01*
X98394056Y-78232308D01*
X98259979Y-78054761D01*
X98095562Y-77904876D01*
X98095560Y-77904874D01*
X97906404Y-77787754D01*
X97906398Y-77787752D01*
X97698940Y-77707382D01*
X97480243Y-77666500D01*
X97257757Y-77666500D01*
X97039060Y-77707382D01*
X96907864Y-77758207D01*
X96831601Y-77787752D01*
X96831595Y-77787754D01*
X96642439Y-77904874D01*
X96642437Y-77904876D01*
X96478020Y-78054761D01*
X96343943Y-78232308D01*
X96343938Y-78232316D01*
X96304499Y-78311521D01*
X96256996Y-78362758D01*
X96189333Y-78380179D01*
X96122992Y-78358253D01*
X96079038Y-78303941D01*
X96069499Y-78256249D01*
X96069499Y-78232308D01*
X96069499Y-78035482D01*
X96054646Y-77941696D01*
X95997050Y-77828658D01*
X95997046Y-77828654D01*
X95997045Y-77828652D01*
X95907347Y-77738954D01*
X95907344Y-77738952D01*
X95907342Y-77738950D01*
X95830517Y-77699805D01*
X95794301Y-77681352D01*
X95700524Y-77666500D01*
X94037482Y-77666500D01*
X93956519Y-77679323D01*
X93943696Y-77681354D01*
X93830658Y-77738950D01*
X93830657Y-77738951D01*
X93830652Y-77738954D01*
X93740954Y-77828652D01*
X93740951Y-77828657D01*
X93683352Y-77941698D01*
X93668500Y-78035475D01*
X93668500Y-79698517D01*
X91039831Y-79698517D01*
X91060981Y-79679236D01*
X91195058Y-79501689D01*
X91294229Y-79302528D01*
X91355115Y-79088536D01*
X91375643Y-78867000D01*
X91355115Y-78645464D01*
X91294229Y-78431472D01*
X91268688Y-78380179D01*
X91195061Y-78232316D01*
X91195056Y-78232308D01*
X91060979Y-78054761D01*
X90896562Y-77904876D01*
X90896560Y-77904874D01*
X90707404Y-77787754D01*
X90707398Y-77787752D01*
X90499940Y-77707382D01*
X90281243Y-77666500D01*
X90058757Y-77666500D01*
X89840060Y-77707382D01*
X89708864Y-77758207D01*
X89632601Y-77787752D01*
X89632595Y-77787754D01*
X89443439Y-77904874D01*
X89443437Y-77904876D01*
X89279020Y-78054761D01*
X89144943Y-78232308D01*
X89144938Y-78232316D01*
X89045775Y-78431461D01*
X89045769Y-78431476D01*
X88984885Y-78645462D01*
X88984884Y-78645464D01*
X88964357Y-78866999D01*
X88964357Y-78867000D01*
X81215643Y-78867000D01*
X81195115Y-78645464D01*
X81134229Y-78431472D01*
X81108688Y-78380179D01*
X81035061Y-78232316D01*
X81035056Y-78232308D01*
X80900979Y-78054761D01*
X80736562Y-77904876D01*
X80736560Y-77904874D01*
X80547404Y-77787754D01*
X80547398Y-77787752D01*
X80339940Y-77707382D01*
X80121243Y-77666500D01*
X79898757Y-77666500D01*
X79680060Y-77707382D01*
X79548864Y-77758207D01*
X79472601Y-77787752D01*
X79472595Y-77787754D01*
X79283439Y-77904874D01*
X79283437Y-77904876D01*
X79119020Y-78054761D01*
X78984943Y-78232308D01*
X78984938Y-78232316D01*
X78885775Y-78431461D01*
X78885769Y-78431476D01*
X78824885Y-78645462D01*
X78824884Y-78645464D01*
X78804357Y-78866999D01*
X78804357Y-78867000D01*
X72898000Y-78867000D01*
X72898000Y-68580000D01*
X78804357Y-68580000D01*
X78824884Y-68801535D01*
X78824885Y-68801537D01*
X78885769Y-69015523D01*
X78885775Y-69015538D01*
X78984938Y-69214683D01*
X78984943Y-69214691D01*
X79119020Y-69392238D01*
X79283437Y-69542123D01*
X79283439Y-69542125D01*
X79472595Y-69659245D01*
X79472596Y-69659245D01*
X79472599Y-69659247D01*
X79680060Y-69739618D01*
X79898757Y-69780500D01*
X79898759Y-69780500D01*
X80121241Y-69780500D01*
X80121243Y-69780500D01*
X80339940Y-69739618D01*
X80547401Y-69659247D01*
X80736562Y-69542124D01*
X80900981Y-69392236D01*
X81035058Y-69214689D01*
X81134229Y-69015528D01*
X81195115Y-68801536D01*
X81215643Y-68580000D01*
X88964357Y-68580000D01*
X88984884Y-68801535D01*
X88984885Y-68801537D01*
X89045769Y-69015523D01*
X89045775Y-69015538D01*
X89144938Y-69214683D01*
X89144943Y-69214691D01*
X89279020Y-69392238D01*
X89443437Y-69542123D01*
X89443439Y-69542125D01*
X89632595Y-69659245D01*
X89632596Y-69659245D01*
X89632599Y-69659247D01*
X89840060Y-69739618D01*
X90058757Y-69780500D01*
X90058759Y-69780500D01*
X90281241Y-69780500D01*
X90281243Y-69780500D01*
X90499940Y-69739618D01*
X90707401Y-69659247D01*
X90896562Y-69542124D01*
X91039831Y-69411517D01*
X93708500Y-69411517D01*
X93719292Y-69479657D01*
X93723354Y-69505304D01*
X93780950Y-69618342D01*
X93780952Y-69618344D01*
X93780954Y-69618347D01*
X93870652Y-69708045D01*
X93870654Y-69708046D01*
X93870658Y-69708050D01*
X93983694Y-69765645D01*
X93983698Y-69765647D01*
X94077475Y-69780499D01*
X94077481Y-69780500D01*
X95740518Y-69780499D01*
X95834304Y-69765646D01*
X95947342Y-69708050D01*
X96037050Y-69618342D01*
X96094646Y-69505304D01*
X96094646Y-69505302D01*
X96094647Y-69505301D01*
X96109499Y-69411524D01*
X96109500Y-69411519D01*
X96109499Y-69190749D01*
X96129183Y-69123712D01*
X96181987Y-69077957D01*
X96251145Y-69068013D01*
X96314701Y-69097038D01*
X96344499Y-69135479D01*
X96383938Y-69214683D01*
X96383943Y-69214691D01*
X96518020Y-69392238D01*
X96682437Y-69542123D01*
X96682439Y-69542125D01*
X96871595Y-69659245D01*
X96871596Y-69659245D01*
X96871599Y-69659247D01*
X97079060Y-69739618D01*
X97297757Y-69780500D01*
X97297759Y-69780500D01*
X97520241Y-69780500D01*
X97520243Y-69780500D01*
X97738940Y-69739618D01*
X97946401Y-69659247D01*
X98135562Y-69542124D01*
X98299981Y-69392236D01*
X98434058Y-69214689D01*
X98533229Y-69015528D01*
X98594115Y-68801536D01*
X98614643Y-68580000D01*
X98594115Y-68358464D01*
X98533229Y-68144472D01*
X98507688Y-68093179D01*
X98434061Y-67945316D01*
X98434056Y-67945308D01*
X98299979Y-67767761D01*
X98135562Y-67617876D01*
X98135560Y-67617874D01*
X97946404Y-67500754D01*
X97946398Y-67500752D01*
X97738940Y-67420382D01*
X97520243Y-67379500D01*
X97297757Y-67379500D01*
X97079060Y-67420382D01*
X96947864Y-67471207D01*
X96871601Y-67500752D01*
X96871595Y-67500754D01*
X96682439Y-67617874D01*
X96682437Y-67617876D01*
X96518020Y-67767761D01*
X96383943Y-67945308D01*
X96383938Y-67945316D01*
X96344499Y-68024521D01*
X96296996Y-68075758D01*
X96229333Y-68093179D01*
X96162992Y-68071253D01*
X96119038Y-68016941D01*
X96109499Y-67969249D01*
X96109499Y-67945308D01*
X96109499Y-67748482D01*
X96094646Y-67654696D01*
X96037050Y-67541658D01*
X96037046Y-67541654D01*
X96037045Y-67541652D01*
X95947347Y-67451954D01*
X95947344Y-67451952D01*
X95947342Y-67451950D01*
X95870517Y-67412805D01*
X95834301Y-67394352D01*
X95740524Y-67379500D01*
X94077482Y-67379500D01*
X93996519Y-67392323D01*
X93983696Y-67394354D01*
X93870658Y-67451950D01*
X93870657Y-67451951D01*
X93870652Y-67451954D01*
X93780954Y-67541652D01*
X93780951Y-67541657D01*
X93723352Y-67654698D01*
X93708500Y-67748475D01*
X93708500Y-69411517D01*
X91039831Y-69411517D01*
X91060981Y-69392236D01*
X91195058Y-69214689D01*
X91294229Y-69015528D01*
X91355115Y-68801536D01*
X91375643Y-68580000D01*
X91355115Y-68358464D01*
X91294229Y-68144472D01*
X91268688Y-68093179D01*
X91195061Y-67945316D01*
X91195056Y-67945308D01*
X91060979Y-67767761D01*
X90896562Y-67617876D01*
X90896560Y-67617874D01*
X90707404Y-67500754D01*
X90707398Y-67500752D01*
X90499940Y-67420382D01*
X90281243Y-67379500D01*
X90058757Y-67379500D01*
X89840060Y-67420382D01*
X89708864Y-67471207D01*
X89632601Y-67500752D01*
X89632595Y-67500754D01*
X89443439Y-67617874D01*
X89443437Y-67617876D01*
X89279020Y-67767761D01*
X89144943Y-67945308D01*
X89144938Y-67945316D01*
X89045775Y-68144461D01*
X89045769Y-68144476D01*
X88984885Y-68358462D01*
X88984884Y-68358464D01*
X88964357Y-68579999D01*
X88964357Y-68580000D01*
X81215643Y-68580000D01*
X81195115Y-68358464D01*
X81134229Y-68144472D01*
X81108688Y-68093179D01*
X81035061Y-67945316D01*
X81035056Y-67945308D01*
X80900979Y-67767761D01*
X80736562Y-67617876D01*
X80736560Y-67617874D01*
X80547404Y-67500754D01*
X80547398Y-67500752D01*
X80339940Y-67420382D01*
X80121243Y-67379500D01*
X79898757Y-67379500D01*
X79680060Y-67420382D01*
X79548864Y-67471207D01*
X79472601Y-67500752D01*
X79472595Y-67500754D01*
X79283439Y-67617874D01*
X79283437Y-67617876D01*
X79119020Y-67767761D01*
X78984943Y-67945308D01*
X78984938Y-67945316D01*
X78885775Y-68144461D01*
X78885769Y-68144476D01*
X78824885Y-68358462D01*
X78824884Y-68358464D01*
X78804357Y-68579999D01*
X78804357Y-68580000D01*
X72898000Y-68580000D01*
X72898000Y-65910000D01*
X72917685Y-65842961D01*
X72970489Y-65797206D01*
X73022000Y-65786000D01*
X105540000Y-65786000D01*
X105607039Y-65805685D01*
G37*
%TD.AperFunction*%
%TD*%
M02*
