%TF.GenerationSoftware,KiCad,Pcbnew,7.0.7*%
%TF.CreationDate,2023-08-19T03:36:19-07:00*%
%TF.ProjectId,genesis_m2_svideo_simple_standard,67656e65-7369-4735-9f6d-325f73766964,rev?*%
%TF.SameCoordinates,Original*%
%TF.FileFunction,Legend,Top*%
%TF.FilePolarity,Positive*%
%FSLAX46Y46*%
G04 Gerber Fmt 4.6, Leading zero omitted, Abs format (unit mm)*
G04 Created by KiCad (PCBNEW 7.0.7) date 2023-08-19 03:36:19*
%MOMM*%
%LPD*%
G01*
G04 APERTURE LIST*
%ADD10C,0.150000*%
%ADD11C,0.125000*%
%ADD12C,0.120000*%
G04 APERTURE END LIST*
D10*
X91999952Y-73337057D02*
X92047571Y-73289438D01*
X92047571Y-73289438D02*
X92142809Y-73241819D01*
X92142809Y-73241819D02*
X92380904Y-73241819D01*
X92380904Y-73241819D02*
X92476142Y-73289438D01*
X92476142Y-73289438D02*
X92523761Y-73337057D01*
X92523761Y-73337057D02*
X92571380Y-73432295D01*
X92571380Y-73432295D02*
X92571380Y-73527533D01*
X92571380Y-73527533D02*
X92523761Y-73670390D01*
X92523761Y-73670390D02*
X91952333Y-74241819D01*
X91952333Y-74241819D02*
X92571380Y-74241819D01*
X92952333Y-73337057D02*
X92999952Y-73289438D01*
X92999952Y-73289438D02*
X93095190Y-73241819D01*
X93095190Y-73241819D02*
X93333285Y-73241819D01*
X93333285Y-73241819D02*
X93428523Y-73289438D01*
X93428523Y-73289438D02*
X93476142Y-73337057D01*
X93476142Y-73337057D02*
X93523761Y-73432295D01*
X93523761Y-73432295D02*
X93523761Y-73527533D01*
X93523761Y-73527533D02*
X93476142Y-73670390D01*
X93476142Y-73670390D02*
X92904714Y-74241819D01*
X92904714Y-74241819D02*
X93523761Y-74241819D01*
X94142809Y-73241819D02*
X94238047Y-73241819D01*
X94238047Y-73241819D02*
X94333285Y-73289438D01*
X94333285Y-73289438D02*
X94380904Y-73337057D01*
X94380904Y-73337057D02*
X94428523Y-73432295D01*
X94428523Y-73432295D02*
X94476142Y-73622771D01*
X94476142Y-73622771D02*
X94476142Y-73860866D01*
X94476142Y-73860866D02*
X94428523Y-74051342D01*
X94428523Y-74051342D02*
X94380904Y-74146580D01*
X94380904Y-74146580D02*
X94333285Y-74194200D01*
X94333285Y-74194200D02*
X94238047Y-74241819D01*
X94238047Y-74241819D02*
X94142809Y-74241819D01*
X94142809Y-74241819D02*
X94047571Y-74194200D01*
X94047571Y-74194200D02*
X93999952Y-74146580D01*
X93999952Y-74146580D02*
X93952333Y-74051342D01*
X93952333Y-74051342D02*
X93904714Y-73860866D01*
X93904714Y-73860866D02*
X93904714Y-73622771D01*
X93904714Y-73622771D02*
X93952333Y-73432295D01*
X93952333Y-73432295D02*
X93999952Y-73337057D01*
X93999952Y-73337057D02*
X94047571Y-73289438D01*
X94047571Y-73289438D02*
X94142809Y-73241819D01*
X95333285Y-73575152D02*
X95333285Y-74241819D01*
X94904714Y-73575152D02*
X94904714Y-74098961D01*
X94904714Y-74098961D02*
X94952333Y-74194200D01*
X94952333Y-74194200D02*
X95047571Y-74241819D01*
X95047571Y-74241819D02*
X95190428Y-74241819D01*
X95190428Y-74241819D02*
X95285666Y-74194200D01*
X95285666Y-74194200D02*
X95333285Y-74146580D01*
X96142809Y-73718009D02*
X95809476Y-73718009D01*
X95809476Y-74241819D02*
X95809476Y-73241819D01*
X95809476Y-73241819D02*
X96285666Y-73241819D01*
X97857095Y-73241819D02*
X97666619Y-73241819D01*
X97666619Y-73241819D02*
X97571381Y-73289438D01*
X97571381Y-73289438D02*
X97523762Y-73337057D01*
X97523762Y-73337057D02*
X97428524Y-73479914D01*
X97428524Y-73479914D02*
X97380905Y-73670390D01*
X97380905Y-73670390D02*
X97380905Y-74051342D01*
X97380905Y-74051342D02*
X97428524Y-74146580D01*
X97428524Y-74146580D02*
X97476143Y-74194200D01*
X97476143Y-74194200D02*
X97571381Y-74241819D01*
X97571381Y-74241819D02*
X97761857Y-74241819D01*
X97761857Y-74241819D02*
X97857095Y-74194200D01*
X97857095Y-74194200D02*
X97904714Y-74146580D01*
X97904714Y-74146580D02*
X97952333Y-74051342D01*
X97952333Y-74051342D02*
X97952333Y-73813247D01*
X97952333Y-73813247D02*
X97904714Y-73718009D01*
X97904714Y-73718009D02*
X97857095Y-73670390D01*
X97857095Y-73670390D02*
X97761857Y-73622771D01*
X97761857Y-73622771D02*
X97571381Y-73622771D01*
X97571381Y-73622771D02*
X97476143Y-73670390D01*
X97476143Y-73670390D02*
X97428524Y-73718009D01*
X97428524Y-73718009D02*
X97380905Y-73813247D01*
X98380905Y-74146580D02*
X98428524Y-74194200D01*
X98428524Y-74194200D02*
X98380905Y-74241819D01*
X98380905Y-74241819D02*
X98333286Y-74194200D01*
X98333286Y-74194200D02*
X98380905Y-74146580D01*
X98380905Y-74146580D02*
X98380905Y-74241819D01*
X98761857Y-73241819D02*
X99380904Y-73241819D01*
X99380904Y-73241819D02*
X99047571Y-73622771D01*
X99047571Y-73622771D02*
X99190428Y-73622771D01*
X99190428Y-73622771D02*
X99285666Y-73670390D01*
X99285666Y-73670390D02*
X99333285Y-73718009D01*
X99333285Y-73718009D02*
X99380904Y-73813247D01*
X99380904Y-73813247D02*
X99380904Y-74051342D01*
X99380904Y-74051342D02*
X99333285Y-74146580D01*
X99333285Y-74146580D02*
X99285666Y-74194200D01*
X99285666Y-74194200D02*
X99190428Y-74241819D01*
X99190428Y-74241819D02*
X98904714Y-74241819D01*
X98904714Y-74241819D02*
X98809476Y-74194200D01*
X98809476Y-74194200D02*
X98761857Y-74146580D01*
X99666619Y-73241819D02*
X99999952Y-74241819D01*
X99999952Y-74241819D02*
X100333285Y-73241819D01*
D11*
X73990286Y-72450714D02*
X73904572Y-72407857D01*
X73904572Y-72407857D02*
X73776000Y-72407857D01*
X73776000Y-72407857D02*
X73647429Y-72450714D01*
X73647429Y-72450714D02*
X73561714Y-72536428D01*
X73561714Y-72536428D02*
X73518857Y-72622142D01*
X73518857Y-72622142D02*
X73476000Y-72793571D01*
X73476000Y-72793571D02*
X73476000Y-72922142D01*
X73476000Y-72922142D02*
X73518857Y-73093571D01*
X73518857Y-73093571D02*
X73561714Y-73179285D01*
X73561714Y-73179285D02*
X73647429Y-73265000D01*
X73647429Y-73265000D02*
X73776000Y-73307857D01*
X73776000Y-73307857D02*
X73861714Y-73307857D01*
X73861714Y-73307857D02*
X73990286Y-73265000D01*
X73990286Y-73265000D02*
X74033143Y-73222142D01*
X74033143Y-73222142D02*
X74033143Y-72922142D01*
X74033143Y-72922142D02*
X73861714Y-72922142D01*
X74418857Y-73307857D02*
X74418857Y-72407857D01*
X74418857Y-72407857D02*
X74933143Y-73307857D01*
X74933143Y-73307857D02*
X74933143Y-72407857D01*
X75361714Y-73307857D02*
X75361714Y-72407857D01*
X75361714Y-72407857D02*
X75576000Y-72407857D01*
X75576000Y-72407857D02*
X75704571Y-72450714D01*
X75704571Y-72450714D02*
X75790286Y-72536428D01*
X75790286Y-72536428D02*
X75833143Y-72622142D01*
X75833143Y-72622142D02*
X75876000Y-72793571D01*
X75876000Y-72793571D02*
X75876000Y-72922142D01*
X75876000Y-72922142D02*
X75833143Y-73093571D01*
X75833143Y-73093571D02*
X75790286Y-73179285D01*
X75790286Y-73179285D02*
X75704571Y-73265000D01*
X75704571Y-73265000D02*
X75576000Y-73307857D01*
X75576000Y-73307857D02*
X75361714Y-73307857D01*
X102686000Y-79699142D02*
X102643143Y-79742000D01*
X102643143Y-79742000D02*
X102514571Y-79784857D01*
X102514571Y-79784857D02*
X102428857Y-79784857D01*
X102428857Y-79784857D02*
X102300286Y-79742000D01*
X102300286Y-79742000D02*
X102214571Y-79656285D01*
X102214571Y-79656285D02*
X102171714Y-79570571D01*
X102171714Y-79570571D02*
X102128857Y-79399142D01*
X102128857Y-79399142D02*
X102128857Y-79270571D01*
X102128857Y-79270571D02*
X102171714Y-79099142D01*
X102171714Y-79099142D02*
X102214571Y-79013428D01*
X102214571Y-79013428D02*
X102300286Y-78927714D01*
X102300286Y-78927714D02*
X102428857Y-78884857D01*
X102428857Y-78884857D02*
X102514571Y-78884857D01*
X102514571Y-78884857D02*
X102643143Y-78927714D01*
X102643143Y-78927714D02*
X102686000Y-78970571D01*
X103928857Y-78884857D02*
X104100285Y-78884857D01*
X104100285Y-78884857D02*
X104186000Y-78927714D01*
X104186000Y-78927714D02*
X104271714Y-79013428D01*
X104271714Y-79013428D02*
X104314571Y-79184857D01*
X104314571Y-79184857D02*
X104314571Y-79484857D01*
X104314571Y-79484857D02*
X104271714Y-79656285D01*
X104271714Y-79656285D02*
X104186000Y-79742000D01*
X104186000Y-79742000D02*
X104100285Y-79784857D01*
X104100285Y-79784857D02*
X103928857Y-79784857D01*
X103928857Y-79784857D02*
X103843143Y-79742000D01*
X103843143Y-79742000D02*
X103757428Y-79656285D01*
X103757428Y-79656285D02*
X103714571Y-79484857D01*
X103714571Y-79484857D02*
X103714571Y-79184857D01*
X103714571Y-79184857D02*
X103757428Y-79013428D01*
X103757428Y-79013428D02*
X103843143Y-78927714D01*
X103843143Y-78927714D02*
X103928857Y-78884857D01*
X105086000Y-79184857D02*
X105086000Y-79784857D01*
X104700285Y-79184857D02*
X104700285Y-79656285D01*
X104700285Y-79656285D02*
X104743142Y-79742000D01*
X104743142Y-79742000D02*
X104828857Y-79784857D01*
X104828857Y-79784857D02*
X104957428Y-79784857D01*
X104957428Y-79784857D02*
X105043142Y-79742000D01*
X105043142Y-79742000D02*
X105086000Y-79699142D01*
X105386000Y-79184857D02*
X105728857Y-79184857D01*
X105514571Y-78884857D02*
X105514571Y-79656285D01*
X105514571Y-79656285D02*
X105557428Y-79742000D01*
X105557428Y-79742000D02*
X105643143Y-79784857D01*
X105643143Y-79784857D02*
X105728857Y-79784857D01*
X102407428Y-66529285D02*
X102407428Y-66957857D01*
X102107428Y-66057857D02*
X102407428Y-66529285D01*
X102407428Y-66529285D02*
X102707428Y-66057857D01*
X103864571Y-66057857D02*
X104035999Y-66057857D01*
X104035999Y-66057857D02*
X104121714Y-66100714D01*
X104121714Y-66100714D02*
X104207428Y-66186428D01*
X104207428Y-66186428D02*
X104250285Y-66357857D01*
X104250285Y-66357857D02*
X104250285Y-66657857D01*
X104250285Y-66657857D02*
X104207428Y-66829285D01*
X104207428Y-66829285D02*
X104121714Y-66915000D01*
X104121714Y-66915000D02*
X104035999Y-66957857D01*
X104035999Y-66957857D02*
X103864571Y-66957857D01*
X103864571Y-66957857D02*
X103778857Y-66915000D01*
X103778857Y-66915000D02*
X103693142Y-66829285D01*
X103693142Y-66829285D02*
X103650285Y-66657857D01*
X103650285Y-66657857D02*
X103650285Y-66357857D01*
X103650285Y-66357857D02*
X103693142Y-66186428D01*
X103693142Y-66186428D02*
X103778857Y-66100714D01*
X103778857Y-66100714D02*
X103864571Y-66057857D01*
X105021714Y-66357857D02*
X105021714Y-66957857D01*
X104635999Y-66357857D02*
X104635999Y-66829285D01*
X104635999Y-66829285D02*
X104678856Y-66915000D01*
X104678856Y-66915000D02*
X104764571Y-66957857D01*
X104764571Y-66957857D02*
X104893142Y-66957857D01*
X104893142Y-66957857D02*
X104978856Y-66915000D01*
X104978856Y-66915000D02*
X105021714Y-66872142D01*
X105321714Y-66357857D02*
X105664571Y-66357857D01*
X105450285Y-66057857D02*
X105450285Y-66829285D01*
X105450285Y-66829285D02*
X105493142Y-66915000D01*
X105493142Y-66915000D02*
X105578857Y-66957857D01*
X105578857Y-66957857D02*
X105664571Y-66957857D01*
X102793143Y-75406542D02*
X102750286Y-75449400D01*
X102750286Y-75449400D02*
X102621714Y-75492257D01*
X102621714Y-75492257D02*
X102536000Y-75492257D01*
X102536000Y-75492257D02*
X102407429Y-75449400D01*
X102407429Y-75449400D02*
X102321714Y-75363685D01*
X102321714Y-75363685D02*
X102278857Y-75277971D01*
X102278857Y-75277971D02*
X102236000Y-75106542D01*
X102236000Y-75106542D02*
X102236000Y-74977971D01*
X102236000Y-74977971D02*
X102278857Y-74806542D01*
X102278857Y-74806542D02*
X102321714Y-74720828D01*
X102321714Y-74720828D02*
X102407429Y-74635114D01*
X102407429Y-74635114D02*
X102536000Y-74592257D01*
X102536000Y-74592257D02*
X102621714Y-74592257D01*
X102621714Y-74592257D02*
X102750286Y-74635114D01*
X102750286Y-74635114D02*
X102793143Y-74677971D01*
X103650286Y-74635114D02*
X103564572Y-74592257D01*
X103564572Y-74592257D02*
X103436000Y-74592257D01*
X103436000Y-74592257D02*
X103307429Y-74635114D01*
X103307429Y-74635114D02*
X103221714Y-74720828D01*
X103221714Y-74720828D02*
X103178857Y-74806542D01*
X103178857Y-74806542D02*
X103136000Y-74977971D01*
X103136000Y-74977971D02*
X103136000Y-75106542D01*
X103136000Y-75106542D02*
X103178857Y-75277971D01*
X103178857Y-75277971D02*
X103221714Y-75363685D01*
X103221714Y-75363685D02*
X103307429Y-75449400D01*
X103307429Y-75449400D02*
X103436000Y-75492257D01*
X103436000Y-75492257D02*
X103521714Y-75492257D01*
X103521714Y-75492257D02*
X103650286Y-75449400D01*
X103650286Y-75449400D02*
X103693143Y-75406542D01*
X103693143Y-75406542D02*
X103693143Y-75106542D01*
X103693143Y-75106542D02*
X103521714Y-75106542D01*
X104078857Y-75492257D02*
X104078857Y-74592257D01*
X104078857Y-74592257D02*
X104593143Y-75492257D01*
X104593143Y-75492257D02*
X104593143Y-74592257D01*
X105021714Y-75492257D02*
X105021714Y-74592257D01*
X105021714Y-74592257D02*
X105236000Y-74592257D01*
X105236000Y-74592257D02*
X105364571Y-74635114D01*
X105364571Y-74635114D02*
X105450286Y-74720828D01*
X105450286Y-74720828D02*
X105493143Y-74806542D01*
X105493143Y-74806542D02*
X105536000Y-74977971D01*
X105536000Y-74977971D02*
X105536000Y-75106542D01*
X105536000Y-75106542D02*
X105493143Y-75277971D01*
X105493143Y-75277971D02*
X105450286Y-75363685D01*
X105450286Y-75363685D02*
X105364571Y-75449400D01*
X105364571Y-75449400D02*
X105236000Y-75492257D01*
X105236000Y-75492257D02*
X105021714Y-75492257D01*
D10*
X83780476Y-78321819D02*
X84447142Y-78321819D01*
X84447142Y-78321819D02*
X84018571Y-79321819D01*
X85304285Y-78321819D02*
X84828095Y-78321819D01*
X84828095Y-78321819D02*
X84780476Y-78798009D01*
X84780476Y-78798009D02*
X84828095Y-78750390D01*
X84828095Y-78750390D02*
X84923333Y-78702771D01*
X84923333Y-78702771D02*
X85161428Y-78702771D01*
X85161428Y-78702771D02*
X85256666Y-78750390D01*
X85256666Y-78750390D02*
X85304285Y-78798009D01*
X85304285Y-78798009D02*
X85351904Y-78893247D01*
X85351904Y-78893247D02*
X85351904Y-79131342D01*
X85351904Y-79131342D02*
X85304285Y-79226580D01*
X85304285Y-79226580D02*
X85256666Y-79274200D01*
X85256666Y-79274200D02*
X85161428Y-79321819D01*
X85161428Y-79321819D02*
X84923333Y-79321819D01*
X84923333Y-79321819D02*
X84828095Y-79274200D01*
X84828095Y-79274200D02*
X84780476Y-79226580D01*
X86351904Y-79321819D02*
X86018571Y-78845628D01*
X85780476Y-79321819D02*
X85780476Y-78321819D01*
X85780476Y-78321819D02*
X86161428Y-78321819D01*
X86161428Y-78321819D02*
X86256666Y-78369438D01*
X86256666Y-78369438D02*
X86304285Y-78417057D01*
X86304285Y-78417057D02*
X86351904Y-78512295D01*
X86351904Y-78512295D02*
X86351904Y-78655152D01*
X86351904Y-78655152D02*
X86304285Y-78750390D01*
X86304285Y-78750390D02*
X86256666Y-78798009D01*
X86256666Y-78798009D02*
X86161428Y-78845628D01*
X86161428Y-78845628D02*
X85780476Y-78845628D01*
D11*
X73711714Y-66529285D02*
X73711714Y-66957857D01*
X73411714Y-66057857D02*
X73711714Y-66529285D01*
X73711714Y-66529285D02*
X74011714Y-66057857D01*
X74997428Y-66957857D02*
X74997428Y-66057857D01*
X75425999Y-66357857D02*
X75425999Y-66957857D01*
X75425999Y-66443571D02*
X75468856Y-66400714D01*
X75468856Y-66400714D02*
X75554571Y-66357857D01*
X75554571Y-66357857D02*
X75683142Y-66357857D01*
X75683142Y-66357857D02*
X75768856Y-66400714D01*
X75768856Y-66400714D02*
X75811714Y-66486428D01*
X75811714Y-66486428D02*
X75811714Y-66957857D01*
D10*
X83780476Y-68034819D02*
X84447142Y-68034819D01*
X84447142Y-68034819D02*
X84018571Y-69034819D01*
X85304285Y-68034819D02*
X84828095Y-68034819D01*
X84828095Y-68034819D02*
X84780476Y-68511009D01*
X84780476Y-68511009D02*
X84828095Y-68463390D01*
X84828095Y-68463390D02*
X84923333Y-68415771D01*
X84923333Y-68415771D02*
X85161428Y-68415771D01*
X85161428Y-68415771D02*
X85256666Y-68463390D01*
X85256666Y-68463390D02*
X85304285Y-68511009D01*
X85304285Y-68511009D02*
X85351904Y-68606247D01*
X85351904Y-68606247D02*
X85351904Y-68844342D01*
X85351904Y-68844342D02*
X85304285Y-68939580D01*
X85304285Y-68939580D02*
X85256666Y-68987200D01*
X85256666Y-68987200D02*
X85161428Y-69034819D01*
X85161428Y-69034819D02*
X84923333Y-69034819D01*
X84923333Y-69034819D02*
X84828095Y-68987200D01*
X84828095Y-68987200D02*
X84780476Y-68939580D01*
X86351904Y-69034819D02*
X86018571Y-68558628D01*
X85780476Y-69034819D02*
X85780476Y-68034819D01*
X85780476Y-68034819D02*
X86161428Y-68034819D01*
X86161428Y-68034819D02*
X86256666Y-68082438D01*
X86256666Y-68082438D02*
X86304285Y-68130057D01*
X86304285Y-68130057D02*
X86351904Y-68225295D01*
X86351904Y-68225295D02*
X86351904Y-68368152D01*
X86351904Y-68368152D02*
X86304285Y-68463390D01*
X86304285Y-68463390D02*
X86256666Y-68511009D01*
X86256666Y-68511009D02*
X86161428Y-68558628D01*
X86161428Y-68558628D02*
X85780476Y-68558628D01*
D11*
X102514571Y-70720285D02*
X102514571Y-71148857D01*
X102214571Y-70248857D02*
X102514571Y-70720285D01*
X102514571Y-70720285D02*
X102814571Y-70248857D01*
X103586000Y-70291714D02*
X103500286Y-70248857D01*
X103500286Y-70248857D02*
X103371714Y-70248857D01*
X103371714Y-70248857D02*
X103243143Y-70291714D01*
X103243143Y-70291714D02*
X103157428Y-70377428D01*
X103157428Y-70377428D02*
X103114571Y-70463142D01*
X103114571Y-70463142D02*
X103071714Y-70634571D01*
X103071714Y-70634571D02*
X103071714Y-70763142D01*
X103071714Y-70763142D02*
X103114571Y-70934571D01*
X103114571Y-70934571D02*
X103157428Y-71020285D01*
X103157428Y-71020285D02*
X103243143Y-71106000D01*
X103243143Y-71106000D02*
X103371714Y-71148857D01*
X103371714Y-71148857D02*
X103457428Y-71148857D01*
X103457428Y-71148857D02*
X103586000Y-71106000D01*
X103586000Y-71106000D02*
X103628857Y-71063142D01*
X103628857Y-71063142D02*
X103628857Y-70763142D01*
X103628857Y-70763142D02*
X103457428Y-70763142D01*
X104014571Y-71148857D02*
X104014571Y-70248857D01*
X104014571Y-70248857D02*
X104528857Y-71148857D01*
X104528857Y-71148857D02*
X104528857Y-70248857D01*
X104957428Y-71148857D02*
X104957428Y-70248857D01*
X104957428Y-70248857D02*
X105171714Y-70248857D01*
X105171714Y-70248857D02*
X105300285Y-70291714D01*
X105300285Y-70291714D02*
X105386000Y-70377428D01*
X105386000Y-70377428D02*
X105428857Y-70463142D01*
X105428857Y-70463142D02*
X105471714Y-70634571D01*
X105471714Y-70634571D02*
X105471714Y-70763142D01*
X105471714Y-70763142D02*
X105428857Y-70934571D01*
X105428857Y-70934571D02*
X105386000Y-71020285D01*
X105386000Y-71020285D02*
X105300285Y-71106000D01*
X105300285Y-71106000D02*
X105171714Y-71148857D01*
X105171714Y-71148857D02*
X104957428Y-71148857D01*
X73990286Y-79699142D02*
X73947429Y-79742000D01*
X73947429Y-79742000D02*
X73818857Y-79784857D01*
X73818857Y-79784857D02*
X73733143Y-79784857D01*
X73733143Y-79784857D02*
X73604572Y-79742000D01*
X73604572Y-79742000D02*
X73518857Y-79656285D01*
X73518857Y-79656285D02*
X73476000Y-79570571D01*
X73476000Y-79570571D02*
X73433143Y-79399142D01*
X73433143Y-79399142D02*
X73433143Y-79270571D01*
X73433143Y-79270571D02*
X73476000Y-79099142D01*
X73476000Y-79099142D02*
X73518857Y-79013428D01*
X73518857Y-79013428D02*
X73604572Y-78927714D01*
X73604572Y-78927714D02*
X73733143Y-78884857D01*
X73733143Y-78884857D02*
X73818857Y-78884857D01*
X73818857Y-78884857D02*
X73947429Y-78927714D01*
X73947429Y-78927714D02*
X73990286Y-78970571D01*
X75061714Y-79784857D02*
X75061714Y-78884857D01*
X75490285Y-79184857D02*
X75490285Y-79784857D01*
X75490285Y-79270571D02*
X75533142Y-79227714D01*
X75533142Y-79227714D02*
X75618857Y-79184857D01*
X75618857Y-79184857D02*
X75747428Y-79184857D01*
X75747428Y-79184857D02*
X75833142Y-79227714D01*
X75833142Y-79227714D02*
X75876000Y-79313428D01*
X75876000Y-79313428D02*
X75876000Y-79784857D01*
D12*
%TO.C,C2*%
X93314225Y-77392000D02*
X93814225Y-77392000D01*
X93564225Y-77142000D02*
X93564225Y-77642000D01*
X96119000Y-76287000D02*
X96119000Y-81447000D01*
X96159000Y-76287000D02*
X96159000Y-81447000D01*
X96199000Y-76288000D02*
X96199000Y-81446000D01*
X96239000Y-76289000D02*
X96239000Y-81445000D01*
X96279000Y-76291000D02*
X96279000Y-81443000D01*
X96319000Y-76294000D02*
X96319000Y-81440000D01*
X96359000Y-76298000D02*
X96359000Y-77827000D01*
X96359000Y-79907000D02*
X96359000Y-81436000D01*
X96399000Y-76302000D02*
X96399000Y-77827000D01*
X96399000Y-79907000D02*
X96399000Y-81432000D01*
X96439000Y-76306000D02*
X96439000Y-77827000D01*
X96439000Y-79907000D02*
X96439000Y-81428000D01*
X96479000Y-76311000D02*
X96479000Y-77827000D01*
X96479000Y-79907000D02*
X96479000Y-81423000D01*
X96519000Y-76317000D02*
X96519000Y-77827000D01*
X96519000Y-79907000D02*
X96519000Y-81417000D01*
X96559000Y-76324000D02*
X96559000Y-77827000D01*
X96559000Y-79907000D02*
X96559000Y-81410000D01*
X96599000Y-76331000D02*
X96599000Y-77827000D01*
X96599000Y-79907000D02*
X96599000Y-81403000D01*
X96639000Y-76339000D02*
X96639000Y-77827000D01*
X96639000Y-79907000D02*
X96639000Y-81395000D01*
X96679000Y-76347000D02*
X96679000Y-77827000D01*
X96679000Y-79907000D02*
X96679000Y-81387000D01*
X96719000Y-76356000D02*
X96719000Y-77827000D01*
X96719000Y-79907000D02*
X96719000Y-81378000D01*
X96759000Y-76366000D02*
X96759000Y-77827000D01*
X96759000Y-79907000D02*
X96759000Y-81368000D01*
X96799000Y-76376000D02*
X96799000Y-77827000D01*
X96799000Y-79907000D02*
X96799000Y-81358000D01*
X96840000Y-76387000D02*
X96840000Y-77827000D01*
X96840000Y-79907000D02*
X96840000Y-81347000D01*
X96880000Y-76399000D02*
X96880000Y-77827000D01*
X96880000Y-79907000D02*
X96880000Y-81335000D01*
X96920000Y-76412000D02*
X96920000Y-77827000D01*
X96920000Y-79907000D02*
X96920000Y-81322000D01*
X96960000Y-76425000D02*
X96960000Y-77827000D01*
X96960000Y-79907000D02*
X96960000Y-81309000D01*
X97000000Y-76439000D02*
X97000000Y-77827000D01*
X97000000Y-79907000D02*
X97000000Y-81295000D01*
X97040000Y-76453000D02*
X97040000Y-77827000D01*
X97040000Y-79907000D02*
X97040000Y-81281000D01*
X97080000Y-76469000D02*
X97080000Y-77827000D01*
X97080000Y-79907000D02*
X97080000Y-81265000D01*
X97120000Y-76485000D02*
X97120000Y-77827000D01*
X97120000Y-79907000D02*
X97120000Y-81249000D01*
X97160000Y-76502000D02*
X97160000Y-77827000D01*
X97160000Y-79907000D02*
X97160000Y-81232000D01*
X97200000Y-76519000D02*
X97200000Y-77827000D01*
X97200000Y-79907000D02*
X97200000Y-81215000D01*
X97240000Y-76538000D02*
X97240000Y-77827000D01*
X97240000Y-79907000D02*
X97240000Y-81196000D01*
X97280000Y-76557000D02*
X97280000Y-77827000D01*
X97280000Y-79907000D02*
X97280000Y-81177000D01*
X97320000Y-76577000D02*
X97320000Y-77827000D01*
X97320000Y-79907000D02*
X97320000Y-81157000D01*
X97360000Y-76599000D02*
X97360000Y-77827000D01*
X97360000Y-79907000D02*
X97360000Y-81135000D01*
X97400000Y-76620000D02*
X97400000Y-77827000D01*
X97400000Y-79907000D02*
X97400000Y-81114000D01*
X97440000Y-76643000D02*
X97440000Y-77827000D01*
X97440000Y-79907000D02*
X97440000Y-81091000D01*
X97480000Y-76667000D02*
X97480000Y-77827000D01*
X97480000Y-79907000D02*
X97480000Y-81067000D01*
X97520000Y-76692000D02*
X97520000Y-77827000D01*
X97520000Y-79907000D02*
X97520000Y-81042000D01*
X97560000Y-76718000D02*
X97560000Y-77827000D01*
X97560000Y-79907000D02*
X97560000Y-81016000D01*
X97600000Y-76745000D02*
X97600000Y-77827000D01*
X97600000Y-79907000D02*
X97600000Y-80989000D01*
X97640000Y-76772000D02*
X97640000Y-77827000D01*
X97640000Y-79907000D02*
X97640000Y-80962000D01*
X97680000Y-76802000D02*
X97680000Y-77827000D01*
X97680000Y-79907000D02*
X97680000Y-80932000D01*
X97720000Y-76832000D02*
X97720000Y-77827000D01*
X97720000Y-79907000D02*
X97720000Y-80902000D01*
X97760000Y-76863000D02*
X97760000Y-77827000D01*
X97760000Y-79907000D02*
X97760000Y-80871000D01*
X97800000Y-76896000D02*
X97800000Y-77827000D01*
X97800000Y-79907000D02*
X97800000Y-80838000D01*
X97840000Y-76930000D02*
X97840000Y-77827000D01*
X97840000Y-79907000D02*
X97840000Y-80804000D01*
X97880000Y-76966000D02*
X97880000Y-77827000D01*
X97880000Y-79907000D02*
X97880000Y-80768000D01*
X97920000Y-77003000D02*
X97920000Y-77827000D01*
X97920000Y-79907000D02*
X97920000Y-80731000D01*
X97960000Y-77041000D02*
X97960000Y-77827000D01*
X97960000Y-79907000D02*
X97960000Y-80693000D01*
X98000000Y-77082000D02*
X98000000Y-77827000D01*
X98000000Y-79907000D02*
X98000000Y-80652000D01*
X98040000Y-77124000D02*
X98040000Y-77827000D01*
X98040000Y-79907000D02*
X98040000Y-80610000D01*
X98080000Y-77168000D02*
X98080000Y-77827000D01*
X98080000Y-79907000D02*
X98080000Y-80566000D01*
X98120000Y-77214000D02*
X98120000Y-77827000D01*
X98120000Y-79907000D02*
X98120000Y-80520000D01*
X98160000Y-77262000D02*
X98160000Y-77827000D01*
X98160000Y-79907000D02*
X98160000Y-80472000D01*
X98200000Y-77313000D02*
X98200000Y-77827000D01*
X98200000Y-79907000D02*
X98200000Y-80421000D01*
X98240000Y-77367000D02*
X98240000Y-77827000D01*
X98240000Y-79907000D02*
X98240000Y-80367000D01*
X98280000Y-77424000D02*
X98280000Y-77827000D01*
X98280000Y-79907000D02*
X98280000Y-80310000D01*
X98320000Y-77484000D02*
X98320000Y-77827000D01*
X98320000Y-79907000D02*
X98320000Y-80250000D01*
X98360000Y-77548000D02*
X98360000Y-77827000D01*
X98360000Y-79907000D02*
X98360000Y-80186000D01*
X98400000Y-77616000D02*
X98400000Y-77827000D01*
X98400000Y-79907000D02*
X98400000Y-80118000D01*
X98440000Y-77689000D02*
X98440000Y-80045000D01*
X98480000Y-77769000D02*
X98480000Y-79965000D01*
X98520000Y-77856000D02*
X98520000Y-79878000D01*
X98560000Y-77952000D02*
X98560000Y-79782000D01*
X98600000Y-78062000D02*
X98600000Y-79672000D01*
X98640000Y-78190000D02*
X98640000Y-79544000D01*
X98680000Y-78349000D02*
X98680000Y-79385000D01*
X98720000Y-78583000D02*
X98720000Y-79151000D01*
X98739000Y-78867000D02*
G75*
G03*
X98739000Y-78867000I-2620000J0D01*
G01*
%TO.C,R2*%
X81050000Y-78867000D02*
X81820000Y-78867000D01*
X81820000Y-77497000D02*
X81820000Y-80237000D01*
X81820000Y-80237000D02*
X88360000Y-80237000D01*
X88360000Y-77497000D02*
X81820000Y-77497000D01*
X88360000Y-80237000D02*
X88360000Y-77497000D01*
X89130000Y-78867000D02*
X88360000Y-78867000D01*
%TO.C,R1*%
X81050000Y-68580000D02*
X81820000Y-68580000D01*
X81820000Y-67210000D02*
X81820000Y-69950000D01*
X81820000Y-69950000D02*
X88360000Y-69950000D01*
X88360000Y-67210000D02*
X81820000Y-67210000D01*
X88360000Y-69950000D02*
X88360000Y-67210000D01*
X89130000Y-68580000D02*
X88360000Y-68580000D01*
%TO.C,C1*%
X93354225Y-67105000D02*
X93854225Y-67105000D01*
X93604225Y-66855000D02*
X93604225Y-67355000D01*
X96159000Y-66000000D02*
X96159000Y-71160000D01*
X96199000Y-66000000D02*
X96199000Y-71160000D01*
X96239000Y-66001000D02*
X96239000Y-71159000D01*
X96279000Y-66002000D02*
X96279000Y-71158000D01*
X96319000Y-66004000D02*
X96319000Y-71156000D01*
X96359000Y-66007000D02*
X96359000Y-71153000D01*
X96399000Y-66011000D02*
X96399000Y-67540000D01*
X96399000Y-69620000D02*
X96399000Y-71149000D01*
X96439000Y-66015000D02*
X96439000Y-67540000D01*
X96439000Y-69620000D02*
X96439000Y-71145000D01*
X96479000Y-66019000D02*
X96479000Y-67540000D01*
X96479000Y-69620000D02*
X96479000Y-71141000D01*
X96519000Y-66024000D02*
X96519000Y-67540000D01*
X96519000Y-69620000D02*
X96519000Y-71136000D01*
X96559000Y-66030000D02*
X96559000Y-67540000D01*
X96559000Y-69620000D02*
X96559000Y-71130000D01*
X96599000Y-66037000D02*
X96599000Y-67540000D01*
X96599000Y-69620000D02*
X96599000Y-71123000D01*
X96639000Y-66044000D02*
X96639000Y-67540000D01*
X96639000Y-69620000D02*
X96639000Y-71116000D01*
X96679000Y-66052000D02*
X96679000Y-67540000D01*
X96679000Y-69620000D02*
X96679000Y-71108000D01*
X96719000Y-66060000D02*
X96719000Y-67540000D01*
X96719000Y-69620000D02*
X96719000Y-71100000D01*
X96759000Y-66069000D02*
X96759000Y-67540000D01*
X96759000Y-69620000D02*
X96759000Y-71091000D01*
X96799000Y-66079000D02*
X96799000Y-67540000D01*
X96799000Y-69620000D02*
X96799000Y-71081000D01*
X96839000Y-66089000D02*
X96839000Y-67540000D01*
X96839000Y-69620000D02*
X96839000Y-71071000D01*
X96880000Y-66100000D02*
X96880000Y-67540000D01*
X96880000Y-69620000D02*
X96880000Y-71060000D01*
X96920000Y-66112000D02*
X96920000Y-67540000D01*
X96920000Y-69620000D02*
X96920000Y-71048000D01*
X96960000Y-66125000D02*
X96960000Y-67540000D01*
X96960000Y-69620000D02*
X96960000Y-71035000D01*
X97000000Y-66138000D02*
X97000000Y-67540000D01*
X97000000Y-69620000D02*
X97000000Y-71022000D01*
X97040000Y-66152000D02*
X97040000Y-67540000D01*
X97040000Y-69620000D02*
X97040000Y-71008000D01*
X97080000Y-66166000D02*
X97080000Y-67540000D01*
X97080000Y-69620000D02*
X97080000Y-70994000D01*
X97120000Y-66182000D02*
X97120000Y-67540000D01*
X97120000Y-69620000D02*
X97120000Y-70978000D01*
X97160000Y-66198000D02*
X97160000Y-67540000D01*
X97160000Y-69620000D02*
X97160000Y-70962000D01*
X97200000Y-66215000D02*
X97200000Y-67540000D01*
X97200000Y-69620000D02*
X97200000Y-70945000D01*
X97240000Y-66232000D02*
X97240000Y-67540000D01*
X97240000Y-69620000D02*
X97240000Y-70928000D01*
X97280000Y-66251000D02*
X97280000Y-67540000D01*
X97280000Y-69620000D02*
X97280000Y-70909000D01*
X97320000Y-66270000D02*
X97320000Y-67540000D01*
X97320000Y-69620000D02*
X97320000Y-70890000D01*
X97360000Y-66290000D02*
X97360000Y-67540000D01*
X97360000Y-69620000D02*
X97360000Y-70870000D01*
X97400000Y-66312000D02*
X97400000Y-67540000D01*
X97400000Y-69620000D02*
X97400000Y-70848000D01*
X97440000Y-66333000D02*
X97440000Y-67540000D01*
X97440000Y-69620000D02*
X97440000Y-70827000D01*
X97480000Y-66356000D02*
X97480000Y-67540000D01*
X97480000Y-69620000D02*
X97480000Y-70804000D01*
X97520000Y-66380000D02*
X97520000Y-67540000D01*
X97520000Y-69620000D02*
X97520000Y-70780000D01*
X97560000Y-66405000D02*
X97560000Y-67540000D01*
X97560000Y-69620000D02*
X97560000Y-70755000D01*
X97600000Y-66431000D02*
X97600000Y-67540000D01*
X97600000Y-69620000D02*
X97600000Y-70729000D01*
X97640000Y-66458000D02*
X97640000Y-67540000D01*
X97640000Y-69620000D02*
X97640000Y-70702000D01*
X97680000Y-66485000D02*
X97680000Y-67540000D01*
X97680000Y-69620000D02*
X97680000Y-70675000D01*
X97720000Y-66515000D02*
X97720000Y-67540000D01*
X97720000Y-69620000D02*
X97720000Y-70645000D01*
X97760000Y-66545000D02*
X97760000Y-67540000D01*
X97760000Y-69620000D02*
X97760000Y-70615000D01*
X97800000Y-66576000D02*
X97800000Y-67540000D01*
X97800000Y-69620000D02*
X97800000Y-70584000D01*
X97840000Y-66609000D02*
X97840000Y-67540000D01*
X97840000Y-69620000D02*
X97840000Y-70551000D01*
X97880000Y-66643000D02*
X97880000Y-67540000D01*
X97880000Y-69620000D02*
X97880000Y-70517000D01*
X97920000Y-66679000D02*
X97920000Y-67540000D01*
X97920000Y-69620000D02*
X97920000Y-70481000D01*
X97960000Y-66716000D02*
X97960000Y-67540000D01*
X97960000Y-69620000D02*
X97960000Y-70444000D01*
X98000000Y-66754000D02*
X98000000Y-67540000D01*
X98000000Y-69620000D02*
X98000000Y-70406000D01*
X98040000Y-66795000D02*
X98040000Y-67540000D01*
X98040000Y-69620000D02*
X98040000Y-70365000D01*
X98080000Y-66837000D02*
X98080000Y-67540000D01*
X98080000Y-69620000D02*
X98080000Y-70323000D01*
X98120000Y-66881000D02*
X98120000Y-67540000D01*
X98120000Y-69620000D02*
X98120000Y-70279000D01*
X98160000Y-66927000D02*
X98160000Y-67540000D01*
X98160000Y-69620000D02*
X98160000Y-70233000D01*
X98200000Y-66975000D02*
X98200000Y-67540000D01*
X98200000Y-69620000D02*
X98200000Y-70185000D01*
X98240000Y-67026000D02*
X98240000Y-67540000D01*
X98240000Y-69620000D02*
X98240000Y-70134000D01*
X98280000Y-67080000D02*
X98280000Y-67540000D01*
X98280000Y-69620000D02*
X98280000Y-70080000D01*
X98320000Y-67137000D02*
X98320000Y-67540000D01*
X98320000Y-69620000D02*
X98320000Y-70023000D01*
X98360000Y-67197000D02*
X98360000Y-67540000D01*
X98360000Y-69620000D02*
X98360000Y-69963000D01*
X98400000Y-67261000D02*
X98400000Y-67540000D01*
X98400000Y-69620000D02*
X98400000Y-69899000D01*
X98440000Y-67329000D02*
X98440000Y-67540000D01*
X98440000Y-69620000D02*
X98440000Y-69831000D01*
X98480000Y-67402000D02*
X98480000Y-69758000D01*
X98520000Y-67482000D02*
X98520000Y-69678000D01*
X98560000Y-67569000D02*
X98560000Y-69591000D01*
X98600000Y-67665000D02*
X98600000Y-69495000D01*
X98640000Y-67775000D02*
X98640000Y-69385000D01*
X98680000Y-67903000D02*
X98680000Y-69257000D01*
X98720000Y-68062000D02*
X98720000Y-69098000D01*
X98760000Y-68296000D02*
X98760000Y-68864000D01*
X98779000Y-68580000D02*
G75*
G03*
X98779000Y-68580000I-2620000J0D01*
G01*
%TD*%
M02*
