%TF.GenerationSoftware,KiCad,Pcbnew,7.0.9*%
%TF.CreationDate,2024-01-22T21:04:28-08:00*%
%TF.ProjectId,genesis_model2_s-video_simple_nano,67656e65-7369-4735-9f6d-6f64656c325f,rev?*%
%TF.SameCoordinates,Original*%
%TF.FileFunction,Legend,Top*%
%TF.FilePolarity,Positive*%
%FSLAX46Y46*%
G04 Gerber Fmt 4.6, Leading zero omitted, Abs format (unit mm)*
G04 Created by KiCad (PCBNEW 7.0.9) date 2024-01-22 21:04:28*
%MOMM*%
%LPD*%
G01*
G04 APERTURE LIST*
%ADD10C,0.150000*%
%ADD11C,0.100000*%
%ADD12C,0.120000*%
G04 APERTURE END LIST*
D10*
X111039160Y-76789533D02*
X111648684Y-76789533D01*
X111343922Y-77094295D02*
X111343922Y-76484771D01*
X110989160Y-75389533D02*
X111598684Y-75389533D01*
X111293922Y-75694295D02*
X111293922Y-75084771D01*
D11*
X117632285Y-72325857D02*
X117632285Y-72611571D01*
X117432285Y-72011571D02*
X117632285Y-72325857D01*
X117632285Y-72325857D02*
X117832285Y-72011571D01*
X118603714Y-72011571D02*
X118718000Y-72011571D01*
X118718000Y-72011571D02*
X118775143Y-72040142D01*
X118775143Y-72040142D02*
X118832286Y-72097285D01*
X118832286Y-72097285D02*
X118860857Y-72211571D01*
X118860857Y-72211571D02*
X118860857Y-72411571D01*
X118860857Y-72411571D02*
X118832286Y-72525857D01*
X118832286Y-72525857D02*
X118775143Y-72583000D01*
X118775143Y-72583000D02*
X118718000Y-72611571D01*
X118718000Y-72611571D02*
X118603714Y-72611571D01*
X118603714Y-72611571D02*
X118546572Y-72583000D01*
X118546572Y-72583000D02*
X118489429Y-72525857D01*
X118489429Y-72525857D02*
X118460857Y-72411571D01*
X118460857Y-72411571D02*
X118460857Y-72211571D01*
X118460857Y-72211571D02*
X118489429Y-72097285D01*
X118489429Y-72097285D02*
X118546572Y-72040142D01*
X118546572Y-72040142D02*
X118603714Y-72011571D01*
X119375143Y-72211571D02*
X119375143Y-72611571D01*
X119118000Y-72211571D02*
X119118000Y-72525857D01*
X119118000Y-72525857D02*
X119146571Y-72583000D01*
X119146571Y-72583000D02*
X119203714Y-72611571D01*
X119203714Y-72611571D02*
X119289428Y-72611571D01*
X119289428Y-72611571D02*
X119346571Y-72583000D01*
X119346571Y-72583000D02*
X119375143Y-72554428D01*
X119575142Y-72211571D02*
X119803714Y-72211571D01*
X119660857Y-72011571D02*
X119660857Y-72525857D01*
X119660857Y-72525857D02*
X119689428Y-72583000D01*
X119689428Y-72583000D02*
X119746571Y-72611571D01*
X119746571Y-72611571D02*
X119803714Y-72611571D01*
X105206857Y-78193228D02*
X105178285Y-78221800D01*
X105178285Y-78221800D02*
X105092571Y-78250371D01*
X105092571Y-78250371D02*
X105035428Y-78250371D01*
X105035428Y-78250371D02*
X104949714Y-78221800D01*
X104949714Y-78221800D02*
X104892571Y-78164657D01*
X104892571Y-78164657D02*
X104864000Y-78107514D01*
X104864000Y-78107514D02*
X104835428Y-77993228D01*
X104835428Y-77993228D02*
X104835428Y-77907514D01*
X104835428Y-77907514D02*
X104864000Y-77793228D01*
X104864000Y-77793228D02*
X104892571Y-77736085D01*
X104892571Y-77736085D02*
X104949714Y-77678942D01*
X104949714Y-77678942D02*
X105035428Y-77650371D01*
X105035428Y-77650371D02*
X105092571Y-77650371D01*
X105092571Y-77650371D02*
X105178285Y-77678942D01*
X105178285Y-77678942D02*
X105206857Y-77707514D01*
X105921143Y-78250371D02*
X105921143Y-77650371D01*
X106206857Y-77850371D02*
X106206857Y-78250371D01*
X106206857Y-77907514D02*
X106235428Y-77878942D01*
X106235428Y-77878942D02*
X106292571Y-77850371D01*
X106292571Y-77850371D02*
X106378285Y-77850371D01*
X106378285Y-77850371D02*
X106435428Y-77878942D01*
X106435428Y-77878942D02*
X106464000Y-77936085D01*
X106464000Y-77936085D02*
X106464000Y-78250371D01*
X114066666Y-75828490D02*
X114042857Y-75852300D01*
X114042857Y-75852300D02*
X113971428Y-75876109D01*
X113971428Y-75876109D02*
X113923809Y-75876109D01*
X113923809Y-75876109D02*
X113852381Y-75852300D01*
X113852381Y-75852300D02*
X113804762Y-75804680D01*
X113804762Y-75804680D02*
X113780952Y-75757061D01*
X113780952Y-75757061D02*
X113757143Y-75661823D01*
X113757143Y-75661823D02*
X113757143Y-75590395D01*
X113757143Y-75590395D02*
X113780952Y-75495157D01*
X113780952Y-75495157D02*
X113804762Y-75447538D01*
X113804762Y-75447538D02*
X113852381Y-75399919D01*
X113852381Y-75399919D02*
X113923809Y-75376109D01*
X113923809Y-75376109D02*
X113971428Y-75376109D01*
X113971428Y-75376109D02*
X114042857Y-75399919D01*
X114042857Y-75399919D02*
X114066666Y-75423728D01*
X114542857Y-75876109D02*
X114257143Y-75876109D01*
X114400000Y-75876109D02*
X114400000Y-75376109D01*
X114400000Y-75376109D02*
X114352381Y-75447538D01*
X114352381Y-75447538D02*
X114304762Y-75495157D01*
X114304762Y-75495157D02*
X114257143Y-75518966D01*
X105021142Y-72325857D02*
X105021142Y-72611571D01*
X104821142Y-72011571D02*
X105021142Y-72325857D01*
X105021142Y-72325857D02*
X105221142Y-72011571D01*
X105878286Y-72611571D02*
X105878286Y-72011571D01*
X106164000Y-72211571D02*
X106164000Y-72611571D01*
X106164000Y-72268714D02*
X106192571Y-72240142D01*
X106192571Y-72240142D02*
X106249714Y-72211571D01*
X106249714Y-72211571D02*
X106335428Y-72211571D01*
X106335428Y-72211571D02*
X106392571Y-72240142D01*
X106392571Y-72240142D02*
X106421143Y-72297285D01*
X106421143Y-72297285D02*
X106421143Y-72611571D01*
X105206857Y-74834142D02*
X105149715Y-74805571D01*
X105149715Y-74805571D02*
X105064000Y-74805571D01*
X105064000Y-74805571D02*
X104978286Y-74834142D01*
X104978286Y-74834142D02*
X104921143Y-74891285D01*
X104921143Y-74891285D02*
X104892572Y-74948428D01*
X104892572Y-74948428D02*
X104864000Y-75062714D01*
X104864000Y-75062714D02*
X104864000Y-75148428D01*
X104864000Y-75148428D02*
X104892572Y-75262714D01*
X104892572Y-75262714D02*
X104921143Y-75319857D01*
X104921143Y-75319857D02*
X104978286Y-75377000D01*
X104978286Y-75377000D02*
X105064000Y-75405571D01*
X105064000Y-75405571D02*
X105121143Y-75405571D01*
X105121143Y-75405571D02*
X105206857Y-75377000D01*
X105206857Y-75377000D02*
X105235429Y-75348428D01*
X105235429Y-75348428D02*
X105235429Y-75148428D01*
X105235429Y-75148428D02*
X105121143Y-75148428D01*
X105492572Y-75405571D02*
X105492572Y-74805571D01*
X105492572Y-74805571D02*
X105835429Y-75405571D01*
X105835429Y-75405571D02*
X105835429Y-74805571D01*
X106121143Y-75405571D02*
X106121143Y-74805571D01*
X106121143Y-74805571D02*
X106264000Y-74805571D01*
X106264000Y-74805571D02*
X106349714Y-74834142D01*
X106349714Y-74834142D02*
X106406857Y-74891285D01*
X106406857Y-74891285D02*
X106435428Y-74948428D01*
X106435428Y-74948428D02*
X106464000Y-75062714D01*
X106464000Y-75062714D02*
X106464000Y-75148428D01*
X106464000Y-75148428D02*
X106435428Y-75262714D01*
X106435428Y-75262714D02*
X106406857Y-75319857D01*
X106406857Y-75319857D02*
X106349714Y-75377000D01*
X106349714Y-75377000D02*
X106264000Y-75405571D01*
X106264000Y-75405571D02*
X106121143Y-75405571D01*
X109289066Y-77696109D02*
X109122400Y-77458014D01*
X109003352Y-77696109D02*
X109003352Y-77196109D01*
X109003352Y-77196109D02*
X109193828Y-77196109D01*
X109193828Y-77196109D02*
X109241447Y-77219919D01*
X109241447Y-77219919D02*
X109265257Y-77243728D01*
X109265257Y-77243728D02*
X109289066Y-77291347D01*
X109289066Y-77291347D02*
X109289066Y-77362776D01*
X109289066Y-77362776D02*
X109265257Y-77410395D01*
X109265257Y-77410395D02*
X109241447Y-77434204D01*
X109241447Y-77434204D02*
X109193828Y-77458014D01*
X109193828Y-77458014D02*
X109003352Y-77458014D01*
X109479543Y-77243728D02*
X109503352Y-77219919D01*
X109503352Y-77219919D02*
X109550971Y-77196109D01*
X109550971Y-77196109D02*
X109670019Y-77196109D01*
X109670019Y-77196109D02*
X109717638Y-77219919D01*
X109717638Y-77219919D02*
X109741447Y-77243728D01*
X109741447Y-77243728D02*
X109765257Y-77291347D01*
X109765257Y-77291347D02*
X109765257Y-77338966D01*
X109765257Y-77338966D02*
X109741447Y-77410395D01*
X109741447Y-77410395D02*
X109455733Y-77696109D01*
X109455733Y-77696109D02*
X109765257Y-77696109D01*
X109125378Y-79329285D02*
X109125378Y-79029285D01*
X109125378Y-79029285D02*
X109575378Y-79222142D01*
X109125378Y-78643571D02*
X109125378Y-78857857D01*
X109125378Y-78857857D02*
X109339664Y-78879285D01*
X109339664Y-78879285D02*
X109318235Y-78857857D01*
X109318235Y-78857857D02*
X109296807Y-78815000D01*
X109296807Y-78815000D02*
X109296807Y-78707857D01*
X109296807Y-78707857D02*
X109318235Y-78665000D01*
X109318235Y-78665000D02*
X109339664Y-78643571D01*
X109339664Y-78643571D02*
X109382521Y-78622142D01*
X109382521Y-78622142D02*
X109489664Y-78622142D01*
X109489664Y-78622142D02*
X109532521Y-78643571D01*
X109532521Y-78643571D02*
X109553950Y-78665000D01*
X109553950Y-78665000D02*
X109575378Y-78707857D01*
X109575378Y-78707857D02*
X109575378Y-78815000D01*
X109575378Y-78815000D02*
X109553950Y-78857857D01*
X109553950Y-78857857D02*
X109532521Y-78879285D01*
X109575378Y-78172143D02*
X109361092Y-78322143D01*
X109575378Y-78429286D02*
X109125378Y-78429286D01*
X109125378Y-78429286D02*
X109125378Y-78257857D01*
X109125378Y-78257857D02*
X109146807Y-78215000D01*
X109146807Y-78215000D02*
X109168235Y-78193571D01*
X109168235Y-78193571D02*
X109211092Y-78172143D01*
X109211092Y-78172143D02*
X109275378Y-78172143D01*
X109275378Y-78172143D02*
X109318235Y-78193571D01*
X109318235Y-78193571D02*
X109339664Y-78215000D01*
X109339664Y-78215000D02*
X109361092Y-78257857D01*
X109361092Y-78257857D02*
X109361092Y-78429286D01*
X114063666Y-76759490D02*
X114039857Y-76783300D01*
X114039857Y-76783300D02*
X113968428Y-76807109D01*
X113968428Y-76807109D02*
X113920809Y-76807109D01*
X113920809Y-76807109D02*
X113849381Y-76783300D01*
X113849381Y-76783300D02*
X113801762Y-76735680D01*
X113801762Y-76735680D02*
X113777952Y-76688061D01*
X113777952Y-76688061D02*
X113754143Y-76592823D01*
X113754143Y-76592823D02*
X113754143Y-76521395D01*
X113754143Y-76521395D02*
X113777952Y-76426157D01*
X113777952Y-76426157D02*
X113801762Y-76378538D01*
X113801762Y-76378538D02*
X113849381Y-76330919D01*
X113849381Y-76330919D02*
X113920809Y-76307109D01*
X113920809Y-76307109D02*
X113968428Y-76307109D01*
X113968428Y-76307109D02*
X114039857Y-76330919D01*
X114039857Y-76330919D02*
X114063666Y-76354728D01*
X114254143Y-76354728D02*
X114277952Y-76330919D01*
X114277952Y-76330919D02*
X114325571Y-76307109D01*
X114325571Y-76307109D02*
X114444619Y-76307109D01*
X114444619Y-76307109D02*
X114492238Y-76330919D01*
X114492238Y-76330919D02*
X114516047Y-76354728D01*
X114516047Y-76354728D02*
X114539857Y-76402347D01*
X114539857Y-76402347D02*
X114539857Y-76449966D01*
X114539857Y-76449966D02*
X114516047Y-76521395D01*
X114516047Y-76521395D02*
X114230333Y-76807109D01*
X114230333Y-76807109D02*
X114539857Y-76807109D01*
X117818000Y-78244028D02*
X117789428Y-78272600D01*
X117789428Y-78272600D02*
X117703714Y-78301171D01*
X117703714Y-78301171D02*
X117646571Y-78301171D01*
X117646571Y-78301171D02*
X117560857Y-78272600D01*
X117560857Y-78272600D02*
X117503714Y-78215457D01*
X117503714Y-78215457D02*
X117475143Y-78158314D01*
X117475143Y-78158314D02*
X117446571Y-78044028D01*
X117446571Y-78044028D02*
X117446571Y-77958314D01*
X117446571Y-77958314D02*
X117475143Y-77844028D01*
X117475143Y-77844028D02*
X117503714Y-77786885D01*
X117503714Y-77786885D02*
X117560857Y-77729742D01*
X117560857Y-77729742D02*
X117646571Y-77701171D01*
X117646571Y-77701171D02*
X117703714Y-77701171D01*
X117703714Y-77701171D02*
X117789428Y-77729742D01*
X117789428Y-77729742D02*
X117818000Y-77758314D01*
X118646571Y-77701171D02*
X118760857Y-77701171D01*
X118760857Y-77701171D02*
X118818000Y-77729742D01*
X118818000Y-77729742D02*
X118875143Y-77786885D01*
X118875143Y-77786885D02*
X118903714Y-77901171D01*
X118903714Y-77901171D02*
X118903714Y-78101171D01*
X118903714Y-78101171D02*
X118875143Y-78215457D01*
X118875143Y-78215457D02*
X118818000Y-78272600D01*
X118818000Y-78272600D02*
X118760857Y-78301171D01*
X118760857Y-78301171D02*
X118646571Y-78301171D01*
X118646571Y-78301171D02*
X118589429Y-78272600D01*
X118589429Y-78272600D02*
X118532286Y-78215457D01*
X118532286Y-78215457D02*
X118503714Y-78101171D01*
X118503714Y-78101171D02*
X118503714Y-77901171D01*
X118503714Y-77901171D02*
X118532286Y-77786885D01*
X118532286Y-77786885D02*
X118589429Y-77729742D01*
X118589429Y-77729742D02*
X118646571Y-77701171D01*
X119418000Y-77901171D02*
X119418000Y-78301171D01*
X119160857Y-77901171D02*
X119160857Y-78215457D01*
X119160857Y-78215457D02*
X119189428Y-78272600D01*
X119189428Y-78272600D02*
X119246571Y-78301171D01*
X119246571Y-78301171D02*
X119332285Y-78301171D01*
X119332285Y-78301171D02*
X119389428Y-78272600D01*
X119389428Y-78272600D02*
X119418000Y-78244028D01*
X119617999Y-77901171D02*
X119846571Y-77901171D01*
X119703714Y-77701171D02*
X119703714Y-78215457D01*
X119703714Y-78215457D02*
X119732285Y-78272600D01*
X119732285Y-78272600D02*
X119789428Y-78301171D01*
X119789428Y-78301171D02*
X119846571Y-78301171D01*
X118160857Y-74834142D02*
X118103715Y-74805571D01*
X118103715Y-74805571D02*
X118018000Y-74805571D01*
X118018000Y-74805571D02*
X117932286Y-74834142D01*
X117932286Y-74834142D02*
X117875143Y-74891285D01*
X117875143Y-74891285D02*
X117846572Y-74948428D01*
X117846572Y-74948428D02*
X117818000Y-75062714D01*
X117818000Y-75062714D02*
X117818000Y-75148428D01*
X117818000Y-75148428D02*
X117846572Y-75262714D01*
X117846572Y-75262714D02*
X117875143Y-75319857D01*
X117875143Y-75319857D02*
X117932286Y-75377000D01*
X117932286Y-75377000D02*
X118018000Y-75405571D01*
X118018000Y-75405571D02*
X118075143Y-75405571D01*
X118075143Y-75405571D02*
X118160857Y-75377000D01*
X118160857Y-75377000D02*
X118189429Y-75348428D01*
X118189429Y-75348428D02*
X118189429Y-75148428D01*
X118189429Y-75148428D02*
X118075143Y-75148428D01*
X118446572Y-75405571D02*
X118446572Y-74805571D01*
X118446572Y-74805571D02*
X118789429Y-75405571D01*
X118789429Y-75405571D02*
X118789429Y-74805571D01*
X119075143Y-75405571D02*
X119075143Y-74805571D01*
X119075143Y-74805571D02*
X119218000Y-74805571D01*
X119218000Y-74805571D02*
X119303714Y-74834142D01*
X119303714Y-74834142D02*
X119360857Y-74891285D01*
X119360857Y-74891285D02*
X119389428Y-74948428D01*
X119389428Y-74948428D02*
X119418000Y-75062714D01*
X119418000Y-75062714D02*
X119418000Y-75148428D01*
X119418000Y-75148428D02*
X119389428Y-75262714D01*
X119389428Y-75262714D02*
X119360857Y-75319857D01*
X119360857Y-75319857D02*
X119303714Y-75377000D01*
X119303714Y-75377000D02*
X119218000Y-75405571D01*
X119218000Y-75405571D02*
X119075143Y-75405571D01*
X109289066Y-73124109D02*
X109122400Y-72886014D01*
X109003352Y-73124109D02*
X109003352Y-72624109D01*
X109003352Y-72624109D02*
X109193828Y-72624109D01*
X109193828Y-72624109D02*
X109241447Y-72647919D01*
X109241447Y-72647919D02*
X109265257Y-72671728D01*
X109265257Y-72671728D02*
X109289066Y-72719347D01*
X109289066Y-72719347D02*
X109289066Y-72790776D01*
X109289066Y-72790776D02*
X109265257Y-72838395D01*
X109265257Y-72838395D02*
X109241447Y-72862204D01*
X109241447Y-72862204D02*
X109193828Y-72886014D01*
X109193828Y-72886014D02*
X109003352Y-72886014D01*
X109765257Y-73124109D02*
X109479543Y-73124109D01*
X109622400Y-73124109D02*
X109622400Y-72624109D01*
X109622400Y-72624109D02*
X109574781Y-72695538D01*
X109574781Y-72695538D02*
X109527162Y-72743157D01*
X109527162Y-72743157D02*
X109479543Y-72766966D01*
X109125378Y-74757285D02*
X109125378Y-74457285D01*
X109125378Y-74457285D02*
X109575378Y-74650142D01*
X109125378Y-74071571D02*
X109125378Y-74285857D01*
X109125378Y-74285857D02*
X109339664Y-74307285D01*
X109339664Y-74307285D02*
X109318235Y-74285857D01*
X109318235Y-74285857D02*
X109296807Y-74243000D01*
X109296807Y-74243000D02*
X109296807Y-74135857D01*
X109296807Y-74135857D02*
X109318235Y-74093000D01*
X109318235Y-74093000D02*
X109339664Y-74071571D01*
X109339664Y-74071571D02*
X109382521Y-74050142D01*
X109382521Y-74050142D02*
X109489664Y-74050142D01*
X109489664Y-74050142D02*
X109532521Y-74071571D01*
X109532521Y-74071571D02*
X109553950Y-74093000D01*
X109553950Y-74093000D02*
X109575378Y-74135857D01*
X109575378Y-74135857D02*
X109575378Y-74243000D01*
X109575378Y-74243000D02*
X109553950Y-74285857D01*
X109553950Y-74285857D02*
X109532521Y-74307285D01*
X109575378Y-73600143D02*
X109361092Y-73750143D01*
X109575378Y-73857286D02*
X109125378Y-73857286D01*
X109125378Y-73857286D02*
X109125378Y-73685857D01*
X109125378Y-73685857D02*
X109146807Y-73643000D01*
X109146807Y-73643000D02*
X109168235Y-73621571D01*
X109168235Y-73621571D02*
X109211092Y-73600143D01*
X109211092Y-73600143D02*
X109275378Y-73600143D01*
X109275378Y-73600143D02*
X109318235Y-73621571D01*
X109318235Y-73621571D02*
X109339664Y-73643000D01*
X109339664Y-73643000D02*
X109361092Y-73685857D01*
X109361092Y-73685857D02*
X109361092Y-73857286D01*
D12*
%TO.C,C1*%
X111461800Y-72190000D02*
X111461800Y-75210000D01*
X111461800Y-75210000D02*
X115846800Y-75210000D01*
X115846800Y-72190000D02*
X111461800Y-72190000D01*
%TO.C,R2*%
X109145336Y-78005000D02*
X109599464Y-78005000D01*
X109145336Y-79475000D02*
X109599464Y-79475000D01*
%TO.C,C2*%
X111512000Y-76976000D02*
X111512000Y-79996000D01*
X111512000Y-79996000D02*
X115897000Y-79996000D01*
X115897000Y-76976000D02*
X111512000Y-76976000D01*
%TO.C,R1*%
X109145336Y-73433000D02*
X109599464Y-73433000D01*
X109145336Y-74903000D02*
X109599464Y-74903000D01*
%TD*%
M02*
