%TF.GenerationSoftware,KiCad,Pcbnew,7.0.9*%
%TF.CreationDate,2024-01-22T21:04:28-08:00*%
%TF.ProjectId,genesis_model2_s-video_simple_nano,67656e65-7369-4735-9f6d-6f64656c325f,rev?*%
%TF.SameCoordinates,Original*%
%TF.FileFunction,Copper,L1,Top*%
%TF.FilePolarity,Positive*%
%FSLAX46Y46*%
G04 Gerber Fmt 4.6, Leading zero omitted, Abs format (unit mm)*
G04 Created by KiCad (PCBNEW 7.0.9) date 2024-01-22 21:04:28*
%MOMM*%
%LPD*%
G01*
G04 APERTURE LIST*
G04 Aperture macros list*
%AMRoundRect*
0 Rectangle with rounded corners*
0 $1 Rounding radius*
0 $2 $3 $4 $5 $6 $7 $8 $9 X,Y pos of 4 corners*
0 Add a 4 corners polygon primitive as box body*
4,1,4,$2,$3,$4,$5,$6,$7,$8,$9,$2,$3,0*
0 Add four circle primitives for the rounded corners*
1,1,$1+$1,$2,$3*
1,1,$1+$1,$4,$5*
1,1,$1+$1,$6,$7*
1,1,$1+$1,$8,$9*
0 Add four rect primitives between the rounded corners*
20,1,$1+$1,$2,$3,$4,$5,0*
20,1,$1+$1,$4,$5,$6,$7,0*
20,1,$1+$1,$6,$7,$8,$9,0*
20,1,$1+$1,$8,$9,$2,$3,0*%
G04 Aperture macros list end*
%TA.AperFunction,SMDPad,CuDef*%
%ADD10R,3.000000X1.500000*%
%TD*%
%TA.AperFunction,SMDPad,CuDef*%
%ADD11RoundRect,0.250001X-0.499999X-0.924999X0.499999X-0.924999X0.499999X0.924999X-0.499999X0.924999X0*%
%TD*%
%TA.AperFunction,SMDPad,CuDef*%
%ADD12RoundRect,0.250000X-0.350000X-0.450000X0.350000X-0.450000X0.350000X0.450000X-0.350000X0.450000X0*%
%TD*%
%TA.AperFunction,ViaPad*%
%ADD13C,0.800000*%
%TD*%
%TA.AperFunction,Conductor*%
%ADD14C,0.500000*%
%TD*%
G04 APERTURE END LIST*
D10*
%TO.P,J3,1,Pin_1*%
%TO.N,Net-(J3-Pin_1)*%
X118618000Y-73660000D03*
%TD*%
%TO.P,J2,1,Pin_1*%
%TO.N,Net-(J2-Pin_1)*%
X105664000Y-79298800D03*
%TD*%
D11*
%TO.P,C1,1*%
%TO.N,Net-(C1-Pad1)*%
X112471800Y-73700000D03*
%TO.P,C1,2*%
%TO.N,Net-(J3-Pin_1)*%
X115721800Y-73700000D03*
%TD*%
D10*
%TO.P,J1,1,Pin_1*%
%TO.N,Net-(J1-Pin_1)*%
X105664000Y-73660000D03*
%TD*%
%TO.P,J5,1,Pin_1*%
%TO.N,GND*%
X105664000Y-76454000D03*
%TD*%
D12*
%TO.P,R2,1*%
%TO.N,Net-(J2-Pin_1)*%
X108372400Y-78740000D03*
%TO.P,R2,2*%
%TO.N,Net-(C2-Pad1)*%
X110372400Y-78740000D03*
%TD*%
D11*
%TO.P,C2,1*%
%TO.N,Net-(C2-Pad1)*%
X112522000Y-78486000D03*
%TO.P,C2,2*%
%TO.N,Net-(J4-Pin_1)*%
X115772000Y-78486000D03*
%TD*%
D10*
%TO.P,J4,1,Pin_1*%
%TO.N,Net-(J4-Pin_1)*%
X118618000Y-79298800D03*
%TD*%
%TO.P,J6,1,Pin_1*%
%TO.N,GND*%
X118618000Y-76454000D03*
%TD*%
D12*
%TO.P,R1,1*%
%TO.N,Net-(J1-Pin_1)*%
X108372400Y-74168000D03*
%TO.P,R1,2*%
%TO.N,Net-(C1-Pad1)*%
X110372400Y-74168000D03*
%TD*%
D13*
%TO.N,GND*%
X109350000Y-76400000D03*
X114096800Y-74117200D03*
X114147600Y-78740000D03*
%TD*%
D14*
%TO.N,Net-(J3-Pin_1)*%
X118578000Y-73700000D02*
X118618000Y-73660000D01*
X115721800Y-73700000D02*
X118578000Y-73700000D01*
%TO.N,Net-(C1-Pad1)*%
X112003800Y-74168000D02*
X112471800Y-73700000D01*
X110372400Y-74168000D02*
X112003800Y-74168000D01*
%TO.N,Net-(C2-Pad1)*%
X110372400Y-78740000D02*
X112522000Y-78740000D01*
%TO.N,Net-(J4-Pin_1)*%
X118110000Y-78740000D02*
X118618000Y-79248000D01*
X115772000Y-78740000D02*
X118110000Y-78740000D01*
%TO.N,Net-(J1-Pin_1)*%
X105664000Y-73660000D02*
X107864400Y-73660000D01*
X107864400Y-73660000D02*
X108372400Y-74168000D01*
%TO.N,Net-(J2-Pin_1)*%
X107864400Y-79248000D02*
X108372400Y-78740000D01*
X105664000Y-79248000D02*
X107864400Y-79248000D01*
%TD*%
%TA.AperFunction,Conductor*%
%TO.N,GND*%
G36*
X119983439Y-72003285D02*
G01*
X120029194Y-72056089D01*
X120040400Y-72107600D01*
X120040400Y-72535500D01*
X120020715Y-72602539D01*
X119967911Y-72648294D01*
X119916400Y-72659500D01*
X117093323Y-72659500D01*
X117020264Y-72674032D01*
X117020260Y-72674033D01*
X116937396Y-72729401D01*
X116928763Y-72738035D01*
X116926269Y-72735541D01*
X116888541Y-72767056D01*
X116819214Y-72775745D01*
X116756194Y-72745574D01*
X116719491Y-72686121D01*
X116716269Y-72669118D01*
X116715891Y-72667518D01*
X116665597Y-72532672D01*
X116665596Y-72532671D01*
X116665596Y-72532670D01*
X116579346Y-72417454D01*
X116464130Y-72331204D01*
X116464128Y-72331203D01*
X116464127Y-72331202D01*
X116329281Y-72280908D01*
X116329282Y-72280908D01*
X116269682Y-72274501D01*
X116269680Y-72274500D01*
X116269672Y-72274500D01*
X115173928Y-72274500D01*
X115173920Y-72274500D01*
X115173917Y-72274501D01*
X115114318Y-72280908D01*
X114979472Y-72331202D01*
X114979470Y-72331204D01*
X114864254Y-72417454D01*
X114778004Y-72532670D01*
X114778002Y-72532672D01*
X114727708Y-72667518D01*
X114721301Y-72727117D01*
X114721300Y-72727136D01*
X114721300Y-74672863D01*
X114721301Y-74672882D01*
X114727708Y-74732481D01*
X114778002Y-74867327D01*
X114778003Y-74867328D01*
X114778004Y-74867330D01*
X114864254Y-74982546D01*
X114979470Y-75068796D01*
X114979471Y-75068796D01*
X114979472Y-75068797D01*
X115114318Y-75119091D01*
X115114317Y-75119091D01*
X115121245Y-75119835D01*
X115173928Y-75125500D01*
X115173937Y-75125500D01*
X116269663Y-75125500D01*
X116269672Y-75125500D01*
X116329282Y-75119091D01*
X116464130Y-75068796D01*
X116579346Y-74982546D01*
X116665596Y-74867330D01*
X116715891Y-74732482D01*
X116722300Y-74672872D01*
X116722300Y-74672844D01*
X116722478Y-74669547D01*
X116723839Y-74669620D01*
X116741985Y-74607825D01*
X116794789Y-74562070D01*
X116863947Y-74552126D01*
X116927503Y-74581151D01*
X116933981Y-74587183D01*
X116937396Y-74590598D01*
X116937397Y-74590599D01*
X116937399Y-74590601D01*
X117020259Y-74645965D01*
X117020260Y-74645966D01*
X117020264Y-74645967D01*
X117093321Y-74660499D01*
X117093324Y-74660500D01*
X117093326Y-74660500D01*
X119916400Y-74660500D01*
X119983439Y-74680185D01*
X120029194Y-74732989D01*
X120040400Y-74784500D01*
X120040400Y-75080000D01*
X120020715Y-75147039D01*
X119967911Y-75192794D01*
X119916400Y-75204000D01*
X118868000Y-75204000D01*
X118868000Y-77704000D01*
X119916400Y-77704000D01*
X119983439Y-77723685D01*
X120029194Y-77776489D01*
X120040400Y-77828000D01*
X120040400Y-78174300D01*
X120020715Y-78241339D01*
X119967911Y-78287094D01*
X119916400Y-78298300D01*
X118380324Y-78298300D01*
X118336990Y-78290482D01*
X118303716Y-78278071D01*
X118299642Y-78276383D01*
X118252457Y-78254835D01*
X118252455Y-78254834D01*
X118247682Y-78254148D01*
X118222000Y-78247593D01*
X118217485Y-78245909D01*
X118165740Y-78242207D01*
X118161343Y-78241734D01*
X118145799Y-78239500D01*
X118130094Y-78239500D01*
X118125671Y-78239342D01*
X118108083Y-78238084D01*
X118073929Y-78235641D01*
X118073925Y-78235641D01*
X118069215Y-78236666D01*
X118042857Y-78239500D01*
X116896500Y-78239500D01*
X116829461Y-78219815D01*
X116783706Y-78167011D01*
X116772500Y-78115500D01*
X116772500Y-77787376D01*
X116792185Y-77720337D01*
X116844989Y-77674582D01*
X116914147Y-77664638D01*
X116939834Y-77671194D01*
X117010623Y-77697597D01*
X117010627Y-77697598D01*
X117070155Y-77703999D01*
X117070172Y-77704000D01*
X118368000Y-77704000D01*
X118368000Y-76704000D01*
X116618000Y-76704000D01*
X116618000Y-76977276D01*
X116598315Y-77044315D01*
X116545511Y-77090070D01*
X116476353Y-77100014D01*
X116450668Y-77093458D01*
X116379484Y-77066909D01*
X116379482Y-77066908D01*
X116319882Y-77060501D01*
X116319880Y-77060500D01*
X116319872Y-77060500D01*
X115224128Y-77060500D01*
X115224120Y-77060500D01*
X115224117Y-77060501D01*
X115164518Y-77066908D01*
X115029672Y-77117202D01*
X115029670Y-77117204D01*
X114914454Y-77203454D01*
X114828204Y-77318670D01*
X114828202Y-77318672D01*
X114777908Y-77453518D01*
X114771501Y-77513117D01*
X114771500Y-77513136D01*
X114771500Y-79458863D01*
X114771501Y-79458882D01*
X114777908Y-79518481D01*
X114828202Y-79653327D01*
X114828203Y-79653329D01*
X114828204Y-79653330D01*
X114908723Y-79760891D01*
X114933140Y-79826353D01*
X114918289Y-79894626D01*
X114868884Y-79944032D01*
X114809456Y-79959200D01*
X113484544Y-79959200D01*
X113417505Y-79939515D01*
X113371750Y-79886711D01*
X113361806Y-79817553D01*
X113385275Y-79760891D01*
X113465796Y-79653330D01*
X113516091Y-79518482D01*
X113522500Y-79458872D01*
X113522500Y-77513128D01*
X113516091Y-77453518D01*
X113465796Y-77318670D01*
X113379546Y-77203454D01*
X113264330Y-77117204D01*
X113264328Y-77117203D01*
X113264327Y-77117202D01*
X113129481Y-77066908D01*
X113129482Y-77066908D01*
X113069882Y-77060501D01*
X113069880Y-77060500D01*
X113069872Y-77060500D01*
X111974128Y-77060500D01*
X111974120Y-77060500D01*
X111974117Y-77060501D01*
X111914518Y-77066908D01*
X111779672Y-77117202D01*
X111779670Y-77117204D01*
X111664454Y-77203454D01*
X111578204Y-77318670D01*
X111578202Y-77318672D01*
X111527908Y-77453518D01*
X111521501Y-77513117D01*
X111521500Y-77513136D01*
X111521500Y-78115500D01*
X111501815Y-78182539D01*
X111449011Y-78228294D01*
X111397500Y-78239500D01*
X111323840Y-78239500D01*
X111256801Y-78219815D01*
X111211046Y-78167011D01*
X111207658Y-78158833D01*
X111166197Y-78047671D01*
X111166193Y-78047664D01*
X111079947Y-77932455D01*
X111079944Y-77932452D01*
X110964735Y-77846206D01*
X110964728Y-77846202D01*
X110829882Y-77795908D01*
X110829883Y-77795908D01*
X110770283Y-77789501D01*
X110770281Y-77789500D01*
X110770273Y-77789500D01*
X110770264Y-77789500D01*
X109974529Y-77789500D01*
X109974523Y-77789501D01*
X109914916Y-77795908D01*
X109780071Y-77846202D01*
X109780064Y-77846206D01*
X109664855Y-77932452D01*
X109664852Y-77932455D01*
X109578606Y-78047664D01*
X109578602Y-78047671D01*
X109528308Y-78182517D01*
X109523654Y-78225811D01*
X109521901Y-78242123D01*
X109521900Y-78242135D01*
X109521900Y-79237870D01*
X109521901Y-79237876D01*
X109528308Y-79297483D01*
X109578602Y-79432328D01*
X109578606Y-79432335D01*
X109664852Y-79547544D01*
X109664855Y-79547547D01*
X109780064Y-79633793D01*
X109780071Y-79633797D01*
X109914917Y-79684091D01*
X109914916Y-79684091D01*
X109921844Y-79684835D01*
X109974527Y-79690500D01*
X110770272Y-79690499D01*
X110829883Y-79684091D01*
X110964731Y-79633796D01*
X111079946Y-79547546D01*
X111166196Y-79432331D01*
X111173549Y-79412615D01*
X111207658Y-79321167D01*
X111249529Y-79265233D01*
X111314993Y-79240816D01*
X111323840Y-79240500D01*
X111397500Y-79240500D01*
X111464539Y-79260185D01*
X111510294Y-79312989D01*
X111521500Y-79364500D01*
X111521500Y-79458863D01*
X111521501Y-79458882D01*
X111527908Y-79518481D01*
X111578202Y-79653327D01*
X111578203Y-79653329D01*
X111578204Y-79653330D01*
X111658723Y-79760891D01*
X111683140Y-79826353D01*
X111668289Y-79894626D01*
X111618884Y-79944032D01*
X111559456Y-79959200D01*
X108081927Y-79959200D01*
X108014888Y-79939515D01*
X107969133Y-79886711D01*
X107959189Y-79817553D01*
X107988214Y-79753997D01*
X108030412Y-79722407D01*
X108054046Y-79711613D01*
X108058118Y-79709926D01*
X108089250Y-79698315D01*
X108132579Y-79690499D01*
X108770271Y-79690499D01*
X108770272Y-79690499D01*
X108829883Y-79684091D01*
X108964731Y-79633796D01*
X109079946Y-79547546D01*
X109166196Y-79432331D01*
X109216491Y-79297483D01*
X109222900Y-79237873D01*
X109222899Y-78242128D01*
X109216491Y-78182517D01*
X109213426Y-78174300D01*
X109166197Y-78047671D01*
X109166193Y-78047664D01*
X109079947Y-77932455D01*
X109079944Y-77932452D01*
X108964735Y-77846206D01*
X108964728Y-77846202D01*
X108829882Y-77795908D01*
X108829883Y-77795908D01*
X108770283Y-77789501D01*
X108770281Y-77789500D01*
X108770273Y-77789500D01*
X108770264Y-77789500D01*
X107974529Y-77789500D01*
X107974523Y-77789501D01*
X107914916Y-77795908D01*
X107780071Y-77846202D01*
X107780064Y-77846206D01*
X107664855Y-77932452D01*
X107664852Y-77932455D01*
X107578606Y-78047664D01*
X107578602Y-78047671D01*
X107528310Y-78182513D01*
X107528309Y-78182517D01*
X107521900Y-78242127D01*
X107521900Y-78242134D01*
X107521900Y-78242135D01*
X107521900Y-78254679D01*
X107502215Y-78321718D01*
X107449411Y-78367473D01*
X107380253Y-78377417D01*
X107329011Y-78357782D01*
X107261740Y-78312834D01*
X107261739Y-78312833D01*
X107261735Y-78312832D01*
X107188677Y-78298300D01*
X107188674Y-78298300D01*
X104365600Y-78298300D01*
X104298561Y-78278615D01*
X104252806Y-78225811D01*
X104241600Y-78174300D01*
X104241600Y-77828000D01*
X104261285Y-77760961D01*
X104314089Y-77715206D01*
X104365600Y-77704000D01*
X105414000Y-77704000D01*
X105414000Y-76704000D01*
X105914000Y-76704000D01*
X105914000Y-77704000D01*
X107211828Y-77704000D01*
X107211844Y-77703999D01*
X107271372Y-77697598D01*
X107271379Y-77697596D01*
X107406086Y-77647354D01*
X107406093Y-77647350D01*
X107521187Y-77561190D01*
X107521190Y-77561187D01*
X107607350Y-77446093D01*
X107607354Y-77446086D01*
X107657596Y-77311379D01*
X107657598Y-77311372D01*
X107663999Y-77251844D01*
X107664000Y-77251827D01*
X107664000Y-76704000D01*
X105914000Y-76704000D01*
X105414000Y-76704000D01*
X105414000Y-75204000D01*
X105914000Y-75204000D01*
X105914000Y-76204000D01*
X107664000Y-76204000D01*
X116618000Y-76204000D01*
X118368000Y-76204000D01*
X118368000Y-75204000D01*
X117070155Y-75204000D01*
X117010627Y-75210401D01*
X117010620Y-75210403D01*
X116875913Y-75260645D01*
X116875906Y-75260649D01*
X116760812Y-75346809D01*
X116760809Y-75346812D01*
X116674649Y-75461906D01*
X116674645Y-75461913D01*
X116624403Y-75596620D01*
X116624401Y-75596627D01*
X116618000Y-75656155D01*
X116618000Y-76204000D01*
X107664000Y-76204000D01*
X107664000Y-75656172D01*
X107663999Y-75656155D01*
X107657598Y-75596627D01*
X107657596Y-75596620D01*
X107607354Y-75461913D01*
X107607350Y-75461906D01*
X107521190Y-75346812D01*
X107521187Y-75346809D01*
X107406093Y-75260649D01*
X107406086Y-75260645D01*
X107271379Y-75210403D01*
X107271372Y-75210401D01*
X107211844Y-75204000D01*
X105914000Y-75204000D01*
X105414000Y-75204000D01*
X104365600Y-75204000D01*
X104298561Y-75184315D01*
X104252806Y-75131511D01*
X104241600Y-75080000D01*
X104241600Y-74784500D01*
X104261285Y-74717461D01*
X104314089Y-74671706D01*
X104365600Y-74660500D01*
X107188676Y-74660500D01*
X107188677Y-74660499D01*
X107261740Y-74645966D01*
X107332181Y-74598899D01*
X107398857Y-74578022D01*
X107466237Y-74596507D01*
X107512927Y-74648485D01*
X107524360Y-74688749D01*
X107528308Y-74725483D01*
X107578602Y-74860328D01*
X107578606Y-74860335D01*
X107664852Y-74975544D01*
X107664855Y-74975547D01*
X107780064Y-75061793D01*
X107780071Y-75061797D01*
X107914917Y-75112091D01*
X107914916Y-75112091D01*
X107921844Y-75112835D01*
X107974527Y-75118500D01*
X108770272Y-75118499D01*
X108829883Y-75112091D01*
X108964731Y-75061796D01*
X109079946Y-74975546D01*
X109166196Y-74860331D01*
X109216491Y-74725483D01*
X109222900Y-74665873D01*
X109222900Y-74665870D01*
X109521900Y-74665870D01*
X109521901Y-74665876D01*
X109528308Y-74725483D01*
X109578602Y-74860328D01*
X109578606Y-74860335D01*
X109664852Y-74975544D01*
X109664855Y-74975547D01*
X109780064Y-75061793D01*
X109780071Y-75061797D01*
X109914917Y-75112091D01*
X109914916Y-75112091D01*
X109921844Y-75112835D01*
X109974527Y-75118500D01*
X110770272Y-75118499D01*
X110829883Y-75112091D01*
X110964731Y-75061796D01*
X111079946Y-74975546D01*
X111166196Y-74860331D01*
X111194479Y-74784500D01*
X111207658Y-74749167D01*
X111249529Y-74693233D01*
X111314993Y-74668816D01*
X111323840Y-74668500D01*
X111367750Y-74668500D01*
X111434789Y-74688185D01*
X111480544Y-74740989D01*
X111483932Y-74749167D01*
X111528002Y-74867327D01*
X111528003Y-74867328D01*
X111528004Y-74867330D01*
X111614254Y-74982546D01*
X111729470Y-75068796D01*
X111729471Y-75068796D01*
X111729472Y-75068797D01*
X111864318Y-75119091D01*
X111864317Y-75119091D01*
X111871245Y-75119835D01*
X111923928Y-75125500D01*
X111923937Y-75125500D01*
X113019663Y-75125500D01*
X113019672Y-75125500D01*
X113079282Y-75119091D01*
X113214130Y-75068796D01*
X113329346Y-74982546D01*
X113415596Y-74867330D01*
X113465891Y-74732482D01*
X113472300Y-74672872D01*
X113472300Y-72727128D01*
X113465891Y-72667518D01*
X113458721Y-72648294D01*
X113415597Y-72532672D01*
X113415596Y-72532671D01*
X113415596Y-72532670D01*
X113329346Y-72417454D01*
X113214130Y-72331204D01*
X113214128Y-72331203D01*
X113214127Y-72331202D01*
X113079281Y-72280908D01*
X113079282Y-72280908D01*
X113019682Y-72274501D01*
X113019680Y-72274500D01*
X113019672Y-72274500D01*
X111923928Y-72274500D01*
X111923920Y-72274500D01*
X111923917Y-72274501D01*
X111864318Y-72280908D01*
X111729472Y-72331202D01*
X111729470Y-72331204D01*
X111614254Y-72417454D01*
X111528004Y-72532670D01*
X111528002Y-72532672D01*
X111477708Y-72667518D01*
X111471301Y-72727117D01*
X111471300Y-72727136D01*
X111471300Y-73543500D01*
X111451615Y-73610539D01*
X111398811Y-73656294D01*
X111347300Y-73667500D01*
X111323840Y-73667500D01*
X111256801Y-73647815D01*
X111211046Y-73595011D01*
X111207658Y-73586833D01*
X111166197Y-73475671D01*
X111166193Y-73475664D01*
X111079947Y-73360455D01*
X111079944Y-73360452D01*
X110964735Y-73274206D01*
X110964728Y-73274202D01*
X110829882Y-73223908D01*
X110829883Y-73223908D01*
X110770283Y-73217501D01*
X110770281Y-73217500D01*
X110770273Y-73217500D01*
X110770264Y-73217500D01*
X109974529Y-73217500D01*
X109974523Y-73217501D01*
X109914916Y-73223908D01*
X109780071Y-73274202D01*
X109780064Y-73274206D01*
X109664855Y-73360452D01*
X109664852Y-73360455D01*
X109578606Y-73475664D01*
X109578602Y-73475671D01*
X109528308Y-73610517D01*
X109523387Y-73656294D01*
X109521901Y-73670123D01*
X109521900Y-73670135D01*
X109521900Y-74665870D01*
X109222900Y-74665870D01*
X109222899Y-73670128D01*
X109216491Y-73610517D01*
X109207657Y-73586833D01*
X109166197Y-73475671D01*
X109166193Y-73475664D01*
X109079947Y-73360455D01*
X109079944Y-73360452D01*
X108964735Y-73274206D01*
X108964728Y-73274202D01*
X108829882Y-73223908D01*
X108829883Y-73223908D01*
X108770283Y-73217501D01*
X108770281Y-73217500D01*
X108770273Y-73217500D01*
X108770265Y-73217500D01*
X108132579Y-73217500D01*
X108089245Y-73209682D01*
X108058116Y-73198071D01*
X108054042Y-73196383D01*
X108006857Y-73174835D01*
X108006855Y-73174834D01*
X108002082Y-73174148D01*
X107976400Y-73167593D01*
X107971885Y-73165909D01*
X107920140Y-73162207D01*
X107915743Y-73161734D01*
X107900199Y-73159500D01*
X107884494Y-73159500D01*
X107880071Y-73159342D01*
X107862483Y-73158084D01*
X107828329Y-73155641D01*
X107828325Y-73155641D01*
X107823615Y-73156666D01*
X107797257Y-73159500D01*
X107538500Y-73159500D01*
X107471461Y-73139815D01*
X107425706Y-73087011D01*
X107414500Y-73035500D01*
X107414500Y-72885323D01*
X107414499Y-72885321D01*
X107399967Y-72812264D01*
X107399966Y-72812260D01*
X107344601Y-72729399D01*
X107261740Y-72674034D01*
X107261739Y-72674033D01*
X107261735Y-72674032D01*
X107188677Y-72659500D01*
X107188674Y-72659500D01*
X104365600Y-72659500D01*
X104298561Y-72639815D01*
X104252806Y-72587011D01*
X104241600Y-72535500D01*
X104241600Y-72107600D01*
X104261285Y-72040561D01*
X104314089Y-71994806D01*
X104365600Y-71983600D01*
X119916400Y-71983600D01*
X119983439Y-72003285D01*
G37*
%TD.AperFunction*%
%TD*%
M02*
