%TF.GenerationSoftware,KiCad,Pcbnew,7.0.9*%
%TF.CreationDate,2024-01-22T21:04:28-08:00*%
%TF.ProjectId,genesis_model2_s-video_simple_nano,67656e65-7369-4735-9f6d-6f64656c325f,rev?*%
%TF.SameCoordinates,Original*%
%TF.FileFunction,Legend,Bot*%
%TF.FilePolarity,Positive*%
%FSLAX46Y46*%
G04 Gerber Fmt 4.6, Leading zero omitted, Abs format (unit mm)*
G04 Created by KiCad (PCBNEW 7.0.9) date 2024-01-22 21:04:28*
%MOMM*%
%LPD*%
G01*
G04 APERTURE LIST*
%ADD10C,0.100000*%
G04 APERTURE END LIST*
D10*
X119806353Y-72742371D02*
X119806353Y-72142371D01*
X119806353Y-72142371D02*
X119606353Y-72570942D01*
X119606353Y-72570942D02*
X119406353Y-72142371D01*
X119406353Y-72142371D02*
X119406353Y-72742371D01*
X119034925Y-72742371D02*
X119092068Y-72713800D01*
X119092068Y-72713800D02*
X119120639Y-72685228D01*
X119120639Y-72685228D02*
X119149211Y-72628085D01*
X119149211Y-72628085D02*
X119149211Y-72456657D01*
X119149211Y-72456657D02*
X119120639Y-72399514D01*
X119120639Y-72399514D02*
X119092068Y-72370942D01*
X119092068Y-72370942D02*
X119034925Y-72342371D01*
X119034925Y-72342371D02*
X118949211Y-72342371D01*
X118949211Y-72342371D02*
X118892068Y-72370942D01*
X118892068Y-72370942D02*
X118863497Y-72399514D01*
X118863497Y-72399514D02*
X118834925Y-72456657D01*
X118834925Y-72456657D02*
X118834925Y-72628085D01*
X118834925Y-72628085D02*
X118863497Y-72685228D01*
X118863497Y-72685228D02*
X118892068Y-72713800D01*
X118892068Y-72713800D02*
X118949211Y-72742371D01*
X118949211Y-72742371D02*
X119034925Y-72742371D01*
X118320640Y-72742371D02*
X118320640Y-72142371D01*
X118320640Y-72713800D02*
X118377782Y-72742371D01*
X118377782Y-72742371D02*
X118492068Y-72742371D01*
X118492068Y-72742371D02*
X118549211Y-72713800D01*
X118549211Y-72713800D02*
X118577782Y-72685228D01*
X118577782Y-72685228D02*
X118606354Y-72628085D01*
X118606354Y-72628085D02*
X118606354Y-72456657D01*
X118606354Y-72456657D02*
X118577782Y-72399514D01*
X118577782Y-72399514D02*
X118549211Y-72370942D01*
X118549211Y-72370942D02*
X118492068Y-72342371D01*
X118492068Y-72342371D02*
X118377782Y-72342371D01*
X118377782Y-72342371D02*
X118320640Y-72370942D01*
X117806354Y-72713800D02*
X117863497Y-72742371D01*
X117863497Y-72742371D02*
X117977783Y-72742371D01*
X117977783Y-72742371D02*
X118034925Y-72713800D01*
X118034925Y-72713800D02*
X118063497Y-72656657D01*
X118063497Y-72656657D02*
X118063497Y-72428085D01*
X118063497Y-72428085D02*
X118034925Y-72370942D01*
X118034925Y-72370942D02*
X117977783Y-72342371D01*
X117977783Y-72342371D02*
X117863497Y-72342371D01*
X117863497Y-72342371D02*
X117806354Y-72370942D01*
X117806354Y-72370942D02*
X117777783Y-72428085D01*
X117777783Y-72428085D02*
X117777783Y-72485228D01*
X117777783Y-72485228D02*
X118063497Y-72542371D01*
X117434925Y-72742371D02*
X117492068Y-72713800D01*
X117492068Y-72713800D02*
X117520639Y-72656657D01*
X117520639Y-72656657D02*
X117520639Y-72142371D01*
X116777782Y-72199514D02*
X116749210Y-72170942D01*
X116749210Y-72170942D02*
X116692068Y-72142371D01*
X116692068Y-72142371D02*
X116549210Y-72142371D01*
X116549210Y-72142371D02*
X116492068Y-72170942D01*
X116492068Y-72170942D02*
X116463496Y-72199514D01*
X116463496Y-72199514D02*
X116434925Y-72256657D01*
X116434925Y-72256657D02*
X116434925Y-72313800D01*
X116434925Y-72313800D02*
X116463496Y-72399514D01*
X116463496Y-72399514D02*
X116806353Y-72742371D01*
X116806353Y-72742371D02*
X116434925Y-72742371D01*
X115692067Y-72742371D02*
X115720639Y-72742371D01*
X115720639Y-72742371D02*
X115777781Y-72713800D01*
X115777781Y-72713800D02*
X115863496Y-72628085D01*
X115863496Y-72628085D02*
X116006353Y-72456657D01*
X116006353Y-72456657D02*
X116063496Y-72370942D01*
X116063496Y-72370942D02*
X116092067Y-72285228D01*
X116092067Y-72285228D02*
X116092067Y-72228085D01*
X116092067Y-72228085D02*
X116063496Y-72170942D01*
X116063496Y-72170942D02*
X116006353Y-72142371D01*
X116006353Y-72142371D02*
X115977781Y-72142371D01*
X115977781Y-72142371D02*
X115920639Y-72170942D01*
X115920639Y-72170942D02*
X115892067Y-72228085D01*
X115892067Y-72228085D02*
X115892067Y-72256657D01*
X115892067Y-72256657D02*
X115920639Y-72313800D01*
X115920639Y-72313800D02*
X115949210Y-72342371D01*
X115949210Y-72342371D02*
X116120639Y-72456657D01*
X116120639Y-72456657D02*
X116149210Y-72485228D01*
X116149210Y-72485228D02*
X116177781Y-72542371D01*
X116177781Y-72542371D02*
X116177781Y-72628085D01*
X116177781Y-72628085D02*
X116149210Y-72685228D01*
X116149210Y-72685228D02*
X116120639Y-72713800D01*
X116120639Y-72713800D02*
X116063496Y-72742371D01*
X116063496Y-72742371D02*
X115977781Y-72742371D01*
X115977781Y-72742371D02*
X115920639Y-72713800D01*
X115920639Y-72713800D02*
X115892067Y-72685228D01*
X115892067Y-72685228D02*
X115806353Y-72570942D01*
X115806353Y-72570942D02*
X115777781Y-72485228D01*
X115777781Y-72485228D02*
X115777781Y-72428085D01*
X115492067Y-72142371D02*
X115120639Y-72142371D01*
X115120639Y-72142371D02*
X115320639Y-72370942D01*
X115320639Y-72370942D02*
X115234924Y-72370942D01*
X115234924Y-72370942D02*
X115177782Y-72399514D01*
X115177782Y-72399514D02*
X115149210Y-72428085D01*
X115149210Y-72428085D02*
X115120639Y-72485228D01*
X115120639Y-72485228D02*
X115120639Y-72628085D01*
X115120639Y-72628085D02*
X115149210Y-72685228D01*
X115149210Y-72685228D02*
X115177782Y-72713800D01*
X115177782Y-72713800D02*
X115234924Y-72742371D01*
X115234924Y-72742371D02*
X115406353Y-72742371D01*
X115406353Y-72742371D02*
X115463496Y-72713800D01*
X115463496Y-72713800D02*
X115492067Y-72685228D01*
X114406352Y-72742371D02*
X114406352Y-72142371D01*
X114406352Y-72142371D02*
X114206352Y-72570942D01*
X114206352Y-72570942D02*
X114006352Y-72142371D01*
X114006352Y-72142371D02*
X114006352Y-72742371D01*
X113720638Y-72742371D02*
X113720638Y-72142371D01*
X113720638Y-72142371D02*
X113577781Y-72142371D01*
X113577781Y-72142371D02*
X113492067Y-72170942D01*
X113492067Y-72170942D02*
X113434924Y-72228085D01*
X113434924Y-72228085D02*
X113406353Y-72285228D01*
X113406353Y-72285228D02*
X113377781Y-72399514D01*
X113377781Y-72399514D02*
X113377781Y-72485228D01*
X113377781Y-72485228D02*
X113406353Y-72599514D01*
X113406353Y-72599514D02*
X113434924Y-72656657D01*
X113434924Y-72656657D02*
X113492067Y-72713800D01*
X113492067Y-72713800D02*
X113577781Y-72742371D01*
X113577781Y-72742371D02*
X113720638Y-72742371D01*
X112692067Y-72113800D02*
X113206353Y-72885228D01*
X112520639Y-72713800D02*
X112434925Y-72742371D01*
X112434925Y-72742371D02*
X112292067Y-72742371D01*
X112292067Y-72742371D02*
X112234925Y-72713800D01*
X112234925Y-72713800D02*
X112206353Y-72685228D01*
X112206353Y-72685228D02*
X112177782Y-72628085D01*
X112177782Y-72628085D02*
X112177782Y-72570942D01*
X112177782Y-72570942D02*
X112206353Y-72513800D01*
X112206353Y-72513800D02*
X112234925Y-72485228D01*
X112234925Y-72485228D02*
X112292067Y-72456657D01*
X112292067Y-72456657D02*
X112406353Y-72428085D01*
X112406353Y-72428085D02*
X112463496Y-72399514D01*
X112463496Y-72399514D02*
X112492067Y-72370942D01*
X112492067Y-72370942D02*
X112520639Y-72313800D01*
X112520639Y-72313800D02*
X112520639Y-72256657D01*
X112520639Y-72256657D02*
X112492067Y-72199514D01*
X112492067Y-72199514D02*
X112463496Y-72170942D01*
X112463496Y-72170942D02*
X112406353Y-72142371D01*
X112406353Y-72142371D02*
X112263496Y-72142371D01*
X112263496Y-72142371D02*
X112177782Y-72170942D01*
X111606353Y-72170942D02*
X111663496Y-72142371D01*
X111663496Y-72142371D02*
X111749210Y-72142371D01*
X111749210Y-72142371D02*
X111834924Y-72170942D01*
X111834924Y-72170942D02*
X111892067Y-72228085D01*
X111892067Y-72228085D02*
X111920638Y-72285228D01*
X111920638Y-72285228D02*
X111949210Y-72399514D01*
X111949210Y-72399514D02*
X111949210Y-72485228D01*
X111949210Y-72485228D02*
X111920638Y-72599514D01*
X111920638Y-72599514D02*
X111892067Y-72656657D01*
X111892067Y-72656657D02*
X111834924Y-72713800D01*
X111834924Y-72713800D02*
X111749210Y-72742371D01*
X111749210Y-72742371D02*
X111692067Y-72742371D01*
X111692067Y-72742371D02*
X111606353Y-72713800D01*
X111606353Y-72713800D02*
X111577781Y-72685228D01*
X111577781Y-72685228D02*
X111577781Y-72485228D01*
X111577781Y-72485228D02*
X111692067Y-72485228D01*
X110892067Y-72713800D02*
X110806353Y-72742371D01*
X110806353Y-72742371D02*
X110663495Y-72742371D01*
X110663495Y-72742371D02*
X110606353Y-72713800D01*
X110606353Y-72713800D02*
X110577781Y-72685228D01*
X110577781Y-72685228D02*
X110549210Y-72628085D01*
X110549210Y-72628085D02*
X110549210Y-72570942D01*
X110549210Y-72570942D02*
X110577781Y-72513800D01*
X110577781Y-72513800D02*
X110606353Y-72485228D01*
X110606353Y-72485228D02*
X110663495Y-72456657D01*
X110663495Y-72456657D02*
X110777781Y-72428085D01*
X110777781Y-72428085D02*
X110834924Y-72399514D01*
X110834924Y-72399514D02*
X110863495Y-72370942D01*
X110863495Y-72370942D02*
X110892067Y-72313800D01*
X110892067Y-72313800D02*
X110892067Y-72256657D01*
X110892067Y-72256657D02*
X110863495Y-72199514D01*
X110863495Y-72199514D02*
X110834924Y-72170942D01*
X110834924Y-72170942D02*
X110777781Y-72142371D01*
X110777781Y-72142371D02*
X110634924Y-72142371D01*
X110634924Y-72142371D02*
X110549210Y-72170942D01*
X110292066Y-72513800D02*
X109834924Y-72513800D01*
X109634924Y-72142371D02*
X109434924Y-72742371D01*
X109434924Y-72742371D02*
X109234924Y-72142371D01*
X109034923Y-72742371D02*
X109034923Y-72342371D01*
X109034923Y-72142371D02*
X109063495Y-72170942D01*
X109063495Y-72170942D02*
X109034923Y-72199514D01*
X109034923Y-72199514D02*
X109006352Y-72170942D01*
X109006352Y-72170942D02*
X109034923Y-72142371D01*
X109034923Y-72142371D02*
X109034923Y-72199514D01*
X108492067Y-72742371D02*
X108492067Y-72142371D01*
X108492067Y-72713800D02*
X108549209Y-72742371D01*
X108549209Y-72742371D02*
X108663495Y-72742371D01*
X108663495Y-72742371D02*
X108720638Y-72713800D01*
X108720638Y-72713800D02*
X108749209Y-72685228D01*
X108749209Y-72685228D02*
X108777781Y-72628085D01*
X108777781Y-72628085D02*
X108777781Y-72456657D01*
X108777781Y-72456657D02*
X108749209Y-72399514D01*
X108749209Y-72399514D02*
X108720638Y-72370942D01*
X108720638Y-72370942D02*
X108663495Y-72342371D01*
X108663495Y-72342371D02*
X108549209Y-72342371D01*
X108549209Y-72342371D02*
X108492067Y-72370942D01*
X107977781Y-72713800D02*
X108034924Y-72742371D01*
X108034924Y-72742371D02*
X108149210Y-72742371D01*
X108149210Y-72742371D02*
X108206352Y-72713800D01*
X108206352Y-72713800D02*
X108234924Y-72656657D01*
X108234924Y-72656657D02*
X108234924Y-72428085D01*
X108234924Y-72428085D02*
X108206352Y-72370942D01*
X108206352Y-72370942D02*
X108149210Y-72342371D01*
X108149210Y-72342371D02*
X108034924Y-72342371D01*
X108034924Y-72342371D02*
X107977781Y-72370942D01*
X107977781Y-72370942D02*
X107949210Y-72428085D01*
X107949210Y-72428085D02*
X107949210Y-72485228D01*
X107949210Y-72485228D02*
X108234924Y-72542371D01*
X107606352Y-72742371D02*
X107663495Y-72713800D01*
X107663495Y-72713800D02*
X107692066Y-72685228D01*
X107692066Y-72685228D02*
X107720638Y-72628085D01*
X107720638Y-72628085D02*
X107720638Y-72456657D01*
X107720638Y-72456657D02*
X107692066Y-72399514D01*
X107692066Y-72399514D02*
X107663495Y-72370942D01*
X107663495Y-72370942D02*
X107606352Y-72342371D01*
X107606352Y-72342371D02*
X107520638Y-72342371D01*
X107520638Y-72342371D02*
X107463495Y-72370942D01*
X107463495Y-72370942D02*
X107434924Y-72399514D01*
X107434924Y-72399514D02*
X107406352Y-72456657D01*
X107406352Y-72456657D02*
X107406352Y-72628085D01*
X107406352Y-72628085D02*
X107434924Y-72685228D01*
X107434924Y-72685228D02*
X107463495Y-72713800D01*
X107463495Y-72713800D02*
X107520638Y-72742371D01*
X107520638Y-72742371D02*
X107606352Y-72742371D01*
X119606353Y-73394085D02*
X119520639Y-73422657D01*
X119520639Y-73422657D02*
X119492068Y-73451228D01*
X119492068Y-73451228D02*
X119463496Y-73508371D01*
X119463496Y-73508371D02*
X119463496Y-73594085D01*
X119463496Y-73594085D02*
X119492068Y-73651228D01*
X119492068Y-73651228D02*
X119520639Y-73679800D01*
X119520639Y-73679800D02*
X119577782Y-73708371D01*
X119577782Y-73708371D02*
X119806353Y-73708371D01*
X119806353Y-73708371D02*
X119806353Y-73108371D01*
X119806353Y-73108371D02*
X119606353Y-73108371D01*
X119606353Y-73108371D02*
X119549211Y-73136942D01*
X119549211Y-73136942D02*
X119520639Y-73165514D01*
X119520639Y-73165514D02*
X119492068Y-73222657D01*
X119492068Y-73222657D02*
X119492068Y-73279800D01*
X119492068Y-73279800D02*
X119520639Y-73336942D01*
X119520639Y-73336942D02*
X119549211Y-73365514D01*
X119549211Y-73365514D02*
X119606353Y-73394085D01*
X119606353Y-73394085D02*
X119806353Y-73394085D01*
X119263496Y-73308371D02*
X119120639Y-73708371D01*
X118977782Y-73308371D02*
X119120639Y-73708371D01*
X119120639Y-73708371D02*
X119177782Y-73851228D01*
X119177782Y-73851228D02*
X119206353Y-73879800D01*
X119206353Y-73879800D02*
X119263496Y-73908371D01*
X118292067Y-73308371D02*
X118292067Y-73822657D01*
X118292067Y-73822657D02*
X118320639Y-73879800D01*
X118320639Y-73879800D02*
X118377782Y-73908371D01*
X118377782Y-73908371D02*
X118406353Y-73908371D01*
X118292067Y-73108371D02*
X118320639Y-73136942D01*
X118320639Y-73136942D02*
X118292067Y-73165514D01*
X118292067Y-73165514D02*
X118263496Y-73136942D01*
X118263496Y-73136942D02*
X118292067Y-73108371D01*
X118292067Y-73108371D02*
X118292067Y-73165514D01*
X117920639Y-73708371D02*
X117977782Y-73679800D01*
X117977782Y-73679800D02*
X118006353Y-73651228D01*
X118006353Y-73651228D02*
X118034925Y-73594085D01*
X118034925Y-73594085D02*
X118034925Y-73422657D01*
X118034925Y-73422657D02*
X118006353Y-73365514D01*
X118006353Y-73365514D02*
X117977782Y-73336942D01*
X117977782Y-73336942D02*
X117920639Y-73308371D01*
X117920639Y-73308371D02*
X117834925Y-73308371D01*
X117834925Y-73308371D02*
X117777782Y-73336942D01*
X117777782Y-73336942D02*
X117749211Y-73365514D01*
X117749211Y-73365514D02*
X117720639Y-73422657D01*
X117720639Y-73422657D02*
X117720639Y-73594085D01*
X117720639Y-73594085D02*
X117749211Y-73651228D01*
X117749211Y-73651228D02*
X117777782Y-73679800D01*
X117777782Y-73679800D02*
X117834925Y-73708371D01*
X117834925Y-73708371D02*
X117920639Y-73708371D01*
X117492068Y-73679800D02*
X117434925Y-73708371D01*
X117434925Y-73708371D02*
X117320639Y-73708371D01*
X117320639Y-73708371D02*
X117263496Y-73679800D01*
X117263496Y-73679800D02*
X117234925Y-73622657D01*
X117234925Y-73622657D02*
X117234925Y-73594085D01*
X117234925Y-73594085D02*
X117263496Y-73536942D01*
X117263496Y-73536942D02*
X117320639Y-73508371D01*
X117320639Y-73508371D02*
X117406354Y-73508371D01*
X117406354Y-73508371D02*
X117463496Y-73479800D01*
X117463496Y-73479800D02*
X117492068Y-73422657D01*
X117492068Y-73422657D02*
X117492068Y-73394085D01*
X117492068Y-73394085D02*
X117463496Y-73336942D01*
X117463496Y-73336942D02*
X117406354Y-73308371D01*
X117406354Y-73308371D02*
X117320639Y-73308371D01*
X117320639Y-73308371D02*
X117263496Y-73336942D01*
X116977782Y-73708371D02*
X116977782Y-73108371D01*
X116720640Y-73708371D02*
X116720640Y-73394085D01*
X116720640Y-73394085D02*
X116749211Y-73336942D01*
X116749211Y-73336942D02*
X116806354Y-73308371D01*
X116806354Y-73308371D02*
X116892068Y-73308371D01*
X116892068Y-73308371D02*
X116949211Y-73336942D01*
X116949211Y-73336942D02*
X116977782Y-73365514D01*
X116434925Y-73708371D02*
X116434925Y-73308371D01*
X116434925Y-73365514D02*
X116406354Y-73336942D01*
X116406354Y-73336942D02*
X116349211Y-73308371D01*
X116349211Y-73308371D02*
X116263497Y-73308371D01*
X116263497Y-73308371D02*
X116206354Y-73336942D01*
X116206354Y-73336942D02*
X116177783Y-73394085D01*
X116177783Y-73394085D02*
X116177783Y-73708371D01*
X116177783Y-73394085D02*
X116149211Y-73336942D01*
X116149211Y-73336942D02*
X116092068Y-73308371D01*
X116092068Y-73308371D02*
X116006354Y-73308371D01*
X116006354Y-73308371D02*
X115949211Y-73336942D01*
X115949211Y-73336942D02*
X115920640Y-73394085D01*
X115920640Y-73394085D02*
X115920640Y-73708371D01*
X115377783Y-73708371D02*
X115377783Y-73394085D01*
X115377783Y-73394085D02*
X115406354Y-73336942D01*
X115406354Y-73336942D02*
X115463497Y-73308371D01*
X115463497Y-73308371D02*
X115577783Y-73308371D01*
X115577783Y-73308371D02*
X115634925Y-73336942D01*
X115377783Y-73679800D02*
X115434925Y-73708371D01*
X115434925Y-73708371D02*
X115577783Y-73708371D01*
X115577783Y-73708371D02*
X115634925Y-73679800D01*
X115634925Y-73679800D02*
X115663497Y-73622657D01*
X115663497Y-73622657D02*
X115663497Y-73565514D01*
X115663497Y-73565514D02*
X115634925Y-73508371D01*
X115634925Y-73508371D02*
X115577783Y-73479800D01*
X115577783Y-73479800D02*
X115434925Y-73479800D01*
X115434925Y-73479800D02*
X115377783Y-73451228D01*
X115092068Y-73308371D02*
X115092068Y-73708371D01*
X115092068Y-73365514D02*
X115063497Y-73336942D01*
X115063497Y-73336942D02*
X115006354Y-73308371D01*
X115006354Y-73308371D02*
X114920640Y-73308371D01*
X114920640Y-73308371D02*
X114863497Y-73336942D01*
X114863497Y-73336942D02*
X114834926Y-73394085D01*
X114834926Y-73394085D02*
X114834926Y-73708371D01*
X114234926Y-73708371D02*
X114577783Y-73708371D01*
X114406354Y-73708371D02*
X114406354Y-73108371D01*
X114406354Y-73108371D02*
X114463497Y-73194085D01*
X114463497Y-73194085D02*
X114520640Y-73251228D01*
X114520640Y-73251228D02*
X114577783Y-73279800D01*
X113949211Y-73708371D02*
X113834925Y-73708371D01*
X113834925Y-73708371D02*
X113777782Y-73679800D01*
X113777782Y-73679800D02*
X113749211Y-73651228D01*
X113749211Y-73651228D02*
X113692068Y-73565514D01*
X113692068Y-73565514D02*
X113663497Y-73451228D01*
X113663497Y-73451228D02*
X113663497Y-73222657D01*
X113663497Y-73222657D02*
X113692068Y-73165514D01*
X113692068Y-73165514D02*
X113720640Y-73136942D01*
X113720640Y-73136942D02*
X113777782Y-73108371D01*
X113777782Y-73108371D02*
X113892068Y-73108371D01*
X113892068Y-73108371D02*
X113949211Y-73136942D01*
X113949211Y-73136942D02*
X113977782Y-73165514D01*
X113977782Y-73165514D02*
X114006354Y-73222657D01*
X114006354Y-73222657D02*
X114006354Y-73365514D01*
X114006354Y-73365514D02*
X113977782Y-73422657D01*
X113977782Y-73422657D02*
X113949211Y-73451228D01*
X113949211Y-73451228D02*
X113892068Y-73479800D01*
X113892068Y-73479800D02*
X113777782Y-73479800D01*
X113777782Y-73479800D02*
X113720640Y-73451228D01*
X113720640Y-73451228D02*
X113692068Y-73422657D01*
X113692068Y-73422657D02*
X113663497Y-73365514D01*
X113149211Y-73108371D02*
X113263496Y-73108371D01*
X113263496Y-73108371D02*
X113320639Y-73136942D01*
X113320639Y-73136942D02*
X113349211Y-73165514D01*
X113349211Y-73165514D02*
X113406353Y-73251228D01*
X113406353Y-73251228D02*
X113434925Y-73365514D01*
X113434925Y-73365514D02*
X113434925Y-73594085D01*
X113434925Y-73594085D02*
X113406353Y-73651228D01*
X113406353Y-73651228D02*
X113377782Y-73679800D01*
X113377782Y-73679800D02*
X113320639Y-73708371D01*
X113320639Y-73708371D02*
X113206353Y-73708371D01*
X113206353Y-73708371D02*
X113149211Y-73679800D01*
X113149211Y-73679800D02*
X113120639Y-73651228D01*
X113120639Y-73651228D02*
X113092068Y-73594085D01*
X113092068Y-73594085D02*
X113092068Y-73451228D01*
X113092068Y-73451228D02*
X113120639Y-73394085D01*
X113120639Y-73394085D02*
X113149211Y-73365514D01*
X113149211Y-73365514D02*
X113206353Y-73336942D01*
X113206353Y-73336942D02*
X113320639Y-73336942D01*
X113320639Y-73336942D02*
X113377782Y-73365514D01*
X113377782Y-73365514D02*
X113406353Y-73394085D01*
X113406353Y-73394085D02*
X113434925Y-73451228D01*
X119617544Y-79209133D02*
X119617544Y-79709133D01*
X119617544Y-79709133D02*
X119650877Y-79809133D01*
X119650877Y-79809133D02*
X119717544Y-79875800D01*
X119717544Y-79875800D02*
X119817544Y-79909133D01*
X119817544Y-79909133D02*
X119884211Y-79909133D01*
X118950878Y-79909133D02*
X119284211Y-79909133D01*
X119284211Y-79909133D02*
X119284211Y-79209133D01*
X118317544Y-79842466D02*
X118350877Y-79875800D01*
X118350877Y-79875800D02*
X118450877Y-79909133D01*
X118450877Y-79909133D02*
X118517544Y-79909133D01*
X118517544Y-79909133D02*
X118617544Y-79875800D01*
X118617544Y-79875800D02*
X118684211Y-79809133D01*
X118684211Y-79809133D02*
X118717544Y-79742466D01*
X118717544Y-79742466D02*
X118750877Y-79609133D01*
X118750877Y-79609133D02*
X118750877Y-79509133D01*
X118750877Y-79509133D02*
X118717544Y-79375800D01*
X118717544Y-79375800D02*
X118684211Y-79309133D01*
X118684211Y-79309133D02*
X118617544Y-79242466D01*
X118617544Y-79242466D02*
X118517544Y-79209133D01*
X118517544Y-79209133D02*
X118450877Y-79209133D01*
X118450877Y-79209133D02*
X118350877Y-79242466D01*
X118350877Y-79242466D02*
X118317544Y-79275800D01*
X117817544Y-79209133D02*
X117817544Y-79709133D01*
X117817544Y-79709133D02*
X117850877Y-79809133D01*
X117850877Y-79809133D02*
X117917544Y-79875800D01*
X117917544Y-79875800D02*
X118017544Y-79909133D01*
X118017544Y-79909133D02*
X118084211Y-79909133D01*
X117150878Y-79909133D02*
X117484211Y-79909133D01*
X117484211Y-79909133D02*
X117484211Y-79209133D01*
X116517544Y-79842466D02*
X116550877Y-79875800D01*
X116550877Y-79875800D02*
X116650877Y-79909133D01*
X116650877Y-79909133D02*
X116717544Y-79909133D01*
X116717544Y-79909133D02*
X116817544Y-79875800D01*
X116817544Y-79875800D02*
X116884211Y-79809133D01*
X116884211Y-79809133D02*
X116917544Y-79742466D01*
X116917544Y-79742466D02*
X116950877Y-79609133D01*
X116950877Y-79609133D02*
X116950877Y-79509133D01*
X116950877Y-79509133D02*
X116917544Y-79375800D01*
X116917544Y-79375800D02*
X116884211Y-79309133D01*
X116884211Y-79309133D02*
X116817544Y-79242466D01*
X116817544Y-79242466D02*
X116717544Y-79209133D01*
X116717544Y-79209133D02*
X116650877Y-79209133D01*
X116650877Y-79209133D02*
X116550877Y-79242466D01*
X116550877Y-79242466D02*
X116517544Y-79275800D01*
X116017544Y-79209133D02*
X116017544Y-79709133D01*
X116017544Y-79709133D02*
X116050877Y-79809133D01*
X116050877Y-79809133D02*
X116117544Y-79875800D01*
X116117544Y-79875800D02*
X116217544Y-79909133D01*
X116217544Y-79909133D02*
X116284211Y-79909133D01*
X115350878Y-79909133D02*
X115684211Y-79909133D01*
X115684211Y-79909133D02*
X115684211Y-79209133D01*
X114717544Y-79842466D02*
X114750877Y-79875800D01*
X114750877Y-79875800D02*
X114850877Y-79909133D01*
X114850877Y-79909133D02*
X114917544Y-79909133D01*
X114917544Y-79909133D02*
X115017544Y-79875800D01*
X115017544Y-79875800D02*
X115084211Y-79809133D01*
X115084211Y-79809133D02*
X115117544Y-79742466D01*
X115117544Y-79742466D02*
X115150877Y-79609133D01*
X115150877Y-79609133D02*
X115150877Y-79509133D01*
X115150877Y-79509133D02*
X115117544Y-79375800D01*
X115117544Y-79375800D02*
X115084211Y-79309133D01*
X115084211Y-79309133D02*
X115017544Y-79242466D01*
X115017544Y-79242466D02*
X114917544Y-79209133D01*
X114917544Y-79209133D02*
X114850877Y-79209133D01*
X114850877Y-79209133D02*
X114750877Y-79242466D01*
X114750877Y-79242466D02*
X114717544Y-79275800D01*
X114217544Y-79209133D02*
X114217544Y-79709133D01*
X114217544Y-79709133D02*
X114250877Y-79809133D01*
X114250877Y-79809133D02*
X114317544Y-79875800D01*
X114317544Y-79875800D02*
X114417544Y-79909133D01*
X114417544Y-79909133D02*
X114484211Y-79909133D01*
X113550878Y-79909133D02*
X113884211Y-79909133D01*
X113884211Y-79909133D02*
X113884211Y-79209133D01*
X112917544Y-79842466D02*
X112950877Y-79875800D01*
X112950877Y-79875800D02*
X113050877Y-79909133D01*
X113050877Y-79909133D02*
X113117544Y-79909133D01*
X113117544Y-79909133D02*
X113217544Y-79875800D01*
X113217544Y-79875800D02*
X113284211Y-79809133D01*
X113284211Y-79809133D02*
X113317544Y-79742466D01*
X113317544Y-79742466D02*
X113350877Y-79609133D01*
X113350877Y-79609133D02*
X113350877Y-79509133D01*
X113350877Y-79509133D02*
X113317544Y-79375800D01*
X113317544Y-79375800D02*
X113284211Y-79309133D01*
X113284211Y-79309133D02*
X113217544Y-79242466D01*
X113217544Y-79242466D02*
X113117544Y-79209133D01*
X113117544Y-79209133D02*
X113050877Y-79209133D01*
X113050877Y-79209133D02*
X112950877Y-79242466D01*
X112950877Y-79242466D02*
X112917544Y-79275800D01*
M02*
