%TF.GenerationSoftware,KiCad,Pcbnew,7.0.9*%
%TF.CreationDate,2024-01-22T20:54:59-08:00*%
%TF.ProjectId,sg_model2-3_s-video_supernano,73675f6d-6f64-4656-9c32-2d335f732d76,rev?*%
%TF.SameCoordinates,Original*%
%TF.FileFunction,Legend,Bot*%
%TF.FilePolarity,Positive*%
%FSLAX46Y46*%
G04 Gerber Fmt 4.6, Leading zero omitted, Abs format (unit mm)*
G04 Created by KiCad (PCBNEW 7.0.9) date 2024-01-22 20:54:59*
%MOMM*%
%LPD*%
G01*
G04 APERTURE LIST*
%ADD10C,0.125000*%
%ADD11C,0.100000*%
G04 APERTURE END LIST*
D10*
X114551097Y-79307833D02*
X114551097Y-79807833D01*
X114551097Y-79807833D02*
X114584430Y-79907833D01*
X114584430Y-79907833D02*
X114651097Y-79974500D01*
X114651097Y-79974500D02*
X114751097Y-80007833D01*
X114751097Y-80007833D02*
X114817764Y-80007833D01*
X113884431Y-80007833D02*
X114217764Y-80007833D01*
X114217764Y-80007833D02*
X114217764Y-79307833D01*
X113251097Y-79941166D02*
X113284430Y-79974500D01*
X113284430Y-79974500D02*
X113384430Y-80007833D01*
X113384430Y-80007833D02*
X113451097Y-80007833D01*
X113451097Y-80007833D02*
X113551097Y-79974500D01*
X113551097Y-79974500D02*
X113617764Y-79907833D01*
X113617764Y-79907833D02*
X113651097Y-79841166D01*
X113651097Y-79841166D02*
X113684430Y-79707833D01*
X113684430Y-79707833D02*
X113684430Y-79607833D01*
X113684430Y-79607833D02*
X113651097Y-79474500D01*
X113651097Y-79474500D02*
X113617764Y-79407833D01*
X113617764Y-79407833D02*
X113551097Y-79341166D01*
X113551097Y-79341166D02*
X113451097Y-79307833D01*
X113451097Y-79307833D02*
X113384430Y-79307833D01*
X113384430Y-79307833D02*
X113284430Y-79341166D01*
X113284430Y-79341166D02*
X113251097Y-79374500D01*
X112751097Y-79307833D02*
X112751097Y-79807833D01*
X112751097Y-79807833D02*
X112784430Y-79907833D01*
X112784430Y-79907833D02*
X112851097Y-79974500D01*
X112851097Y-79974500D02*
X112951097Y-80007833D01*
X112951097Y-80007833D02*
X113017764Y-80007833D01*
X112084431Y-80007833D02*
X112417764Y-80007833D01*
X112417764Y-80007833D02*
X112417764Y-79307833D01*
X111451097Y-79941166D02*
X111484430Y-79974500D01*
X111484430Y-79974500D02*
X111584430Y-80007833D01*
X111584430Y-80007833D02*
X111651097Y-80007833D01*
X111651097Y-80007833D02*
X111751097Y-79974500D01*
X111751097Y-79974500D02*
X111817764Y-79907833D01*
X111817764Y-79907833D02*
X111851097Y-79841166D01*
X111851097Y-79841166D02*
X111884430Y-79707833D01*
X111884430Y-79707833D02*
X111884430Y-79607833D01*
X111884430Y-79607833D02*
X111851097Y-79474500D01*
X111851097Y-79474500D02*
X111817764Y-79407833D01*
X111817764Y-79407833D02*
X111751097Y-79341166D01*
X111751097Y-79341166D02*
X111651097Y-79307833D01*
X111651097Y-79307833D02*
X111584430Y-79307833D01*
X111584430Y-79307833D02*
X111484430Y-79341166D01*
X111484430Y-79341166D02*
X111451097Y-79374500D01*
X110951097Y-79307833D02*
X110951097Y-79807833D01*
X110951097Y-79807833D02*
X110984430Y-79907833D01*
X110984430Y-79907833D02*
X111051097Y-79974500D01*
X111051097Y-79974500D02*
X111151097Y-80007833D01*
X111151097Y-80007833D02*
X111217764Y-80007833D01*
X110284431Y-80007833D02*
X110617764Y-80007833D01*
X110617764Y-80007833D02*
X110617764Y-79307833D01*
X109651097Y-79941166D02*
X109684430Y-79974500D01*
X109684430Y-79974500D02*
X109784430Y-80007833D01*
X109784430Y-80007833D02*
X109851097Y-80007833D01*
X109851097Y-80007833D02*
X109951097Y-79974500D01*
X109951097Y-79974500D02*
X110017764Y-79907833D01*
X110017764Y-79907833D02*
X110051097Y-79841166D01*
X110051097Y-79841166D02*
X110084430Y-79707833D01*
X110084430Y-79707833D02*
X110084430Y-79607833D01*
X110084430Y-79607833D02*
X110051097Y-79474500D01*
X110051097Y-79474500D02*
X110017764Y-79407833D01*
X110017764Y-79407833D02*
X109951097Y-79341166D01*
X109951097Y-79341166D02*
X109851097Y-79307833D01*
X109851097Y-79307833D02*
X109784430Y-79307833D01*
X109784430Y-79307833D02*
X109684430Y-79341166D01*
X109684430Y-79341166D02*
X109651097Y-79374500D01*
X109151097Y-79307833D02*
X109151097Y-79807833D01*
X109151097Y-79807833D02*
X109184430Y-79907833D01*
X109184430Y-79907833D02*
X109251097Y-79974500D01*
X109251097Y-79974500D02*
X109351097Y-80007833D01*
X109351097Y-80007833D02*
X109417764Y-80007833D01*
X108484431Y-80007833D02*
X108817764Y-80007833D01*
X108817764Y-80007833D02*
X108817764Y-79307833D01*
X107851097Y-79941166D02*
X107884430Y-79974500D01*
X107884430Y-79974500D02*
X107984430Y-80007833D01*
X107984430Y-80007833D02*
X108051097Y-80007833D01*
X108051097Y-80007833D02*
X108151097Y-79974500D01*
X108151097Y-79974500D02*
X108217764Y-79907833D01*
X108217764Y-79907833D02*
X108251097Y-79841166D01*
X108251097Y-79841166D02*
X108284430Y-79707833D01*
X108284430Y-79707833D02*
X108284430Y-79607833D01*
X108284430Y-79607833D02*
X108251097Y-79474500D01*
X108251097Y-79474500D02*
X108217764Y-79407833D01*
X108217764Y-79407833D02*
X108151097Y-79341166D01*
X108151097Y-79341166D02*
X108051097Y-79307833D01*
X108051097Y-79307833D02*
X107984430Y-79307833D01*
X107984430Y-79307833D02*
X107884430Y-79341166D01*
X107884430Y-79341166D02*
X107851097Y-79374500D01*
D11*
X114821601Y-74594800D02*
X114728744Y-74625752D01*
X114728744Y-74625752D02*
X114573982Y-74625752D01*
X114573982Y-74625752D02*
X114512077Y-74594800D01*
X114512077Y-74594800D02*
X114481125Y-74563847D01*
X114481125Y-74563847D02*
X114450172Y-74501942D01*
X114450172Y-74501942D02*
X114450172Y-74440038D01*
X114450172Y-74440038D02*
X114481125Y-74378133D01*
X114481125Y-74378133D02*
X114512077Y-74347180D01*
X114512077Y-74347180D02*
X114573982Y-74316228D01*
X114573982Y-74316228D02*
X114697791Y-74285276D01*
X114697791Y-74285276D02*
X114759696Y-74254323D01*
X114759696Y-74254323D02*
X114790649Y-74223371D01*
X114790649Y-74223371D02*
X114821601Y-74161466D01*
X114821601Y-74161466D02*
X114821601Y-74099561D01*
X114821601Y-74099561D02*
X114790649Y-74037657D01*
X114790649Y-74037657D02*
X114759696Y-74006704D01*
X114759696Y-74006704D02*
X114697791Y-73975752D01*
X114697791Y-73975752D02*
X114543030Y-73975752D01*
X114543030Y-73975752D02*
X114450172Y-74006704D01*
X113831124Y-74006704D02*
X113893029Y-73975752D01*
X113893029Y-73975752D02*
X113985886Y-73975752D01*
X113985886Y-73975752D02*
X114078743Y-74006704D01*
X114078743Y-74006704D02*
X114140648Y-74068609D01*
X114140648Y-74068609D02*
X114171601Y-74130514D01*
X114171601Y-74130514D02*
X114202553Y-74254323D01*
X114202553Y-74254323D02*
X114202553Y-74347180D01*
X114202553Y-74347180D02*
X114171601Y-74470990D01*
X114171601Y-74470990D02*
X114140648Y-74532895D01*
X114140648Y-74532895D02*
X114078743Y-74594800D01*
X114078743Y-74594800D02*
X113985886Y-74625752D01*
X113985886Y-74625752D02*
X113923982Y-74625752D01*
X113923982Y-74625752D02*
X113831124Y-74594800D01*
X113831124Y-74594800D02*
X113800172Y-74563847D01*
X113800172Y-74563847D02*
X113800172Y-74347180D01*
X113800172Y-74347180D02*
X113923982Y-74347180D01*
X113057315Y-73944800D02*
X113614458Y-74780514D01*
X112840649Y-74625752D02*
X112840649Y-73975752D01*
X112840649Y-73975752D02*
X112623982Y-74440038D01*
X112623982Y-74440038D02*
X112407315Y-73975752D01*
X112407315Y-73975752D02*
X112407315Y-74625752D01*
X112097792Y-74625752D02*
X112097792Y-73975752D01*
X112097792Y-73975752D02*
X111943030Y-73975752D01*
X111943030Y-73975752D02*
X111850173Y-74006704D01*
X111850173Y-74006704D02*
X111788268Y-74068609D01*
X111788268Y-74068609D02*
X111757315Y-74130514D01*
X111757315Y-74130514D02*
X111726363Y-74254323D01*
X111726363Y-74254323D02*
X111726363Y-74347180D01*
X111726363Y-74347180D02*
X111757315Y-74470990D01*
X111757315Y-74470990D02*
X111788268Y-74532895D01*
X111788268Y-74532895D02*
X111850173Y-74594800D01*
X111850173Y-74594800D02*
X111943030Y-74625752D01*
X111943030Y-74625752D02*
X112097792Y-74625752D01*
X114790649Y-75672252D02*
X114790649Y-75022252D01*
X114790649Y-75022252D02*
X114573982Y-75486538D01*
X114573982Y-75486538D02*
X114357315Y-75022252D01*
X114357315Y-75022252D02*
X114357315Y-75672252D01*
X113954934Y-75672252D02*
X114016839Y-75641300D01*
X114016839Y-75641300D02*
X114047792Y-75610347D01*
X114047792Y-75610347D02*
X114078744Y-75548442D01*
X114078744Y-75548442D02*
X114078744Y-75362728D01*
X114078744Y-75362728D02*
X114047792Y-75300823D01*
X114047792Y-75300823D02*
X114016839Y-75269871D01*
X114016839Y-75269871D02*
X113954934Y-75238919D01*
X113954934Y-75238919D02*
X113862077Y-75238919D01*
X113862077Y-75238919D02*
X113800173Y-75269871D01*
X113800173Y-75269871D02*
X113769220Y-75300823D01*
X113769220Y-75300823D02*
X113738268Y-75362728D01*
X113738268Y-75362728D02*
X113738268Y-75548442D01*
X113738268Y-75548442D02*
X113769220Y-75610347D01*
X113769220Y-75610347D02*
X113800173Y-75641300D01*
X113800173Y-75641300D02*
X113862077Y-75672252D01*
X113862077Y-75672252D02*
X113954934Y-75672252D01*
X113181125Y-75672252D02*
X113181125Y-75022252D01*
X113181125Y-75641300D02*
X113243030Y-75672252D01*
X113243030Y-75672252D02*
X113366839Y-75672252D01*
X113366839Y-75672252D02*
X113428744Y-75641300D01*
X113428744Y-75641300D02*
X113459697Y-75610347D01*
X113459697Y-75610347D02*
X113490649Y-75548442D01*
X113490649Y-75548442D02*
X113490649Y-75362728D01*
X113490649Y-75362728D02*
X113459697Y-75300823D01*
X113459697Y-75300823D02*
X113428744Y-75269871D01*
X113428744Y-75269871D02*
X113366839Y-75238919D01*
X113366839Y-75238919D02*
X113243030Y-75238919D01*
X113243030Y-75238919D02*
X113181125Y-75269871D01*
X112623983Y-75641300D02*
X112685887Y-75672252D01*
X112685887Y-75672252D02*
X112809697Y-75672252D01*
X112809697Y-75672252D02*
X112871602Y-75641300D01*
X112871602Y-75641300D02*
X112902554Y-75579395D01*
X112902554Y-75579395D02*
X112902554Y-75331776D01*
X112902554Y-75331776D02*
X112871602Y-75269871D01*
X112871602Y-75269871D02*
X112809697Y-75238919D01*
X112809697Y-75238919D02*
X112685887Y-75238919D01*
X112685887Y-75238919D02*
X112623983Y-75269871D01*
X112623983Y-75269871D02*
X112593030Y-75331776D01*
X112593030Y-75331776D02*
X112593030Y-75393680D01*
X112593030Y-75393680D02*
X112902554Y-75455585D01*
X112221601Y-75672252D02*
X112283506Y-75641300D01*
X112283506Y-75641300D02*
X112314459Y-75579395D01*
X112314459Y-75579395D02*
X112314459Y-75022252D01*
X111509697Y-75084157D02*
X111478745Y-75053204D01*
X111478745Y-75053204D02*
X111416840Y-75022252D01*
X111416840Y-75022252D02*
X111262078Y-75022252D01*
X111262078Y-75022252D02*
X111200173Y-75053204D01*
X111200173Y-75053204D02*
X111169221Y-75084157D01*
X111169221Y-75084157D02*
X111138268Y-75146061D01*
X111138268Y-75146061D02*
X111138268Y-75207966D01*
X111138268Y-75207966D02*
X111169221Y-75300823D01*
X111169221Y-75300823D02*
X111540649Y-75672252D01*
X111540649Y-75672252D02*
X111138268Y-75672252D01*
X109838268Y-75672252D02*
X109869221Y-75672252D01*
X109869221Y-75672252D02*
X109931125Y-75641300D01*
X109931125Y-75641300D02*
X110023982Y-75548442D01*
X110023982Y-75548442D02*
X110178744Y-75362728D01*
X110178744Y-75362728D02*
X110240649Y-75269871D01*
X110240649Y-75269871D02*
X110271601Y-75177014D01*
X110271601Y-75177014D02*
X110271601Y-75115109D01*
X110271601Y-75115109D02*
X110240649Y-75053204D01*
X110240649Y-75053204D02*
X110178744Y-75022252D01*
X110178744Y-75022252D02*
X110147792Y-75022252D01*
X110147792Y-75022252D02*
X110085887Y-75053204D01*
X110085887Y-75053204D02*
X110054935Y-75115109D01*
X110054935Y-75115109D02*
X110054935Y-75146061D01*
X110054935Y-75146061D02*
X110085887Y-75207966D01*
X110085887Y-75207966D02*
X110116840Y-75238919D01*
X110116840Y-75238919D02*
X110302554Y-75362728D01*
X110302554Y-75362728D02*
X110333506Y-75393680D01*
X110333506Y-75393680D02*
X110364459Y-75455585D01*
X110364459Y-75455585D02*
X110364459Y-75548442D01*
X110364459Y-75548442D02*
X110333506Y-75610347D01*
X110333506Y-75610347D02*
X110302554Y-75641300D01*
X110302554Y-75641300D02*
X110240649Y-75672252D01*
X110240649Y-75672252D02*
X110147792Y-75672252D01*
X110147792Y-75672252D02*
X110085887Y-75641300D01*
X110085887Y-75641300D02*
X110054935Y-75610347D01*
X110054935Y-75610347D02*
X109962078Y-75486538D01*
X109962078Y-75486538D02*
X109931125Y-75393680D01*
X109931125Y-75393680D02*
X109931125Y-75331776D01*
X109126363Y-75022252D02*
X108723982Y-75022252D01*
X108723982Y-75022252D02*
X108940649Y-75269871D01*
X108940649Y-75269871D02*
X108847792Y-75269871D01*
X108847792Y-75269871D02*
X108785887Y-75300823D01*
X108785887Y-75300823D02*
X108754935Y-75331776D01*
X108754935Y-75331776D02*
X108723982Y-75393680D01*
X108723982Y-75393680D02*
X108723982Y-75548442D01*
X108723982Y-75548442D02*
X108754935Y-75610347D01*
X108754935Y-75610347D02*
X108785887Y-75641300D01*
X108785887Y-75641300D02*
X108847792Y-75672252D01*
X108847792Y-75672252D02*
X109033506Y-75672252D01*
X109033506Y-75672252D02*
X109095411Y-75641300D01*
X109095411Y-75641300D02*
X109126363Y-75610347D01*
X114821601Y-76687800D02*
X114728744Y-76718752D01*
X114728744Y-76718752D02*
X114573982Y-76718752D01*
X114573982Y-76718752D02*
X114512077Y-76687800D01*
X114512077Y-76687800D02*
X114481125Y-76656847D01*
X114481125Y-76656847D02*
X114450172Y-76594942D01*
X114450172Y-76594942D02*
X114450172Y-76533038D01*
X114450172Y-76533038D02*
X114481125Y-76471133D01*
X114481125Y-76471133D02*
X114512077Y-76440180D01*
X114512077Y-76440180D02*
X114573982Y-76409228D01*
X114573982Y-76409228D02*
X114697791Y-76378276D01*
X114697791Y-76378276D02*
X114759696Y-76347323D01*
X114759696Y-76347323D02*
X114790649Y-76316371D01*
X114790649Y-76316371D02*
X114821601Y-76254466D01*
X114821601Y-76254466D02*
X114821601Y-76192561D01*
X114821601Y-76192561D02*
X114790649Y-76130657D01*
X114790649Y-76130657D02*
X114759696Y-76099704D01*
X114759696Y-76099704D02*
X114697791Y-76068752D01*
X114697791Y-76068752D02*
X114543030Y-76068752D01*
X114543030Y-76068752D02*
X114450172Y-76099704D01*
X114171601Y-76471133D02*
X113676363Y-76471133D01*
X113459696Y-76068752D02*
X113243029Y-76718752D01*
X113243029Y-76718752D02*
X113026362Y-76068752D01*
X112809696Y-76718752D02*
X112809696Y-76285419D01*
X112809696Y-76068752D02*
X112840648Y-76099704D01*
X112840648Y-76099704D02*
X112809696Y-76130657D01*
X112809696Y-76130657D02*
X112778743Y-76099704D01*
X112778743Y-76099704D02*
X112809696Y-76068752D01*
X112809696Y-76068752D02*
X112809696Y-76130657D01*
X112221600Y-76718752D02*
X112221600Y-76068752D01*
X112221600Y-76687800D02*
X112283505Y-76718752D01*
X112283505Y-76718752D02*
X112407314Y-76718752D01*
X112407314Y-76718752D02*
X112469219Y-76687800D01*
X112469219Y-76687800D02*
X112500172Y-76656847D01*
X112500172Y-76656847D02*
X112531124Y-76594942D01*
X112531124Y-76594942D02*
X112531124Y-76409228D01*
X112531124Y-76409228D02*
X112500172Y-76347323D01*
X112500172Y-76347323D02*
X112469219Y-76316371D01*
X112469219Y-76316371D02*
X112407314Y-76285419D01*
X112407314Y-76285419D02*
X112283505Y-76285419D01*
X112283505Y-76285419D02*
X112221600Y-76316371D01*
X111664458Y-76687800D02*
X111726362Y-76718752D01*
X111726362Y-76718752D02*
X111850172Y-76718752D01*
X111850172Y-76718752D02*
X111912077Y-76687800D01*
X111912077Y-76687800D02*
X111943029Y-76625895D01*
X111943029Y-76625895D02*
X111943029Y-76378276D01*
X111943029Y-76378276D02*
X111912077Y-76316371D01*
X111912077Y-76316371D02*
X111850172Y-76285419D01*
X111850172Y-76285419D02*
X111726362Y-76285419D01*
X111726362Y-76285419D02*
X111664458Y-76316371D01*
X111664458Y-76316371D02*
X111633505Y-76378276D01*
X111633505Y-76378276D02*
X111633505Y-76440180D01*
X111633505Y-76440180D02*
X111943029Y-76502085D01*
X111262076Y-76718752D02*
X111323981Y-76687800D01*
X111323981Y-76687800D02*
X111354934Y-76656847D01*
X111354934Y-76656847D02*
X111385886Y-76594942D01*
X111385886Y-76594942D02*
X111385886Y-76409228D01*
X111385886Y-76409228D02*
X111354934Y-76347323D01*
X111354934Y-76347323D02*
X111323981Y-76316371D01*
X111323981Y-76316371D02*
X111262076Y-76285419D01*
X111262076Y-76285419D02*
X111169219Y-76285419D01*
X111169219Y-76285419D02*
X111107315Y-76316371D01*
X111107315Y-76316371D02*
X111076362Y-76347323D01*
X111076362Y-76347323D02*
X111045410Y-76409228D01*
X111045410Y-76409228D02*
X111045410Y-76594942D01*
X111045410Y-76594942D02*
X111076362Y-76656847D01*
X111076362Y-76656847D02*
X111107315Y-76687800D01*
X111107315Y-76687800D02*
X111169219Y-76718752D01*
X111169219Y-76718752D02*
X111262076Y-76718752D01*
X114573982Y-77424776D02*
X114481125Y-77455728D01*
X114481125Y-77455728D02*
X114450172Y-77486680D01*
X114450172Y-77486680D02*
X114419220Y-77548585D01*
X114419220Y-77548585D02*
X114419220Y-77641442D01*
X114419220Y-77641442D02*
X114450172Y-77703347D01*
X114450172Y-77703347D02*
X114481125Y-77734300D01*
X114481125Y-77734300D02*
X114543030Y-77765252D01*
X114543030Y-77765252D02*
X114790649Y-77765252D01*
X114790649Y-77765252D02*
X114790649Y-77115252D01*
X114790649Y-77115252D02*
X114573982Y-77115252D01*
X114573982Y-77115252D02*
X114512077Y-77146204D01*
X114512077Y-77146204D02*
X114481125Y-77177157D01*
X114481125Y-77177157D02*
X114450172Y-77239061D01*
X114450172Y-77239061D02*
X114450172Y-77300966D01*
X114450172Y-77300966D02*
X114481125Y-77362871D01*
X114481125Y-77362871D02*
X114512077Y-77393823D01*
X114512077Y-77393823D02*
X114573982Y-77424776D01*
X114573982Y-77424776D02*
X114790649Y-77424776D01*
X114202553Y-77331919D02*
X114047791Y-77765252D01*
X113893030Y-77331919D02*
X114047791Y-77765252D01*
X114047791Y-77765252D02*
X114109696Y-77920014D01*
X114109696Y-77920014D02*
X114140649Y-77950966D01*
X114140649Y-77950966D02*
X114202553Y-77981919D01*
X113150173Y-77331919D02*
X113150173Y-77889061D01*
X113150173Y-77889061D02*
X113181125Y-77950966D01*
X113181125Y-77950966D02*
X113243030Y-77981919D01*
X113243030Y-77981919D02*
X113273982Y-77981919D01*
X113150173Y-77115252D02*
X113181125Y-77146204D01*
X113181125Y-77146204D02*
X113150173Y-77177157D01*
X113150173Y-77177157D02*
X113119220Y-77146204D01*
X113119220Y-77146204D02*
X113150173Y-77115252D01*
X113150173Y-77115252D02*
X113150173Y-77177157D01*
X112747791Y-77765252D02*
X112809696Y-77734300D01*
X112809696Y-77734300D02*
X112840649Y-77703347D01*
X112840649Y-77703347D02*
X112871601Y-77641442D01*
X112871601Y-77641442D02*
X112871601Y-77455728D01*
X112871601Y-77455728D02*
X112840649Y-77393823D01*
X112840649Y-77393823D02*
X112809696Y-77362871D01*
X112809696Y-77362871D02*
X112747791Y-77331919D01*
X112747791Y-77331919D02*
X112654934Y-77331919D01*
X112654934Y-77331919D02*
X112593030Y-77362871D01*
X112593030Y-77362871D02*
X112562077Y-77393823D01*
X112562077Y-77393823D02*
X112531125Y-77455728D01*
X112531125Y-77455728D02*
X112531125Y-77641442D01*
X112531125Y-77641442D02*
X112562077Y-77703347D01*
X112562077Y-77703347D02*
X112593030Y-77734300D01*
X112593030Y-77734300D02*
X112654934Y-77765252D01*
X112654934Y-77765252D02*
X112747791Y-77765252D01*
X112283506Y-77734300D02*
X112221601Y-77765252D01*
X112221601Y-77765252D02*
X112097792Y-77765252D01*
X112097792Y-77765252D02*
X112035887Y-77734300D01*
X112035887Y-77734300D02*
X112004935Y-77672395D01*
X112004935Y-77672395D02*
X112004935Y-77641442D01*
X112004935Y-77641442D02*
X112035887Y-77579538D01*
X112035887Y-77579538D02*
X112097792Y-77548585D01*
X112097792Y-77548585D02*
X112190649Y-77548585D01*
X112190649Y-77548585D02*
X112252554Y-77517633D01*
X112252554Y-77517633D02*
X112283506Y-77455728D01*
X112283506Y-77455728D02*
X112283506Y-77424776D01*
X112283506Y-77424776D02*
X112252554Y-77362871D01*
X112252554Y-77362871D02*
X112190649Y-77331919D01*
X112190649Y-77331919D02*
X112097792Y-77331919D01*
X112097792Y-77331919D02*
X112035887Y-77362871D01*
X111726364Y-77765252D02*
X111726364Y-77115252D01*
X111447792Y-77765252D02*
X111447792Y-77424776D01*
X111447792Y-77424776D02*
X111478745Y-77362871D01*
X111478745Y-77362871D02*
X111540649Y-77331919D01*
X111540649Y-77331919D02*
X111633506Y-77331919D01*
X111633506Y-77331919D02*
X111695411Y-77362871D01*
X111695411Y-77362871D02*
X111726364Y-77393823D01*
X111138269Y-77765252D02*
X111138269Y-77331919D01*
X111138269Y-77393823D02*
X111107316Y-77362871D01*
X111107316Y-77362871D02*
X111045411Y-77331919D01*
X111045411Y-77331919D02*
X110952554Y-77331919D01*
X110952554Y-77331919D02*
X110890650Y-77362871D01*
X110890650Y-77362871D02*
X110859697Y-77424776D01*
X110859697Y-77424776D02*
X110859697Y-77765252D01*
X110859697Y-77424776D02*
X110828745Y-77362871D01*
X110828745Y-77362871D02*
X110766840Y-77331919D01*
X110766840Y-77331919D02*
X110673983Y-77331919D01*
X110673983Y-77331919D02*
X110612078Y-77362871D01*
X110612078Y-77362871D02*
X110581126Y-77424776D01*
X110581126Y-77424776D02*
X110581126Y-77765252D01*
X109993030Y-77765252D02*
X109993030Y-77424776D01*
X109993030Y-77424776D02*
X110023983Y-77362871D01*
X110023983Y-77362871D02*
X110085887Y-77331919D01*
X110085887Y-77331919D02*
X110209697Y-77331919D01*
X110209697Y-77331919D02*
X110271602Y-77362871D01*
X109993030Y-77734300D02*
X110054935Y-77765252D01*
X110054935Y-77765252D02*
X110209697Y-77765252D01*
X110209697Y-77765252D02*
X110271602Y-77734300D01*
X110271602Y-77734300D02*
X110302554Y-77672395D01*
X110302554Y-77672395D02*
X110302554Y-77610490D01*
X110302554Y-77610490D02*
X110271602Y-77548585D01*
X110271602Y-77548585D02*
X110209697Y-77517633D01*
X110209697Y-77517633D02*
X110054935Y-77517633D01*
X110054935Y-77517633D02*
X109993030Y-77486680D01*
X109683507Y-77331919D02*
X109683507Y-77765252D01*
X109683507Y-77393823D02*
X109652554Y-77362871D01*
X109652554Y-77362871D02*
X109590649Y-77331919D01*
X109590649Y-77331919D02*
X109497792Y-77331919D01*
X109497792Y-77331919D02*
X109435888Y-77362871D01*
X109435888Y-77362871D02*
X109404935Y-77424776D01*
X109404935Y-77424776D02*
X109404935Y-77765252D01*
X108754935Y-77765252D02*
X109126364Y-77765252D01*
X108940650Y-77765252D02*
X108940650Y-77115252D01*
X108940650Y-77115252D02*
X109002554Y-77208109D01*
X109002554Y-77208109D02*
X109064459Y-77270014D01*
X109064459Y-77270014D02*
X109126364Y-77300966D01*
X108445411Y-77765252D02*
X108321602Y-77765252D01*
X108321602Y-77765252D02*
X108259697Y-77734300D01*
X108259697Y-77734300D02*
X108228745Y-77703347D01*
X108228745Y-77703347D02*
X108166840Y-77610490D01*
X108166840Y-77610490D02*
X108135887Y-77486680D01*
X108135887Y-77486680D02*
X108135887Y-77239061D01*
X108135887Y-77239061D02*
X108166840Y-77177157D01*
X108166840Y-77177157D02*
X108197792Y-77146204D01*
X108197792Y-77146204D02*
X108259697Y-77115252D01*
X108259697Y-77115252D02*
X108383506Y-77115252D01*
X108383506Y-77115252D02*
X108445411Y-77146204D01*
X108445411Y-77146204D02*
X108476364Y-77177157D01*
X108476364Y-77177157D02*
X108507316Y-77239061D01*
X108507316Y-77239061D02*
X108507316Y-77393823D01*
X108507316Y-77393823D02*
X108476364Y-77455728D01*
X108476364Y-77455728D02*
X108445411Y-77486680D01*
X108445411Y-77486680D02*
X108383506Y-77517633D01*
X108383506Y-77517633D02*
X108259697Y-77517633D01*
X108259697Y-77517633D02*
X108197792Y-77486680D01*
X108197792Y-77486680D02*
X108166840Y-77455728D01*
X108166840Y-77455728D02*
X108135887Y-77393823D01*
X107578744Y-77115252D02*
X107702554Y-77115252D01*
X107702554Y-77115252D02*
X107764458Y-77146204D01*
X107764458Y-77146204D02*
X107795411Y-77177157D01*
X107795411Y-77177157D02*
X107857316Y-77270014D01*
X107857316Y-77270014D02*
X107888268Y-77393823D01*
X107888268Y-77393823D02*
X107888268Y-77641442D01*
X107888268Y-77641442D02*
X107857316Y-77703347D01*
X107857316Y-77703347D02*
X107826363Y-77734300D01*
X107826363Y-77734300D02*
X107764458Y-77765252D01*
X107764458Y-77765252D02*
X107640649Y-77765252D01*
X107640649Y-77765252D02*
X107578744Y-77734300D01*
X107578744Y-77734300D02*
X107547792Y-77703347D01*
X107547792Y-77703347D02*
X107516839Y-77641442D01*
X107516839Y-77641442D02*
X107516839Y-77486680D01*
X107516839Y-77486680D02*
X107547792Y-77424776D01*
X107547792Y-77424776D02*
X107578744Y-77393823D01*
X107578744Y-77393823D02*
X107640649Y-77362871D01*
X107640649Y-77362871D02*
X107764458Y-77362871D01*
X107764458Y-77362871D02*
X107826363Y-77393823D01*
X107826363Y-77393823D02*
X107857316Y-77424776D01*
X107857316Y-77424776D02*
X107888268Y-77486680D01*
M02*
