%TF.GenerationSoftware,KiCad,Pcbnew,7.0.7*%
%TF.CreationDate,2023-08-18T23:19:12-07:00*%
%TF.ProjectId,sg_model2-3_s-video_supernano,73675f6d-6f64-4656-9c32-2d335f732d76,rev?*%
%TF.SameCoordinates,Original*%
%TF.FileFunction,Copper,L1,Top*%
%TF.FilePolarity,Positive*%
%FSLAX46Y46*%
G04 Gerber Fmt 4.6, Leading zero omitted, Abs format (unit mm)*
G04 Created by KiCad (PCBNEW 7.0.7) date 2023-08-18 23:19:12*
%MOMM*%
%LPD*%
G01*
G04 APERTURE LIST*
G04 Aperture macros list*
%AMRoundRect*
0 Rectangle with rounded corners*
0 $1 Rounding radius*
0 $2 $3 $4 $5 $6 $7 $8 $9 X,Y pos of 4 corners*
0 Add a 4 corners polygon primitive as box body*
4,1,4,$2,$3,$4,$5,$6,$7,$8,$9,$2,$3,0*
0 Add four circle primitives for the rounded corners*
1,1,$1+$1,$2,$3*
1,1,$1+$1,$4,$5*
1,1,$1+$1,$6,$7*
1,1,$1+$1,$8,$9*
0 Add four rect primitives between the rounded corners*
20,1,$1+$1,$2,$3,$4,$5,0*
20,1,$1+$1,$4,$5,$6,$7,0*
20,1,$1+$1,$6,$7,$8,$9,0*
20,1,$1+$1,$8,$9,$2,$3,0*%
G04 Aperture macros list end*
%TA.AperFunction,SMDPad,CuDef*%
%ADD10RoundRect,0.250000X-0.250000X-0.750000X0.250000X-0.750000X0.250000X0.750000X-0.250000X0.750000X0*%
%TD*%
%TA.AperFunction,SMDPad,CuDef*%
%ADD11RoundRect,0.250000X0.750000X-0.250000X0.750000X0.250000X-0.750000X0.250000X-0.750000X-0.250000X0*%
%TD*%
%TA.AperFunction,SMDPad,CuDef*%
%ADD12RoundRect,0.250000X-0.750000X0.250000X-0.750000X-0.250000X0.750000X-0.250000X0.750000X0.250000X0*%
%TD*%
%TA.AperFunction,SMDPad,CuDef*%
%ADD13RoundRect,0.250000X-0.262500X-0.450000X0.262500X-0.450000X0.262500X0.450000X-0.262500X0.450000X0*%
%TD*%
%TA.AperFunction,SMDPad,CuDef*%
%ADD14RoundRect,0.250000X-0.412500X-0.925000X0.412500X-0.925000X0.412500X0.925000X-0.412500X0.925000X0*%
%TD*%
%TA.AperFunction,ViaPad*%
%ADD15C,0.800000*%
%TD*%
%TA.AperFunction,Conductor*%
%ADD16C,0.650000*%
%TD*%
G04 APERTURE END LIST*
D10*
%TO.P,J3,1,Pin_1*%
%TO.N,Net-(J3-Pin_1)*%
X114508600Y-74050600D03*
%TD*%
D11*
%TO.P,J2,1,Pin_1*%
%TO.N,Net-(J2-Pin_1)*%
X106680000Y-79679800D03*
%TD*%
%TO.P,J1,1,Pin_1*%
%TO.N,Net-(J1-Pin_1)*%
X106680000Y-73279000D03*
%TD*%
D12*
%TO.P,J5,1,Pin_1*%
%TO.N,GND*%
X114020000Y-76500000D03*
%TD*%
D13*
%TO.P,R2,1*%
%TO.N,Net-(J2-Pin_1)*%
X106324400Y-78079600D03*
%TO.P,R2,2*%
%TO.N,Net-(C2-Pad1)*%
X108149400Y-78079600D03*
%TD*%
D14*
%TO.P,C1,1*%
%TO.N,Net-(C1-Pad1)*%
X109866900Y-74218800D03*
%TO.P,C1,2*%
%TO.N,Net-(J3-Pin_1)*%
X112941900Y-74218800D03*
%TD*%
D10*
%TO.P,J4,1,Pin_1*%
%TO.N,Net-(J4-Pin_1)*%
X114528600Y-78968600D03*
%TD*%
D14*
%TO.P,C2,1*%
%TO.N,Net-(C2-Pad1)*%
X109853400Y-78790800D03*
%TO.P,C2,2*%
%TO.N,Net-(J4-Pin_1)*%
X112928400Y-78790800D03*
%TD*%
D12*
%TO.P,J6,1,Pin_1*%
%TO.N,GND*%
X106680000Y-76490000D03*
%TD*%
D13*
%TO.P,R1,1*%
%TO.N,Net-(J1-Pin_1)*%
X106324400Y-74879200D03*
%TO.P,R1,2*%
%TO.N,Net-(C1-Pad1)*%
X108149400Y-74879200D03*
%TD*%
D15*
%TO.N,GND*%
X111404400Y-79248000D03*
%TD*%
D16*
%TO.N,Net-(C1-Pad1)*%
X109206500Y-74879200D02*
X109866900Y-74218800D01*
X108149400Y-74879200D02*
X109206500Y-74879200D01*
%TO.N,Net-(J3-Pin_1)*%
X114340400Y-74218800D02*
X114508600Y-74050600D01*
X112941900Y-74218800D02*
X114340400Y-74218800D01*
%TO.N,Net-(C2-Pad1)*%
X108149400Y-78079600D02*
X109142200Y-78079600D01*
X109142200Y-78079600D02*
X109853400Y-78790800D01*
%TO.N,Net-(J4-Pin_1)*%
X114350800Y-78790800D02*
X114528600Y-78968600D01*
X114376200Y-78790800D02*
X114528600Y-78943200D01*
X112928400Y-78790800D02*
X114350800Y-78790800D01*
%TO.N,Net-(J1-Pin_1)*%
X106680000Y-73279000D02*
X106680000Y-74523600D01*
X106680000Y-74523600D02*
X106324400Y-74879200D01*
%TO.N,Net-(J2-Pin_1)*%
X106680000Y-78435200D02*
X106324400Y-78079600D01*
X106680000Y-79679800D02*
X106680000Y-78435200D01*
%TO.N,GND*%
X114010000Y-76490000D02*
X114020000Y-76500000D01*
X106680000Y-76490000D02*
X114010000Y-76490000D01*
%TD*%
%TA.AperFunction,Conductor*%
%TO.N,GND*%
G36*
X112139253Y-72841485D02*
G01*
X112185008Y-72894289D01*
X112194952Y-72963447D01*
X112171984Y-73019433D01*
X112126609Y-73080913D01*
X112126606Y-73080919D01*
X112081753Y-73209098D01*
X112081753Y-73209100D01*
X112078900Y-73239530D01*
X112078900Y-75198069D01*
X112081753Y-75228499D01*
X112081753Y-75228501D01*
X112126606Y-75356680D01*
X112126607Y-75356682D01*
X112207250Y-75465950D01*
X112316518Y-75546593D01*
X112359245Y-75561543D01*
X112444699Y-75591446D01*
X112475130Y-75594300D01*
X112571071Y-75594300D01*
X112638110Y-75613985D01*
X112683865Y-75666789D01*
X112693809Y-75735947D01*
X112676610Y-75783397D01*
X112585643Y-75930875D01*
X112585641Y-75930880D01*
X112530494Y-76097302D01*
X112530493Y-76097309D01*
X112520000Y-76200013D01*
X112520000Y-76250000D01*
X113770000Y-76250000D01*
X113770000Y-75494365D01*
X113743292Y-75445454D01*
X113748276Y-75375762D01*
X113754830Y-75361150D01*
X113757183Y-75356694D01*
X113757193Y-75356682D01*
X113802046Y-75228499D01*
X113802045Y-75228499D01*
X113803549Y-75224204D01*
X113844270Y-75167428D01*
X113909223Y-75141681D01*
X113977785Y-75155137D01*
X113994221Y-75165387D01*
X114045718Y-75203393D01*
X114088445Y-75218344D01*
X114173899Y-75248246D01*
X114204330Y-75251100D01*
X114204334Y-75251100D01*
X114812869Y-75251100D01*
X114850222Y-75247597D01*
X114918807Y-75260936D01*
X114969292Y-75309237D01*
X114985800Y-75371055D01*
X114985800Y-75379626D01*
X114966115Y-75446665D01*
X114913311Y-75492420D01*
X114849201Y-75502984D01*
X114819996Y-75500001D01*
X114819974Y-75500000D01*
X114269999Y-75500000D01*
X114270000Y-76250000D01*
X114269999Y-77499998D01*
X114270000Y-77499999D01*
X114819972Y-77499999D01*
X114819984Y-77499998D01*
X114849196Y-77497014D01*
X114917889Y-77509783D01*
X114968774Y-77557664D01*
X114985799Y-77620372D01*
X114985799Y-77646269D01*
X114966114Y-77713308D01*
X114913310Y-77759063D01*
X114850223Y-77769727D01*
X114832871Y-77768100D01*
X114832866Y-77768100D01*
X114224334Y-77768100D01*
X114224330Y-77768100D01*
X114193900Y-77770953D01*
X114193898Y-77770953D01*
X114065719Y-77815806D01*
X114065718Y-77815807D01*
X113986129Y-77874546D01*
X113920500Y-77898516D01*
X113852330Y-77883200D01*
X113803262Y-77833460D01*
X113789037Y-77786345D01*
X113788546Y-77781101D01*
X113788545Y-77781098D01*
X113788545Y-77781096D01*
X113764824Y-77713308D01*
X113743693Y-77652918D01*
X113743685Y-77652907D01*
X113742677Y-77650999D01*
X113742199Y-77648649D01*
X113740624Y-77644148D01*
X113741239Y-77643932D01*
X113728753Y-77582530D01*
X113754056Y-77517403D01*
X113764626Y-77505372D01*
X113770000Y-77499998D01*
X113770000Y-76750000D01*
X112520001Y-76750000D01*
X112520001Y-76799986D01*
X112530494Y-76902697D01*
X112585641Y-77069119D01*
X112585643Y-77069124D01*
X112681475Y-77224491D01*
X112679196Y-77225896D01*
X112700695Y-77279172D01*
X112687662Y-77347816D01*
X112639586Y-77398516D01*
X112577290Y-77415300D01*
X112461630Y-77415300D01*
X112431200Y-77418153D01*
X112431198Y-77418153D01*
X112303019Y-77463006D01*
X112303017Y-77463007D01*
X112193750Y-77543650D01*
X112113107Y-77652917D01*
X112113106Y-77652919D01*
X112068253Y-77781098D01*
X112068253Y-77781100D01*
X112065400Y-77811530D01*
X112065400Y-79770069D01*
X112068253Y-79800499D01*
X112068253Y-79800501D01*
X112113106Y-79928680D01*
X112113109Y-79928685D01*
X112120993Y-79939368D01*
X112144963Y-80004997D01*
X112129647Y-80073167D01*
X112079906Y-80122235D01*
X112021222Y-80137000D01*
X110760578Y-80137000D01*
X110693539Y-80117315D01*
X110647784Y-80064511D01*
X110637840Y-79995353D01*
X110660807Y-79939368D01*
X110664162Y-79934820D01*
X110668693Y-79928682D01*
X110691119Y-79864590D01*
X110713546Y-79800501D01*
X110713546Y-79800499D01*
X110716400Y-79770069D01*
X110716400Y-77811530D01*
X110713546Y-77781100D01*
X110713546Y-77781098D01*
X110679906Y-77684963D01*
X110668693Y-77652918D01*
X110588050Y-77543650D01*
X110478782Y-77463007D01*
X110478780Y-77463006D01*
X110350600Y-77418153D01*
X110320170Y-77415300D01*
X110320166Y-77415300D01*
X109386634Y-77415300D01*
X109386630Y-77415300D01*
X109356200Y-77418153D01*
X109356198Y-77418153D01*
X109228019Y-77463006D01*
X109228018Y-77463007D01*
X109137420Y-77529871D01*
X109071791Y-77553841D01*
X109063787Y-77554100D01*
X108950747Y-77554100D01*
X108883708Y-77534415D01*
X108837953Y-77481611D01*
X108833712Y-77471071D01*
X108814693Y-77416718D01*
X108734050Y-77307450D01*
X108624782Y-77226807D01*
X108624780Y-77226806D01*
X108496600Y-77181953D01*
X108466170Y-77179100D01*
X108466166Y-77179100D01*
X108246321Y-77179100D01*
X108179282Y-77159415D01*
X108133527Y-77106611D01*
X108123583Y-77037453D01*
X108128615Y-77016096D01*
X108169505Y-76892697D01*
X108169506Y-76892690D01*
X108179999Y-76789986D01*
X108180000Y-76789973D01*
X108180000Y-76740000D01*
X106554000Y-76740000D01*
X106486961Y-76720315D01*
X106441206Y-76667511D01*
X106430000Y-76616000D01*
X106430000Y-76364000D01*
X106449685Y-76296961D01*
X106502489Y-76251206D01*
X106554000Y-76240000D01*
X108179999Y-76240000D01*
X108179999Y-76190028D01*
X108179998Y-76190013D01*
X108169505Y-76087302D01*
X108121590Y-75942704D01*
X108119188Y-75872876D01*
X108154920Y-75812834D01*
X108217440Y-75781641D01*
X108239296Y-75779700D01*
X108466170Y-75779700D01*
X108496599Y-75776846D01*
X108496601Y-75776846D01*
X108560690Y-75754419D01*
X108624782Y-75731993D01*
X108734050Y-75651350D01*
X108814693Y-75542082D01*
X108833706Y-75487743D01*
X108874427Y-75430969D01*
X108939380Y-75405222D01*
X108950747Y-75404700D01*
X109024448Y-75404700D01*
X109091487Y-75424385D01*
X109124216Y-75455064D01*
X109132250Y-75465950D01*
X109241518Y-75546593D01*
X109284245Y-75561544D01*
X109369699Y-75591446D01*
X109400130Y-75594300D01*
X109400134Y-75594300D01*
X110333670Y-75594300D01*
X110364099Y-75591446D01*
X110364101Y-75591446D01*
X110428190Y-75569019D01*
X110492282Y-75546593D01*
X110601550Y-75465950D01*
X110682193Y-75356682D01*
X110719138Y-75251100D01*
X110727046Y-75228501D01*
X110727046Y-75228499D01*
X110729900Y-75198069D01*
X110729900Y-73239530D01*
X110727046Y-73209100D01*
X110727046Y-73209098D01*
X110682193Y-73080919D01*
X110682190Y-73080913D01*
X110636816Y-73019433D01*
X110612845Y-72953804D01*
X110628161Y-72885634D01*
X110677901Y-72836566D01*
X110736586Y-72821800D01*
X112072214Y-72821800D01*
X112139253Y-72841485D01*
G37*
%TD.AperFunction*%
%TD*%
M02*
