%TF.GenerationSoftware,KiCad,Pcbnew,7.0.7*%
%TF.CreationDate,2023-08-18T23:19:12-07:00*%
%TF.ProjectId,sg_model2-3_s-video_supernano,73675f6d-6f64-4656-9c32-2d335f732d76,rev?*%
%TF.SameCoordinates,Original*%
%TF.FileFunction,Legend,Top*%
%TF.FilePolarity,Positive*%
%FSLAX46Y46*%
G04 Gerber Fmt 4.6, Leading zero omitted, Abs format (unit mm)*
G04 Created by KiCad (PCBNEW 7.0.7) date 2023-08-18 23:19:12*
%MOMM*%
%LPD*%
G01*
G04 APERTURE LIST*
%ADD10C,0.150000*%
%ADD11C,0.100000*%
%ADD12C,0.075000*%
%ADD13C,0.125000*%
%ADD14C,0.080000*%
G04 APERTURE END LIST*
D10*
X113842800Y-80137000D02*
X113842800Y-77139800D01*
X108864400Y-77114400D02*
X114960400Y-77114400D01*
X108864400Y-75844400D02*
X114960400Y-75844400D01*
X108864400Y-75844400D02*
X105714800Y-75844400D01*
X108864400Y-73914000D02*
X105714800Y-73914000D01*
X113817400Y-75844400D02*
X113817400Y-72847200D01*
X108864400Y-73914000D02*
X108864400Y-75844400D01*
X108864400Y-72847200D02*
X108864400Y-73914000D01*
X108864400Y-79044800D02*
X108864400Y-77114400D01*
X108864400Y-77114400D02*
X105714800Y-77114400D01*
X105714800Y-79044800D02*
X108864400Y-79044800D01*
X108864400Y-79044800D02*
X108864400Y-80111600D01*
D11*
X108015750Y-76323695D02*
X107977655Y-76304647D01*
X107977655Y-76304647D02*
X107920512Y-76304647D01*
X107920512Y-76304647D02*
X107863369Y-76323695D01*
X107863369Y-76323695D02*
X107825274Y-76361790D01*
X107825274Y-76361790D02*
X107806227Y-76399885D01*
X107806227Y-76399885D02*
X107787179Y-76476076D01*
X107787179Y-76476076D02*
X107787179Y-76533219D01*
X107787179Y-76533219D02*
X107806227Y-76609409D01*
X107806227Y-76609409D02*
X107825274Y-76647504D01*
X107825274Y-76647504D02*
X107863369Y-76685600D01*
X107863369Y-76685600D02*
X107920512Y-76704647D01*
X107920512Y-76704647D02*
X107958608Y-76704647D01*
X107958608Y-76704647D02*
X108015750Y-76685600D01*
X108015750Y-76685600D02*
X108034798Y-76666552D01*
X108034798Y-76666552D02*
X108034798Y-76533219D01*
X108034798Y-76533219D02*
X107958608Y-76533219D01*
X108206227Y-76704647D02*
X108206227Y-76304647D01*
X108206227Y-76304647D02*
X108434798Y-76704647D01*
X108434798Y-76704647D02*
X108434798Y-76304647D01*
X108625275Y-76704647D02*
X108625275Y-76304647D01*
X108625275Y-76304647D02*
X108720513Y-76304647D01*
X108720513Y-76304647D02*
X108777656Y-76323695D01*
X108777656Y-76323695D02*
X108815751Y-76361790D01*
X108815751Y-76361790D02*
X108834798Y-76399885D01*
X108834798Y-76399885D02*
X108853846Y-76476076D01*
X108853846Y-76476076D02*
X108853846Y-76533219D01*
X108853846Y-76533219D02*
X108834798Y-76609409D01*
X108834798Y-76609409D02*
X108815751Y-76647504D01*
X108815751Y-76647504D02*
X108777656Y-76685600D01*
X108777656Y-76685600D02*
X108720513Y-76704647D01*
X108720513Y-76704647D02*
X108625275Y-76704647D01*
D12*
X114089342Y-75356671D02*
X114089342Y-75547147D01*
X113972675Y-75147147D02*
X114089342Y-75356671D01*
X114089342Y-75356671D02*
X114206008Y-75147147D01*
X114322675Y-75394766D02*
X114589342Y-75394766D01*
X114822675Y-75147147D02*
X114889341Y-75147147D01*
X114889341Y-75147147D02*
X114922675Y-75166195D01*
X114922675Y-75166195D02*
X114956008Y-75204290D01*
X114956008Y-75204290D02*
X114972675Y-75280480D01*
X114972675Y-75280480D02*
X114972675Y-75413814D01*
X114972675Y-75413814D02*
X114956008Y-75490004D01*
X114956008Y-75490004D02*
X114922675Y-75528100D01*
X114922675Y-75528100D02*
X114889341Y-75547147D01*
X114889341Y-75547147D02*
X114822675Y-75547147D01*
X114822675Y-75547147D02*
X114789341Y-75528100D01*
X114789341Y-75528100D02*
X114756008Y-75490004D01*
X114756008Y-75490004D02*
X114739341Y-75413814D01*
X114739341Y-75413814D02*
X114739341Y-75280480D01*
X114739341Y-75280480D02*
X114756008Y-75204290D01*
X114756008Y-75204290D02*
X114789341Y-75166195D01*
X114789341Y-75166195D02*
X114822675Y-75147147D01*
X114192675Y-77810452D02*
X114176008Y-77829500D01*
X114176008Y-77829500D02*
X114126008Y-77848547D01*
X114126008Y-77848547D02*
X114092675Y-77848547D01*
X114092675Y-77848547D02*
X114042675Y-77829500D01*
X114042675Y-77829500D02*
X114009342Y-77791404D01*
X114009342Y-77791404D02*
X113992675Y-77753309D01*
X113992675Y-77753309D02*
X113976008Y-77677119D01*
X113976008Y-77677119D02*
X113976008Y-77619976D01*
X113976008Y-77619976D02*
X113992675Y-77543785D01*
X113992675Y-77543785D02*
X114009342Y-77505690D01*
X114009342Y-77505690D02*
X114042675Y-77467595D01*
X114042675Y-77467595D02*
X114092675Y-77448547D01*
X114092675Y-77448547D02*
X114126008Y-77448547D01*
X114126008Y-77448547D02*
X114176008Y-77467595D01*
X114176008Y-77467595D02*
X114192675Y-77486642D01*
X114342675Y-77696166D02*
X114609342Y-77696166D01*
X114842675Y-77448547D02*
X114909341Y-77448547D01*
X114909341Y-77448547D02*
X114942675Y-77467595D01*
X114942675Y-77467595D02*
X114976008Y-77505690D01*
X114976008Y-77505690D02*
X114992675Y-77581880D01*
X114992675Y-77581880D02*
X114992675Y-77715214D01*
X114992675Y-77715214D02*
X114976008Y-77791404D01*
X114976008Y-77791404D02*
X114942675Y-77829500D01*
X114942675Y-77829500D02*
X114909341Y-77848547D01*
X114909341Y-77848547D02*
X114842675Y-77848547D01*
X114842675Y-77848547D02*
X114809341Y-77829500D01*
X114809341Y-77829500D02*
X114776008Y-77791404D01*
X114776008Y-77791404D02*
X114759341Y-77715214D01*
X114759341Y-77715214D02*
X114759341Y-77581880D01*
X114759341Y-77581880D02*
X114776008Y-77505690D01*
X114776008Y-77505690D02*
X114809341Y-77467595D01*
X114809341Y-77467595D02*
X114842675Y-77448547D01*
D11*
X107907817Y-73313771D02*
X107907817Y-73504247D01*
X107774484Y-73104247D02*
X107907817Y-73313771D01*
X107907817Y-73313771D02*
X108041150Y-73104247D01*
X108174484Y-73351866D02*
X108479246Y-73351866D01*
X108669722Y-73504247D02*
X108669722Y-73104247D01*
X110646255Y-74216866D02*
X111179589Y-74216866D01*
X110912922Y-74483533D02*
X110912922Y-73950200D01*
D13*
X111307197Y-78370690D02*
X111283388Y-78394500D01*
X111283388Y-78394500D02*
X111211959Y-78418309D01*
X111211959Y-78418309D02*
X111164340Y-78418309D01*
X111164340Y-78418309D02*
X111092912Y-78394500D01*
X111092912Y-78394500D02*
X111045293Y-78346880D01*
X111045293Y-78346880D02*
X111021483Y-78299261D01*
X111021483Y-78299261D02*
X110997674Y-78204023D01*
X110997674Y-78204023D02*
X110997674Y-78132595D01*
X110997674Y-78132595D02*
X111021483Y-78037357D01*
X111021483Y-78037357D02*
X111045293Y-77989738D01*
X111045293Y-77989738D02*
X111092912Y-77942119D01*
X111092912Y-77942119D02*
X111164340Y-77918309D01*
X111164340Y-77918309D02*
X111211959Y-77918309D01*
X111211959Y-77918309D02*
X111283388Y-77942119D01*
X111283388Y-77942119D02*
X111307197Y-77965928D01*
X111497674Y-77965928D02*
X111521483Y-77942119D01*
X111521483Y-77942119D02*
X111569102Y-77918309D01*
X111569102Y-77918309D02*
X111688150Y-77918309D01*
X111688150Y-77918309D02*
X111735769Y-77942119D01*
X111735769Y-77942119D02*
X111759578Y-77965928D01*
X111759578Y-77965928D02*
X111783388Y-78013547D01*
X111783388Y-78013547D02*
X111783388Y-78061166D01*
X111783388Y-78061166D02*
X111759578Y-78132595D01*
X111759578Y-78132595D02*
X111473864Y-78418309D01*
X111473864Y-78418309D02*
X111783388Y-78418309D01*
D11*
X112079750Y-76323695D02*
X112041655Y-76304647D01*
X112041655Y-76304647D02*
X111984512Y-76304647D01*
X111984512Y-76304647D02*
X111927369Y-76323695D01*
X111927369Y-76323695D02*
X111889274Y-76361790D01*
X111889274Y-76361790D02*
X111870227Y-76399885D01*
X111870227Y-76399885D02*
X111851179Y-76476076D01*
X111851179Y-76476076D02*
X111851179Y-76533219D01*
X111851179Y-76533219D02*
X111870227Y-76609409D01*
X111870227Y-76609409D02*
X111889274Y-76647504D01*
X111889274Y-76647504D02*
X111927369Y-76685600D01*
X111927369Y-76685600D02*
X111984512Y-76704647D01*
X111984512Y-76704647D02*
X112022608Y-76704647D01*
X112022608Y-76704647D02*
X112079750Y-76685600D01*
X112079750Y-76685600D02*
X112098798Y-76666552D01*
X112098798Y-76666552D02*
X112098798Y-76533219D01*
X112098798Y-76533219D02*
X112022608Y-76533219D01*
X112270227Y-76704647D02*
X112270227Y-76304647D01*
X112270227Y-76304647D02*
X112498798Y-76704647D01*
X112498798Y-76704647D02*
X112498798Y-76304647D01*
X112689275Y-76704647D02*
X112689275Y-76304647D01*
X112689275Y-76304647D02*
X112784513Y-76304647D01*
X112784513Y-76304647D02*
X112841656Y-76323695D01*
X112841656Y-76323695D02*
X112879751Y-76361790D01*
X112879751Y-76361790D02*
X112898798Y-76399885D01*
X112898798Y-76399885D02*
X112917846Y-76476076D01*
X112917846Y-76476076D02*
X112917846Y-76533219D01*
X112917846Y-76533219D02*
X112898798Y-76609409D01*
X112898798Y-76609409D02*
X112879751Y-76647504D01*
X112879751Y-76647504D02*
X112841656Y-76685600D01*
X112841656Y-76685600D02*
X112784513Y-76704647D01*
X112784513Y-76704647D02*
X112689275Y-76704647D01*
X108009398Y-79866952D02*
X107990350Y-79886000D01*
X107990350Y-79886000D02*
X107933208Y-79905047D01*
X107933208Y-79905047D02*
X107895112Y-79905047D01*
X107895112Y-79905047D02*
X107837969Y-79886000D01*
X107837969Y-79886000D02*
X107799874Y-79847904D01*
X107799874Y-79847904D02*
X107780827Y-79809809D01*
X107780827Y-79809809D02*
X107761779Y-79733619D01*
X107761779Y-79733619D02*
X107761779Y-79676476D01*
X107761779Y-79676476D02*
X107780827Y-79600285D01*
X107780827Y-79600285D02*
X107799874Y-79562190D01*
X107799874Y-79562190D02*
X107837969Y-79524095D01*
X107837969Y-79524095D02*
X107895112Y-79505047D01*
X107895112Y-79505047D02*
X107933208Y-79505047D01*
X107933208Y-79505047D02*
X107990350Y-79524095D01*
X107990350Y-79524095D02*
X108009398Y-79543142D01*
X108180827Y-79752666D02*
X108485589Y-79752666D01*
X108676065Y-79905047D02*
X108676065Y-79505047D01*
X110620855Y-78788866D02*
X111154189Y-78788866D01*
X110887522Y-79055533D02*
X110887522Y-78522200D01*
D13*
X111357997Y-73798690D02*
X111334188Y-73822500D01*
X111334188Y-73822500D02*
X111262759Y-73846309D01*
X111262759Y-73846309D02*
X111215140Y-73846309D01*
X111215140Y-73846309D02*
X111143712Y-73822500D01*
X111143712Y-73822500D02*
X111096093Y-73774880D01*
X111096093Y-73774880D02*
X111072283Y-73727261D01*
X111072283Y-73727261D02*
X111048474Y-73632023D01*
X111048474Y-73632023D02*
X111048474Y-73560595D01*
X111048474Y-73560595D02*
X111072283Y-73465357D01*
X111072283Y-73465357D02*
X111096093Y-73417738D01*
X111096093Y-73417738D02*
X111143712Y-73370119D01*
X111143712Y-73370119D02*
X111215140Y-73346309D01*
X111215140Y-73346309D02*
X111262759Y-73346309D01*
X111262759Y-73346309D02*
X111334188Y-73370119D01*
X111334188Y-73370119D02*
X111357997Y-73393928D01*
X111834188Y-73846309D02*
X111548474Y-73846309D01*
X111691331Y-73846309D02*
X111691331Y-73346309D01*
X111691331Y-73346309D02*
X111643712Y-73417738D01*
X111643712Y-73417738D02*
X111596093Y-73465357D01*
X111596093Y-73465357D02*
X111548474Y-73489166D01*
D14*
X107170233Y-78260487D02*
X107036900Y-78070011D01*
X106941662Y-78260487D02*
X106941662Y-77860487D01*
X106941662Y-77860487D02*
X107094043Y-77860487D01*
X107094043Y-77860487D02*
X107132138Y-77879535D01*
X107132138Y-77879535D02*
X107151185Y-77898582D01*
X107151185Y-77898582D02*
X107170233Y-77936678D01*
X107170233Y-77936678D02*
X107170233Y-77993820D01*
X107170233Y-77993820D02*
X107151185Y-78031916D01*
X107151185Y-78031916D02*
X107132138Y-78050963D01*
X107132138Y-78050963D02*
X107094043Y-78070011D01*
X107094043Y-78070011D02*
X106941662Y-78070011D01*
X107322614Y-77898582D02*
X107341662Y-77879535D01*
X107341662Y-77879535D02*
X107379757Y-77860487D01*
X107379757Y-77860487D02*
X107474995Y-77860487D01*
X107474995Y-77860487D02*
X107513090Y-77879535D01*
X107513090Y-77879535D02*
X107532138Y-77898582D01*
X107532138Y-77898582D02*
X107551185Y-77936678D01*
X107551185Y-77936678D02*
X107551185Y-77974773D01*
X107551185Y-77974773D02*
X107532138Y-78031916D01*
X107532138Y-78031916D02*
X107303566Y-78260487D01*
X107303566Y-78260487D02*
X107551185Y-78260487D01*
X107170233Y-75060087D02*
X107036900Y-74869611D01*
X106941662Y-75060087D02*
X106941662Y-74660087D01*
X106941662Y-74660087D02*
X107094043Y-74660087D01*
X107094043Y-74660087D02*
X107132138Y-74679135D01*
X107132138Y-74679135D02*
X107151185Y-74698182D01*
X107151185Y-74698182D02*
X107170233Y-74736278D01*
X107170233Y-74736278D02*
X107170233Y-74793420D01*
X107170233Y-74793420D02*
X107151185Y-74831516D01*
X107151185Y-74831516D02*
X107132138Y-74850563D01*
X107132138Y-74850563D02*
X107094043Y-74869611D01*
X107094043Y-74869611D02*
X106941662Y-74869611D01*
X107551185Y-75060087D02*
X107322614Y-75060087D01*
X107436900Y-75060087D02*
X107436900Y-74660087D01*
X107436900Y-74660087D02*
X107398804Y-74717230D01*
X107398804Y-74717230D02*
X107360709Y-74755325D01*
X107360709Y-74755325D02*
X107322614Y-74774373D01*
M02*
